<?xml version="1.0" encoding="utf-8"?>
<!-- Generator: Adobe Illustrator 18.0.0, SVG Export Plug-In . SVG Version: 6.00 Build 0)  -->
<!DOCTYPE svg PUBLIC "-//W3C//DTD SVG 1.1//EN" "http://www.w3.org/Graphics/SVG/1.1/DTD/svg11.dtd">
<svg version="1.1" xmlns="http://www.w3.org/2000/svg" xmlns:xlink="http://www.w3.org/1999/xlink" x="0px" y="0px"
	 viewBox="0 0 258.7 117" enable-background="new 0 0 258.7 117" xml:space="preserve">
<g id="capa1">
</g>
<g id="Capa_6">
</g>
<g id="Capa_5">
</g>
<g id="Capa_7">
</g>
<g id="Capa_8">
	<g id="Capa_10">
	</g>
</g>
<g id="Capa_11">
</g>
<g id="Capa_9">
</g>
<g id="BKG">
</g>
<g id="OBJ">
</g>
<g id="TXT">
	<g>
		<g id="WKp8d3.tif">
			<g>
				<path fill="#1FB2A0" d="M44.8,116.7c-2-0.5-3.7-1.4-4.6-3.4c-0.7-1.6-0.8-3.3-0.5-5c1.7-8.3,3.3-16.6,5-24.9
					c0.9-4.4,3.7-7.4,8-8.6c5.7-1.6,11.6-2.9,17.3-4.4c0.2,0,0.4-0.1,0.6-0.2c0.1,0,0.3-0.1,0.3-0.3c0-0.2-0.2-0.2-0.3-0.2
					c-0.3,0-0.5,0-0.8,0c-3.9,0-7.7,0-11.6,0c-3.5,0-5.6-2.2-5.6-5.6c0-13-0.1-25.9,0-38.9c0.1-6,2.3-11.4,6.2-16
					c4.3-5.2,9.9-8.2,16.6-9.2c0.1,0,0.2-0.1,0.3-0.1c1.9,0,3.7,0,5.6,0c2.8,0.3,5.6,0.9,8.3,1.9c1.1,0.4,2.2,0.8,3.2,1.4
					c0.6,0.4,1.3,0.4,1.9,0.3c5-1,8.9,0.8,12.2,4.5c2.6,2.9,4,6.3,4,10.3c0,1.3-0.7,2.1-1.8,2.1c-1,0-1.7-0.9-1.8-2.1
					c-0.1-4-1.9-7.2-5-9.6c-1.9-1.5-4.1-2-6.4-1.6c-1.8,0.3-3.4,0-5.1-0.8c-6.3-2.9-12.8-3.9-19.5-1.5c-8.2,3-13,9-14.7,17.5
					c-0.3,1.5-0.2,2.9-0.2,4.4c0,12.2,0,24.3,0,36.5c0,0.4,0,0.8,0,1.1c0.1,1.1,0.5,1.5,1.6,1.6c1.6,0,3.3,0,4.9,0
					c2.4,0,4.9,0,7.3,0c0.3,0,0.8,0.2,0.9-0.4c0.1-0.5-0.1-0.9-0.6-1.2c-6.7-4-10.5-9.9-11.4-17.7c-0.3-2.3-0.2-4.7,0-7
					c0.1-2.1,2.2-3.8,4.4-3.8c2.4,0,4.9,0.1,7.3-0.3c6-1,11.2-3.5,15.7-7.6c1.6-1.4,3-3.1,4.4-4.7c1.7-2.1,4.1-2,5.4,0.4
					c1,1.8,2.5,2.9,4.5,3.2c1.5,0.3,2.7,1.2,3.3,2.6c0.2,0.6,0.6,0.9,1.2,1c0.7,0.1,1.4,0.9,1.8,0.5c0.5-0.4,0.2-1.4,0.2-2.1
					c0-0.8,0-1.5,0-2.3c0-1.1,0.8-1.9,1.8-1.9c1,0,1.8,0.8,1.8,1.9c0,2.3,0,4.5,0,6.8c0,10.2,0,20.4,0,30.5c0,3.5-2.1,5.7-5.7,5.7
					c-3.8,0-7.6,0-11.4,0c-0.2,0-0.5,0-0.7,0c-0.2,0-0.5-0.1-0.6,0.2c0,0.3,0.3,0.3,0.5,0.4c1,0.3,2,0.5,3,0.7
					c4.7,1.2,9.5,2.3,14.2,3.6c4.8,1.3,7.7,4.5,8.7,9.4c1.6,8.1,3.3,16.3,4.8,24.4c0.5,2.5,0.2,4.9-1.9,6.8c-0.9,0.8-2,1.2-3.1,1.5
					c-15.4,0-30.9,0-46.3,0c-0.8-0.6-1.3-1.3-0.9-2.3c0.4-1,1.3-1.2,2.2-1.2c0.3,0,0.6,0,1,0c9.6,0,19.3,0,28.9,0
					c0.8,0,1.1-0.2,1.1-1.1c0-3.5,0-7,0-10.5c0-1.5,0-2.9,0-4.4c0-1.2,0.8-1.9,1.8-1.9c1,0,1.7,0.8,1.7,1.9c0,0.3,0,0.6,0,0.9
					c0,4.7,0,9.4,0,14.1c0,0.5-0.1,1,0.7,1c2.8,0,5.6,0,8.4,0c2.1-0.1,2.9-1.1,2.9-3.1c0-0.4-0.1-0.8-0.1-1.2c-1.6-8-3.2-16-4.8-24
					c-0.7-3.6-2.8-5.8-6.3-6.7c-3.1-0.8-6.2-1.5-9.3-2.3c-0.6-0.2-1,0-1.3,0.5c-1.2,1.4-2.3,2.8-3.5,4.1c-2.3,2.7-4.6,5.5-7,8.1
					c-2.7,2.9-6.3,3.5-9.6,2c-1.8-0.8-3-2.2-4.3-3.7c-3-3.6-6-7.1-9-10.6c-0.3-0.3-0.5-0.6-1-0.5c-3.4,0.9-6.9,1.6-10.2,2.6
					c-3.1,0.9-5,3.1-5.6,6.3c-1.1,5.7-2.3,11.5-3.4,17.2c-0.5,2.6-1.1,5.1-1.5,7.7c-0.4,2.4,0.6,3.6,2.7,3.8c0.4,0,0.8,0,1.2,0
					c2.1,0,4.3,0,6.4,0c1.8,0,1.6,0.2,1.6-1.6c0-4.6,0-9.3,0-13.9c0-0.7,0.1-1.3,0.6-1.8c0.6-0.5,1.2-0.7,1.9-0.4
					c0.8,0.3,1.1,1,1.1,1.8c0,4.9,0,9.8,0,14.8c0,0.9,0.3,1.1,1.1,1.1c1.6-0.1,3.1,0,4.7,0c1.2,0,1.9,0.4,2.2,1.3
					c0.3,1-0.2,1.7-1,2.2C58.9,116.7,51.8,116.7,44.8,116.7z M100.8,39.2C100.8,39.2,100.8,39.2,100.8,39.2c0-2.4,0-4.9,0-7.3
					c0-0.9-0.3-1.4-1.2-1.5c-2.5-0.4-4.5-1.8-5.9-3.9c-0.3-0.5-0.5-0.5-0.8,0c-0.9,1.3-2.1,2.4-3.2,3.5c-5.6,5.4-12.4,8.6-20.1,9.5
					c-1.9,0.2-3.8,0.1-5.8,0.1c-0.7,0-1.3,0.3-1.3,1.1c0.1,2.1-0.1,4.2,0.1,6.3C63.9,57,73.5,65.5,84.9,63.6c9-1.5,15.8-9,16-18.2
					C100.9,43.4,100.8,41.3,100.8,39.2z M68.4,74.5c0.9,1.1,1.7,2,2.5,2.9c0.2,0.3,0.5,0.4,0.9,0.4c6.6,0,13.2,0,19.7,0
					c0.4,0,0.7-0.1,0.9-0.4c0.7-0.8,1.3-1.6,2-2.4c0.4-0.5,0.3-0.6-0.3-0.8c-1.3-0.3-2.7-0.6-4-1c-1.1-0.3-1.5-0.9-1.6-2
					c0-1.4,0-2.7,0-4.1c0-0.6-0.2-0.8-0.8-0.6c-4.2,1.2-8.4,1.2-12.6,0c-0.6-0.2-0.8,0.1-0.7,0.6c0,1.2,0,2.4,0,3.6
					c0,1.8-0.3,2.2-2.1,2.7C71.3,73.8,69.9,74.2,68.4,74.5z M107.3,54.4c0-3.3,0-6.7,0-10c0-0.6-0.1-0.9-0.8-0.5
					c-0.4,0.2-0.9,0.4-1.3,0.5c-0.5,0.1-0.6,0.4-0.7,0.9c0,0.9-0.1,1.8-0.2,2.7c-1.2,7.3-4.9,12.9-11.4,16.7c-0.4,0.3-0.7,0.5-0.5,1
					c0.1,0.5,0.6,0.4,0.9,0.4c4,0,8,0,12,0c1.5,0,2-0.5,2-2C107.3,60.8,107.3,57.6,107.3,54.4z M74.3,81.5c1.4,1.6,2.6,3.2,4,4.6
					c1.7,1.7,4,2,5.8,0.7c2-1.4,3.2-3.4,5-5.3C84.1,81.5,79.3,81.5,74.3,81.5z M104.5,37.3c0,0.9,0,1.8,0,2.7c0,0.5,0.2,0.7,0.7,0.4
					c1.1-0.7,2-1.3,2-2.8c0.1-1.6-0.8-2.5-2-3.3c-0.5-0.3-0.8-0.2-0.7,0.4C104.6,35.6,104.5,36.5,104.5,37.3z"/>
			</g>
		</g>
		<g>
			<g id="JtFIyF.tif">
				<g>
					<path fill="#B2B2B2" d="M150,117c-1-0.1-1.8-0.5-2.4-1.4c-0.7-1-0.9-2.1-0.3-3.3c0.6-1.2,1.5-1.8,2.8-1.9c1,0,2,0,3,0
						c0.4,0,0.6-0.1,0.7-0.5c0.5-1.6,1-3.2,1.5-4.8c0.2-0.6,0.2-0.6-0.5-0.6c-4.7,0-9.3,0-14,0c-1,0-1.9-0.1-2.8-0.6
						c-2.2-1.1-3.6-2.8-3.6-5.3c0-9.7,0-19.3,0-29c0-1.6,0-3.1,0-4.7c0-3.3,2.7-6,5.9-6c1.9,0,3.8,0,5.7,0c0.7,0,1.1,0.3,1.1,0.8
						c0.1,0.7-0.4,1.1-1.1,1.1c-1.9,0-3.8,0-5.6,0c-2,0-3.6,1.3-4,3.2c-0.1,0.3-0.1,0.6-0.1,1c0,11,0,22.1,0,33.1
						c0,2.1,1.5,4.2,4.2,4.3c0.1,0,0.2,0,0.3,0c16.8,0,33.5,0,50.3,0c1.3,0,2.5-0.3,3.4-1.3c0.7-0.7,1-1.6,1.1-2.5
						c0-0.2,0-0.4,0-0.6c0-10.9,0-21.7,0-32.6c0-0.7,0-1.4-0.3-2c-0.8-1.6-2-2.4-3.8-2.4c-6.1,0-12.3,0-18.4,0c-7.5,0-15,0-22.6,0
						c-0.2,0-0.4,0-0.6,0c-0.5-0.1-0.9-0.5-0.9-1c0-0.5,0.4-0.9,0.9-0.9c0.2,0,0.3,0,0.5,0c13.6,0,27.2,0,40.9,0
						c3.2,0,5.7,2.2,6.2,5c0,0.1,0,0.1,0.1,0.2c0,11.7,0,23.4,0,35.1c0,0.2-0.1,0.4-0.1,0.5c-0.5,2-1.8,3.4-3.7,4.2
						c-0.9,0.4-1.8,0.4-2.7,0.4c-4.6,0-9.2,0-13.9,0c-0.6,0-0.6,0-0.4,0.6c0.5,1.6,1,3.2,1.5,4.9c0.1,0.4,0.3,0.5,0.7,0.5
						c1,0,1.9,0,2.9,0c1.4,0,2.5,0.8,3,2.1c0.5,1.3,0.2,2.6-0.9,3.6c-0.6,0.5-1.2,0.7-2,0.9C171.3,117,160.6,117,150,117z
						 M165.9,110.5c3.3,0,6.5,0,9.8,0c0.4,0,0.5-0.1,0.4-0.5c-0.5-1.6-1-3.3-1.5-4.9c-0.1-0.4-0.3-0.5-0.6-0.5c-5.3,0-10.7,0-16,0
						c-0.4,0-0.6,0.2-0.7,0.5c-0.5,1.6-1,3.2-1.5,4.9c-0.2,0.5-0.2,0.5,0.4,0.5C159.4,110.5,162.7,110.5,165.9,110.5z M165.9,112.5
						c-5.1,0-10.2,0-15.3,0c-0.2,0-0.4,0-0.6,0c-0.8,0.1-1.4,0.9-1.1,1.7c0.2,0.6,0.7,0.9,1.5,0.9c10.3,0,20.6,0,30.8,0
						c0.3,0,0.5,0,0.8-0.1c0.5-0.2,0.8-0.5,0.8-1c0.1-0.5-0.1-0.8-0.5-1.1c-0.3-0.3-0.7-0.3-1-0.3
						C176.3,112.5,171.1,112.5,165.9,112.5z"/>
					<path fill="#B2B2B2" d="M165.9,96.7c-8.4,0-16.9,0-25.3,0c-1,0-1.3-0.3-1.3-1.3c0-10,0-20,0-30c0-1,0.4-1.3,1.3-1.3
						c16.9,0,33.7,0,50.6,0c0.9,0,1.3,0.4,1.3,1.3c0,7.7,0,15.4,0,23.1c0,0.9-0.6,1.4-1.4,1.1c-0.4-0.2-0.5-0.5-0.6-0.8
						c0-0.2,0-0.4,0-0.6c0-7.2,0-14.3,0-21.5c0-0.7,0-0.7-0.7-0.7c-16,0-31.9,0-47.9,0c-0.7,0-0.7,0-0.7,0.7c0,9.1,0,18.2,0,27.2
						c0,0.7,0,0.7,0.7,0.7c16,0,31.9,0,47.9,0c0.7,0,0.7,0,0.7-0.7c0-0.5,0-0.9,0-1.4c0-0.7,0.4-1.1,1-1.1c0.6,0,1,0.4,1,1.1
						c0,0.9,0,1.9,0,2.8c0,1-0.3,1.2-1.2,1.2C182.9,96.7,174.4,96.7,165.9,96.7z"/>
					<path fill="#B2B2B2" d="M166,98.5c0.5,0,1,0.5,1,1c0,0.5-0.4,1-1,1c-0.5,0-1-0.5-1-1C164.9,99,165.4,98.5,166,98.5z"/>
				</g>
			</g>
			<g id="MvNU0t.tif">
				<g>
					<path fill="#B2B2B2" d="M235.3,77c0.5,0.2,0.9,0.4,1.3,0.8c0.4,0.5,0.6,1,0.6,1.6c0,11.7,0,23.5,0,35.2c0,1.4-1.1,2.4-2.5,2.4
						c-8.6,0-17.1,0-25.7,0c-0.5,0-1,0-1.5,0c-1.2,0-2.3-1-2.3-2.3c0-0.2,0-0.3,0-0.5c0-11.5,0-23,0-34.5c0-1.4,0.7-2.4,1.9-2.7
						C216.5,77,225.9,77,235.3,77z M206.6,97c0,5.8,0,11.6,0,17.4c0,0.8,0.4,1.2,1.2,1.2c8.9,0,17.8,0,26.8,0c0.8,0,1.2-0.4,1.2-1.2
						c0-11.6,0-23.2,0-34.8c0-0.7-0.3-1.2-1.2-1.2c-4.6,0-9.2,0-13.8,0c-4.3,0-8.6,0-13,0c-0.2,0-0.4,0-0.6,0.1
						c-0.4,0.2-0.6,0.6-0.6,1C206.6,85.3,206.6,91.2,206.6,97z"/>
					<path fill="#B2B2B2" d="M234.9,97c0,4.9,0,9.8,0,14.7c0,0.1,0,0.2,0,0.3c0,0.6-0.2,0.7-0.7,0.7c-5.8,0-11.7,0-17.5,0
						c-2.8,0-5.7,0-8.5,0c-0.5,0-0.7-0.1-0.7-0.7c0-0.1,0-0.2,0-0.3c0-9.8,0-19.7,0-29.5c0-0.1,0-0.1,0-0.2c0-0.6,0.1-0.7,0.7-0.7
						c8.6,0,17.3,0,25.9,0c0.7,0,0.8,0.1,0.8,0.8C234.9,87.1,234.9,92,234.9,97z M208.4,97c0,4.8,0,9.5,0,14.3c0,0.4,0,0.4,0.4,0.4
						c8.2,0,16.4,0,24.7,0c0.4,0,0.4,0,0.4-0.4c0-9.5,0-19.1,0-28.6c0-0.4,0-0.4-0.4-0.4c-8.2,0-16.4,0-24.6,0c-0.4,0-0.4,0-0.4,0.4
						C208.4,87.5,208.4,92.2,208.4,97z"/>
					<path fill="#B2B2B2" d="M221.2,115c-0.4,0-0.7-0.3-0.7-0.7c0-0.3,0.3-0.7,0.7-0.7c0.4,0,0.7,0.3,0.7,0.7
						C221.9,114.7,221.6,115,221.2,115z"/>
					<path fill="#B2B2B2" d="M221.2,79.4c0.3,0,0.5,0.2,0.5,0.5c0,0.3-0.2,0.5-0.5,0.5c-0.3,0-0.5-0.2-0.5-0.4
						C220.7,79.6,220.9,79.4,221.2,79.4z"/>
				</g>
			</g>
			<g id="xxG34n.tif">
				<g>
					<path fill="#B2B2B2" d="M257.4,92.7c0.4,0.1,0.8,0.4,1,0.7c0.2,0.3,0.3,0.6,0.3,0.9c0,4.3,0,8.5,0,12.8c0,2.6,0,5.2,0,7.8
						c0,1-0.3,1.7-1.3,2c-3.6,0-7.2,0-10.8,0c-0.4-0.1-0.8-0.3-1-0.7c-0.2-0.3-0.3-0.6-0.3-1c0-4.2,0-8.4,0-12.6c0-2.6,0-5.3,0-7.9
						c0-1,0.3-1.7,1.3-2C250.2,92.7,253.8,92.7,257.4,92.7z M258,104.1C258,104.1,258,104.1,258,104.1c0-2.5,0-5.1,0-7.6
						c0-0.4,0-0.4-0.4-0.4c-3.8,0-7.5,0-11.3,0c-0.4,0-0.4,0-0.4,0.3c0,5.1,0,10.1,0,15.2c0,0.3,0,0.3,0.3,0.3c3.8,0,7.6,0,11.3,0
						c0.3,0,0.3,0,0.3-0.3C258,109.1,258,106.6,258,104.1z M252,112.7c-1.9,0-3.8,0-5.7,0c-0.2,0-0.3,0.1-0.3,0.3c0,0.8,0,1.6,0,2.4
						c0,0.7,0.4,1.1,1.1,1.1c3.3,0,6.6,0,9.9,0c0.7,0,1.1-0.4,1.1-1.1c0-0.8,0-1.5,0-2.3c0-0.2-0.1-0.3-0.3-0.3
						C255.8,112.7,253.9,112.7,252,112.7z M252,95.5C252,95.5,252,95.5,252,95.5c0.4,0,0.7,0,1.1,0c1.5,0,3.1,0,4.6,0
						c0.2,0,0.3-0.1,0.3-0.3c0-0.3,0-0.6,0-0.9c0-0.3-0.1-0.5-0.4-0.7c-0.2-0.2-0.4-0.2-0.7-0.2c-3.3,0-6.6,0-9.9,0c0,0,0,0-0.1,0
						c-0.6,0-1,0.4-1,1c0,0.3,0,0.5,0,0.8c0,0.2,0.1,0.3,0.3,0.3C248.2,95.5,250.1,95.5,252,95.5z"/>
					<path fill="#B2B2B2" d="M252,115.8c-0.7,0-1.3-0.6-1.3-1.3c0-0.7,0.6-1.3,1.3-1.3c0.7,0,1.3,0.6,1.3,1.3
						C253.3,115.3,252.7,115.8,252,115.8z M252,114c-0.4,0-0.6,0.3-0.6,0.6c0,0.3,0.3,0.6,0.6,0.6c0.3,0,0.6-0.3,0.6-0.6
						C252.6,114.2,252.4,114,252,114z"/>
				</g>
			</g>
		</g>
		<rect x="0" y="1.3" fill="#E5E5E5" width="29.2" height="115"/>
		<g>
			<path fill="#808080" d="M7.7,96.1h8c3,0,4.3-1.3,4.3-3.1c0-2-1.3-3.3-4.3-3.3h-8v-1.8h7.9c4.1,0,5.8,2.2,5.8,5.1
				c0,2.8-1.6,4.8-5.8,4.8H7.7V96.1z"/>
			<path fill="#808080" d="M19.1,85.1c0.5-0.8,0.9-1.9,0.9-3.1c0-1.8-0.9-2.8-2.3-2.8c-1.3,0-2,0.7-2.7,2.5
				c-0.8,2.2-1.9,3.6-3.8,3.6c-2.1,0-3.7-1.7-3.7-4.4c0-1.4,0.3-2.4,0.7-3l1.4,0.5c-0.2,0.4-0.6,1.3-0.6,2.6c0,1.8,1.1,2.5,2,2.5
				c1.3,0,1.9-0.8,2.6-2.7c0.9-2.3,2-3.4,4-3.4c2.1,0,3.9,1.5,3.9,4.7c0,1.3-0.4,2.7-0.9,3.4L19.1,85.1z"/>
			<path fill="#808080" d="M7.7,73.3h8c3,0,4.3-1.3,4.3-3.1c0-2-1.3-3.3-4.3-3.3h-8v-1.8h7.9c4.1,0,5.8,2.2,5.8,5.1
				c0,2.8-1.6,4.8-5.8,4.8H7.7V73.3z"/>
			<path fill="#808080" d="M16.9,60.6l4.2,1.4v1.8L7.7,59.2v-2.1l13.5-4.6v1.9l-4.2,1.4V60.6z M15.6,56.2l-3.9,1.3
				c-0.9,0.3-1.7,0.5-2.5,0.7v0c0.8,0.2,1.6,0.4,2.4,0.7l3.9,1.3V56.2z"/>
			<path fill="#808080" d="M7.9,50.5c-0.2-0.9-0.3-2.1-0.3-3.3c0-1.9,0.3-3.1,1.1-3.9c0.6-0.7,1.5-1.1,2.6-1.1c1.8,0,3,1.1,3.4,2.5
				h0.1c0.4-1,1.3-1.7,2.7-2c1.9-0.4,3.2-0.8,3.7-1v1.8c-0.4,0.2-1.5,0.5-3.2,0.9c-1.9,0.4-2.6,1.1-2.6,2.7v1.6h5.8v1.7H7.9z
				 M14,48.8V47c0-1.9-1-3-2.6-3c-1.7,0-2.5,1.3-2.5,3.1c0,0.8,0.1,1.4,0.2,1.7H14z"/>
			<path fill="#808080" d="M7.7,38h13.5v1.7H7.7V38z"/>
			<path fill="#808080" d="M14.3,23.5c4.6,0,7.1,2.8,7.1,6.3c0,3.6-2.8,6.1-6.8,6.1c-4.3,0-7.1-2.7-7.1-6.3
				C7.5,25.8,10.3,23.5,14.3,23.5z M14.5,33.9c2.9,0,5.5-1.6,5.5-4.3c0-2.8-2.5-4.3-5.6-4.3c-2.7,0-5.5,1.4-5.5,4.3
				C8.9,32.5,11.6,33.9,14.5,33.9z"/>
		</g>
	</g>
</g>
</svg>
