<?xml version="1.0" encoding="utf-8"?>
<!-- Generator: Adobe Illustrator 18.0.0, SVG Export Plug-In . SVG Version: 6.00 Build 0)  -->
<!DOCTYPE svg PUBLIC "-//W3C//DTD SVG 1.1//EN" "http://www.w3.org/Graphics/SVG/1.1/DTD/svg11.dtd">
<svg version="1.1" xmlns="http://www.w3.org/2000/svg" xmlns:xlink="http://www.w3.org/1999/xlink" x="0px" y="0px"
	 viewBox="0 0 232.1 118.4" enable-background="new 0 0 232.1 118.4" xml:space="preserve">
<g id="capa1">
</g>
<g id="Capa_6">
</g>
<g id="Capa_5">
</g>
<g id="Capa_7">
</g>
<g id="Capa_8">
	<g id="Capa_10">
	</g>
</g>
<g id="Capa_11">
</g>
<g id="Capa_9">
</g>
<g id="BKG">
</g>
<g id="OBJ">
</g>
<g id="TXT">
	<g>
		<g>
			<g id="N7Dtap.tif">
				<g>
					<path fill="#E05A5A" d="M119.1,81.1c0.7,0.2,1.3,0.7,1.4,1.5c0.1,0.6,0.1,1.2,0,1.8c-0.1,0.9-0.9,1.5-1.9,1.5
						c-0.4,0-0.4,0-0.4,0.4c0,0.6,0,1.3,0,1.9c0,0.2,0.1,0.3,0.3,0.4c0.6,0.3,1.1,0.6,1.7,1c1.5,0.9,2.2,2.1,2.2,3.8
						c0,2.6,0,5.2,0,7.8c0,0.4,0,0.4,0.3,0.2c4.2-1.9,8.1-1.6,11.8,1.1c1.9,1.4,3,3.3,3.4,5.6c0.3,2.4-0.3,4.5-1.8,6.3
						c-1.7,2.1-4,3.3-6.8,3.7c-2,0.3-3.9,0.1-5.7-0.6c-1.6-0.6-2.9-1.5-4-2.8c-0.1-0.1-0.2-0.2-0.4-0.1c-0.3,0.1-0.7,0.1-1,0.1
						c-4.4,0-8.7,0-13.1,0c-2.1,0-4-1.4-4.3-3.5c0,0,0-0.1,0-0.1c0-6.2,0-12.3,0-18.5c0,0,0-0.1,0-0.1c0.3-1.3,1-2.3,2.1-3
						c0.6-0.3,1.2-0.7,1.8-1c0.2-0.1,0.2-0.2,0.2-0.4c0-0.7,0-1.4,0-2.1c0-0.2-0.1-0.3-0.3-0.3c-0.2,0-0.4,0-0.6,0
						c-0.8-0.1-1.5-0.9-1.5-1.7c0-0.5,0-0.9,0-1.4c0-0.2,0.1-0.4,0.1-0.6c0.3-0.6,0.7-0.9,1.3-1.1C108.9,81.1,114,81.1,119.1,81.1z
						 M111.4,98.6c-2.3,0-4.5,0-6.8,0c-0.4,0-0.4,0-0.4,0.4c0,2.3,0,4.6,0,6.9c0,0.4,0,0.4,0.4,0.4c4.2,0,8.4,0,12.6,0
						c0.5,0,0.8-0.1,1-0.6c0.2-0.4,0.3-0.8,0.3-1.2c0-1.8,0-3.6,0-5.4c0-0.4,0-0.4-0.4-0.4C115.9,98.6,113.7,98.6,111.4,98.6z
						 M120,103.4c0.3-0.3,0.6-0.5,0.9-0.7c0.2-0.1,0.2-0.3,0.2-0.4c0-1.9,0-3.8,0-5.7c0-0.3-0.1-0.4-0.4-0.3c-1.1,0-2.1,0-3.2,0
						c-0.2,0-0.3-0.1-0.4-0.3c-0.1-0.3-0.3-0.6-0.4-0.9c-1.1-2.1-3.8-3.4-6.1-3c-2.3,0.4-3.8,1.7-4.7,3.8c-0.1,0.2-0.2,0.3-0.5,0.3
						c-1,0-2.1,0-3.1,0c-0.4,0-0.4,0-0.4,0.4c0,3.9,0,7.8,0,11.7c0,0.4,0,0.4,0.4,0.4c4.9,0,9.9,0,14.8,0c0.1,0,0.1,0,0.2,0
						c0.1,0,0.2-0.1,0.2-0.2c0-0.2,0-0.4,0.1-0.6c0.1-0.4,0.1-0.4-0.3-0.4c-4.6,0-9.2,0-13.9,0c-0.4,0-0.4,0-0.4-0.4
						c0-3.2,0-6.3,0-9.5c0-0.4,0-0.4,0.4-0.4c5.4,0,10.7,0,16.1,0c0.4,0,0.4,0,0.4,0.4c0,1.8,0,3.5,0,5.3
						C119.9,103.1,119.9,103.2,120,103.4z M111.4,85.9c-1.7,0-3.4,0-5,0c-0.3,0-0.3,0.1-0.3,0.3c0,0.9,0,1.8,0,2.7
						c0,0.2-0.1,0.3-0.3,0.4c-0.8,0.5-1.6,0.9-2.4,1.4c-0.8,0.5-1.3,1.1-1.5,2c-0.1,0.6,0,1.3-0.1,1.9c0,0.2,0.1,0.2,0.3,0.2
						c0.8,0,1.7,0,2.5,0c0.2,0,0.2-0.1,0.3-0.2c0.4-0.9,1.1-1.7,1.8-2.4c1.7-1.4,3.6-1.9,5.7-1.6c2.4,0.4,4.2,1.7,5.4,3.9
						c0.1,0.1,0.2,0.2,0.3,0.2c0.8,0,1.7,0,2.5,0c0.2,0,0.3-0.1,0.3-0.3c0-0.4,0-0.8,0-1.2c0-1.2-0.6-2.1-1.6-2.7
						c-0.8-0.5-1.6-0.9-2.4-1.4c-0.2-0.1-0.3-0.2-0.3-0.4c0-0.9,0-1.7,0-2.6c0-0.5,0-0.5-0.4-0.5C114.7,85.9,113.1,85.9,111.4,85.9z
						 M127,117.1c2.4,0,4.1-0.4,5.7-1.3c1.7-1,3-2.4,3.6-4.3c0.1-0.2,0-0.3-0.2-0.3c-5.6,0-11.3,0-16.9,0c-0.2,0-0.3,0.1-0.2,0.3
						c0.4,1.2,1.1,2.3,2,3.2C122.9,116.3,125.2,117.1,127,117.1z M127.7,107.5c2.8,0,5.6,0,8.4,0c0.2,0,0.3,0,0.2-0.3
						c-0.6-1.8-1.7-3.1-3.3-4.1c-1.9-1.3-4.1-1.7-6.4-1.5c-1.9,0.2-3.7,0.9-5.2,2.1c-1.1,0.9-1.9,2-2.4,3.4
						c-0.1,0.4-0.1,0.4,0.3,0.4C122.1,107.5,124.9,107.5,127.7,107.5z M109.7,110c-2.5,0-4.9,0-7.4,0c-0.1,0-0.2,0-0.3,0
						c-0.1,0-0.2,0.1-0.2,0.2c0,0.7,0,1.3,0.4,1.9c0.6,1,1.5,1.4,2.7,1.4c4.3,0,8.6,0,13,0c0.1,0,0.2,0,0.4,0c0.2,0,0.2-0.1,0.1-0.3
						c-0.5-0.9-0.8-1.9-0.9-2.9c0-0.3-0.1-0.4-0.4-0.4C114.6,110,112.1,110,109.7,110z M111.4,84.7c1.1,0,2.1,0,3.2,0
						c1.3,0,2.5,0,3.8,0c0.3,0,0.5-0.1,0.7-0.3c0.1-0.2,0.1-1.6,0-1.8c-0.2-0.3-0.5-0.2-0.7-0.2c-0.2,0-0.3,0.1-0.3,0.2
						c0,0.2,0,0.5,0,0.7c0,0.2-0.1,0.3-0.3,0.3c-0.3,0-0.5,0-0.8,0c-0.2,0-0.2-0.1-0.2-0.2c0-0.2,0-0.5,0-0.7c0-0.2-0.1-0.3-0.3-0.3
						c-0.1,0-0.2,0-0.2,0c-0.7,0-0.6-0.1-0.6,0.6c0,0.7,0,0.6-0.6,0.6c-0.8,0-0.7,0.1-0.7-0.7c0-0.6,0.1-0.5-0.5-0.5
						c-0.7,0-0.6-0.1-0.6,0.6c0,0.7,0.1,0.6-0.6,0.6c-0.8,0-0.7,0.1-0.7-0.7c0-0.5,0-0.5-0.5-0.5c-0.7,0-0.6-0.1-0.6,0.6
						c0,0.7,0,0.6-0.6,0.6c-0.8,0-0.7,0.1-0.7-0.7c0-0.6,0.1-0.5-0.5-0.5c-0.7,0-0.6-0.1-0.6,0.6c0,0.7,0.1,0.6-0.6,0.6
						c-0.8,0-0.7,0.1-0.7-0.7c0-0.6,0.1-0.5-0.5-0.5c-0.7,0-0.6-0.1-0.6,0.6c0,0.7,0.1,0.6-0.6,0.6c-0.8,0-0.7,0.1-0.7-0.7
						c0-0.6,0-0.6-0.6-0.5c-0.3,0-0.5,0.2-0.5,0.6c0,0.4,0,0.8,0,1.2c0,0.3,0.2,0.4,0.4,0.5c0.1,0.1,0.3,0,0.4,0
						C106.8,84.7,109.1,84.7,111.4,84.7z M127.7,109.9c2.8,0,5.5,0,8.3,0c0.7,0,0.7,0.1,0.7-0.7c0-0.4,0-0.4-0.4-0.4
						c-5.6,0-11.2,0-16.9,0c-0.7,0-0.7,0-0.7,0.7c0,0.4,0,0.4,0.5,0.4C122,109.9,124.8,109.9,127.7,109.9z"/>
				</g>
			</g>
			<g id="zNp4rP.tif">
				<g>
					<path fill="#E05A5A" d="M67.8,96.7c-3.9-0.9-4.8-4.1-4.2-7.2c1.3-6.6,2.6-13.2,4-19.9c0.8-4,3.1-6.6,7-7.7
						c3.5-1.1,7.1-2.1,10.6-3.1c1.5-0.5,2.7-1.5,4-2.5c0.7-0.5,0.4-2.4-0.4-2.9c-5.3-3.2-8.4-7.9-9-14c-0.2-1.6-0.5-2.5-2.1-3.1
						c-3.1-1.2-4.5-5.2-2.7-8c0.3-0.5,0.2-1,0.2-1.5c0-2.8-0.1-5.5,0.5-8.3c0.3-1.5,0.7-2.9,1.3-4.3c0.5-1,1.2-1.5,2.1-1.1
						c0.8,0.3,1.2,1.2,0.7,2.2c-1.3,3-1.6,6.1-1.6,9.2c0,0.8,0.2,0.9,1,0.7c2.9-0.7,3.9-1.7,4.3-4.7c0.4-3,2.1-4.5,4.8-4.2
						c0.6,0.1,1.2,0.2,1.8,0.3c5.5,0.6,11.1,0.8,16.6,0c0.9-0.1,1.7-0.2,2.6-0.3c2,0,3.5,1.3,3.9,3.3c0.2,1,0.2,2.1,0.6,3.1
						c0.8,1.9,2.4,2.6,4.3,2.7c0.5,0,0.4-0.3,0.4-0.5c0.3-7.9-2.5-14.4-9.4-18.6c-7.4-4.5-14.9-4.3-22.2,0.4c-1.1,0.7-2,1.6-2.9,2.5
						c-0.2,0.2-0.4,0.5-0.7,0.7c-0.7,0.6-1.6,0.7-2.2,0.1c-0.6-0.6-0.6-1.4,0-2.1c2-2.3,4.3-4.2,7.1-5.5c10.6-5,23.2-1.6,29.7,8.2
						c2.2,3.3,3.3,7,3.6,11c0.1,1.9,0.1,3.8,0.1,5.7c0,0.4,0,0.7,0.2,1c1.9,3.1,0.3,7-3.4,8.3c-0.8,0.3-1.2,0.6-1.2,1.5
						c-0.2,3.6-1.3,6.9-3.4,9.9c-1.5,2.2-3.4,3.9-5.7,5.3c-1.1,0.7-1.1,2.4-0.1,3.2c2.7,2.4,6.2,2.9,9.4,3.9c2,0.6,4,1.1,5.9,1.9
						c2.9,1.2,4.8,3.3,5.6,6.3c0.4,1.4,0.6,2.8,0.9,4.2c0.2,1-0.3,1.8-1.2,2c-0.8,0.2-1.5-0.4-1.8-1.4c-0.3-1.2-0.5-2.4-0.8-3.6
						c-0.5-2.4-2-4.1-4.4-4.9c-3.2-1-6.5-1.9-9.7-2.9c-0.7-0.2-0.9,0.1-1.1,0.6c-0.7,1.9-1.4,3.9-2,5.8c-0.8,2.3-2.4,3-4.7,2.1
						c-1.2-0.5-2.5-0.9-3.7-1.4c-0.7-0.3-0.9-0.1-0.9,0.6c0,3.3,0,6.6,0,9.9c0,0.3,0,0.7,0,1c-0.1,0.8-0.6,1.3-1.4,1.4
						c-0.8,0.1-1.4-0.6-1.5-1.4c0-0.3,0-0.6,0-0.9c0-3.3,0-6.5,0-9.8c0-1,0-1-1-0.6c-1.1,0.4-2.2,0.9-3.3,1.3
						c-1.8,0.7-3.4,0.1-4.1-1.7c-0.8-2-1.5-4.1-2.2-6.1c-0.2-0.7-0.5-0.9-1.3-0.7c-3,0.9-6.1,1.8-9.1,2.7c-2.6,0.8-4.3,2.4-4.8,5.1
						c-0.9,4.6-1.9,9.3-2.8,13.9c-0.4,2-0.8,4.1-1.2,6.1c-0.1,0.6-0.1,1.1-0.1,1.7c0,1.2,0.7,1.9,1.8,2c2.5,0.3,5,0.1,7.4,0.2
						c0.7,0,0.6-0.5,0.6-0.9c0-3.6,0-7.2,0-10.8c0-0.4,0-0.9,0-1.3c0-1,0.5-1.7,1.4-1.7c0.9-0.1,1.5,0.5,1.6,1.5
						c0.1,0.9,0.1,1.8,0.1,2.7c0,3.1,0,6.2,0,9.3c0,0.9,0.2,1.2,1.1,1.1c1.1-0.1,2.2,0,3.3,0c0.8,0,1.5,0.1,1.9,0.9
						c0.4,0.9-0.1,1.4-0.7,2C79.4,96.7,73.6,96.7,67.8,96.7z M114.2,33.3c0-1.7,0-3.3,0-5c0-0.4,0-0.8-0.4-1.1
						c-2.3-1.6-3.2-3.9-3.6-6.6c-0.1-1.1-0.4-1.3-1.5-1.3c-0.3,0-0.7,0-1,0.1c-2.6,0.3-5.1,0.5-7.7,0.6c-3.8,0.1-7.6-0.1-11.4-0.7
						c-1.6-0.3-1.9,0-2.1,1.6c-0.3,2.5-1.3,4.6-3.4,6.1c-0.4,0.3-0.6,0.7-0.6,1.2c0,2.2,0,4.5,0,6.7c0,1.7,0,3.5,0.3,5.2
						c1.4,7.1,7.7,12.8,16,12.7c7-0.1,13.5-5.5,14.9-12.3C114.3,38.1,114.1,35.7,114.2,33.3z M92.6,55.8c-0.1,0.4,0.2,0.8,0.4,1.1
						c1.5,2.1,3.1,4.3,4.6,6.4c0.4,0.6,0.7,0.5,1.1,0c1.5-1.9,3-3.8,4.4-5.7c0.3-0.4,0.6-0.7,0.9-1.1c0.2-0.4,0.3-0.8,0.1-1.2
						c-0.2-0.3-0.6,0-0.9,0c-1.5,0.4-3,0.6-4.6,0.6c-1.8,0-3.5-0.2-5.2-0.7C93,55.2,92.5,55,92.6,55.8z M105.5,67.6
						c0.5,0,0.5-0.4,0.6-0.6c0.6-1.6,1.2-3.2,1.7-4.8c0.7-2.1,0.9-1.5-1-2.8c-0.6-0.4-0.9-0.4-1.3,0.2c-1.2,1.6-2.5,3.2-3.7,4.8
						c-1.2,1.5-1.2,1.5,0.6,2.2C103.4,66.9,104.5,67.3,105.5,67.6z M95.6,65.7c-0.1-0.2-0.2-0.4-0.4-0.6c-1.1-1.5-2.2-3.1-3.3-4.6
						c-1.3-1.8-1.3-1.8-3-0.4c-0.3,0.3-0.4,0.5-0.3,0.9c0.7,2,1.5,4.1,2.2,6.1c0.2,0.5,0.4,0.5,0.9,0.4c1.1-0.5,2.3-0.9,3.4-1.4
						C95.3,66.1,95.5,66.1,95.6,65.7z M117.3,31C117.3,31,117.3,31,117.3,31c0,0.7,0,1.4,0,2.1c0,0.4,0.1,0.6,0.6,0.4
						c0.9-0.4,1.8-1.5,1.7-2.5c-0.1-1.1-0.7-1.8-1.6-2.3c-0.4-0.2-0.7-0.1-0.6,0.4C117.3,29.7,117.3,30.4,117.3,31z M79.5,31.2
						C79.5,31.2,79.5,31.2,79.5,31.2c0-0.7,0-1.4,0-2.1c0-0.6-0.3-0.7-0.8-0.4c-0.9,0.6-1.5,1.3-1.5,2.4c0,1.1,0.7,1.8,1.6,2.3
						c0.5,0.3,0.6,0,0.6-0.4C79.5,32.4,79.5,31.8,79.5,31.2z"/>
					<path fill="#E05A5A" d="M133.2,90.5c-0.5-3.6-1.4-7.2-2.1-10.8c-0.2-1.1-0.9-1.5-1.8-1.4c-0.9,0.2-1.4,1-1.1,2
						c0.3,1.7,0.7,3.3,1,5c0.4,1.9,1,3.8,1,5.8c0.1,1.5-0.6,2.2-2,2.4c-0.3,0-0.5,0.1-0.8,0.1c-0.1,1-0.2,2-0.4,2.9h2
						C132.6,95.8,133.6,93.2,133.2,90.5z"/>
				</g>
			</g>
		</g>
		<g>
			<g id="JtFIyF.tif_2_">
				<g>
					<path fill="#B2B2B2" d="M184.6,115.7c-1-0.1-1.8-0.5-2.4-1.4c-0.7-1-0.9-2.1-0.3-3.3c0.6-1.2,1.5-1.8,2.8-1.9c1,0,2,0,3,0
						c0.4,0,0.6-0.1,0.7-0.5c0.5-1.6,1-3.2,1.5-4.8c0.2-0.6,0.2-0.6-0.5-0.6c-4.7,0-9.3,0-14,0c-1,0-1.9-0.1-2.8-0.6
						c-2.2-1.1-3.6-2.8-3.6-5.3c0-9.7,0-19.3,0-29c0-1.6,0-3.1,0-4.7c0-3.3,2.7-6,5.9-6c1.9,0,3.8,0,5.7,0c0.7,0,1.1,0.3,1.1,0.8
						c0.1,0.7-0.4,1.1-1.1,1.1c-1.9,0-3.8,0-5.6,0c-2,0-3.6,1.3-4,3.2c-0.1,0.3-0.1,0.6-0.1,1c0,11,0,22.1,0,33.1
						c0,2.1,1.5,4.2,4.2,4.3c0.1,0,0.2,0,0.3,0c16.8,0,33.5,0,50.3,0c1.3,0,2.5-0.3,3.4-1.3c0.7-0.7,1-1.6,1.1-2.5
						c0-0.2,0-0.4,0-0.6c0-10.9,0-21.7,0-32.6c0-0.7,0-1.4-0.3-2c-0.8-1.6-2-2.4-3.8-2.4c-6.1,0-12.3,0-18.4,0c-7.5,0-15,0-22.6,0
						c-0.2,0-0.4,0-0.6,0c-0.5-0.1-0.9-0.5-0.9-1c0-0.5,0.4-0.9,0.9-0.9c0.2,0,0.3,0,0.5,0c13.6,0,27.2,0,40.9,0
						c3.2,0,5.7,2.2,6.2,5c0,0.1,0,0.1,0.1,0.2c0,11.7,0,23.4,0,35.1c0,0.2-0.1,0.4-0.1,0.5c-0.5,2-1.8,3.4-3.7,4.2
						c-0.9,0.4-1.8,0.4-2.7,0.4c-4.6,0-9.2,0-13.9,0c-0.6,0-0.6,0-0.4,0.6c0.5,1.6,1,3.2,1.5,4.9c0.1,0.4,0.3,0.5,0.7,0.5
						c1,0,1.9,0,2.9,0c1.4,0,2.5,0.8,3,2.1c0.5,1.3,0.2,2.6-0.9,3.6c-0.6,0.5-1.2,0.7-2,0.9C205.9,115.7,195.2,115.7,184.6,115.7z
						 M200.5,109.2c3.3,0,6.5,0,9.8,0c0.4,0,0.5-0.1,0.4-0.5c-0.5-1.6-1-3.3-1.5-4.9c-0.1-0.4-0.3-0.5-0.6-0.5c-5.3,0-10.7,0-16,0
						c-0.4,0-0.6,0.2-0.7,0.5c-0.5,1.6-1,3.2-1.5,4.9c-0.2,0.5-0.2,0.5,0.4,0.5C194,109.2,197.3,109.2,200.5,109.2z M200.6,111.2
						c-5.1,0-10.2,0-15.3,0c-0.2,0-0.4,0-0.6,0c-0.8,0.1-1.4,0.9-1.1,1.7c0.2,0.6,0.7,0.9,1.5,0.9c10.3,0,20.6,0,30.8,0
						c0.3,0,0.5,0,0.8-0.1c0.5-0.2,0.8-0.5,0.8-1c0.1-0.5-0.1-0.8-0.5-1.1c-0.3-0.3-0.7-0.3-1-0.3
						C210.9,111.2,205.7,111.2,200.6,111.2z"/>
					<path fill="#B2B2B2" d="M200.6,95.4c-8.4,0-16.9,0-25.3,0c-1,0-1.3-0.3-1.3-1.3c0-10,0-20,0-30c0-1,0.4-1.3,1.3-1.3
						c16.9,0,33.7,0,50.6,0c0.9,0,1.3,0.4,1.3,1.3c0,7.7,0,15.4,0,23.1c0,0.9-0.6,1.4-1.4,1.1c-0.4-0.2-0.5-0.5-0.6-0.8
						c0-0.2,0-0.4,0-0.6c0-7.2,0-14.3,0-21.5c0-0.7,0-0.7-0.7-0.7c-16,0-31.9,0-47.9,0c-0.7,0-0.7,0-0.7,0.7c0,9.1,0,18.2,0,27.2
						c0,0.7,0,0.7,0.7,0.7c16,0,31.9,0,47.9,0c0.7,0,0.7,0,0.7-0.7c0-0.5,0-0.9,0-1.4c0-0.7,0.4-1.1,1-1.1c0.6,0,1,0.4,1,1.1
						c0,0.9,0,1.9,0,2.8c0,1-0.3,1.2-1.2,1.2C217.5,95.4,209,95.4,200.6,95.4z"/>
					<path fill="#B2B2B2" d="M200.6,97.2c0.5,0,1,0.5,1,1c0,0.5-0.4,1-1,1c-0.5,0-1-0.5-1-1C199.6,97.7,200.1,97.2,200.6,97.2z"/>
				</g>
			</g>
		</g>
		<rect x="0" y="0" fill="#E5E5E5" width="47.6" height="115"/>
		<g>
			<path fill="#808080" d="M15.7,93.6c3.2,0,5,2,5,4.4c0,2.5-1.9,4.2-4.8,4.2c-3,0-5-1.9-5-4.4C11,95.2,12.9,93.6,15.7,93.6z
				 M15.9,100.9c2,0,3.8-1.1,3.8-3c0-1.9-1.8-3-3.9-3c-1.9,0-3.8,1-3.8,3C12,99.9,13.8,100.9,15.9,100.9z"/>
			<path fill="#808080" d="M11.2,92c-0.1-0.6-0.2-1.4-0.2-2.3c0-1.2,0.3-2.1,0.8-2.6c0.4-0.5,1.1-0.8,2-0.8c0.9,0,1.5,0.3,2,0.7
				c0.7,0.6,1,1.7,1,2.9c0,0.4,0,0.7-0.1,1h3.8V92H11.2z M15.8,90.8c0.1-0.3,0.1-0.6,0.1-1c0-1.5-0.7-2.4-2-2.4
				c-1.2,0-1.8,0.9-1.8,2.2c0,0.5,0,0.9,0.1,1.1H15.8z"/>
			<path fill="#808080" d="M16.1,79.6v3.7h3.4v-4.1h1v5.3h-9.4v-5.1h1v3.9h3v-3.7H16.1z"/>
			<path fill="#808080" d="M11.2,77.6c-0.1-0.6-0.2-1.5-0.2-2.3c0-1.3,0.2-2.1,0.8-2.7c0.4-0.5,1.1-0.7,1.8-0.7
				c1.2,0,2.1,0.8,2.4,1.8h0c0.3-0.7,0.9-1.2,1.9-1.4c1.3-0.3,2.2-0.5,2.6-0.7v1.3c-0.3,0.2-1.1,0.4-2.3,0.6
				c-1.3,0.3-1.8,0.8-1.8,1.9v1.1h4.1v1.2H11.2z M15.6,76.4v-1.2c0-1.3-0.7-2.1-1.8-2.1c-1.2,0-1.8,0.9-1.8,2.2c0,0.6,0.1,1,0.1,1.2
				H15.6z"/>
			<path fill="#808080" d="M17.6,68.5l3,1v1.3l-9.4-3.2v-1.5l9.4-3.2v1.3l-3,1V68.5z M16.6,65.4l-2.7,0.9c-0.6,0.2-1.2,0.4-1.7,0.5
				v0c0.6,0.1,1.1,0.3,1.7,0.5l2.7,0.9V65.4z"/>
			<path fill="#808080" d="M11.2,61.5c-0.1-0.7-0.2-1.6-0.2-2.6c0-1.8,0.4-3,1.2-3.8c0.8-0.8,1.9-1.3,3.4-1.3c1.5,0,2.8,0.5,3.7,1.4
				c0.9,0.9,1.4,2.3,1.4,4.2c0,0.9,0,1.6-0.1,2.2H11.2z M19.6,60.3c0.1-0.3,0.1-0.8,0.1-1.2c0-2.6-1.5-4-4-4c-2.2,0-3.6,1.2-3.6,3.8
				c0,0.6,0.1,1.1,0.1,1.4H19.6z"/>
			<path fill="#808080" d="M15.7,44.1c3.2,0,5,2,5,4.4c0,2.5-1.9,4.2-4.8,4.2c-3,0-5-1.9-5-4.4C11,45.7,12.9,44.1,15.7,44.1z
				 M15.9,51.4c2,0,3.8-1.1,3.8-3c0-1.9-1.8-3-3.9-3c-1.9,0-3.8,1-3.8,3C12,50.4,13.8,51.4,15.9,51.4z"/>
			<path fill="#808080" d="M11.2,42.5c-0.1-0.6-0.2-1.5-0.2-2.3c0-1.3,0.2-2.1,0.8-2.7c0.4-0.5,1.1-0.7,1.8-0.7
				c1.2,0,2.1,0.8,2.4,1.8h0c0.3-0.7,0.9-1.2,1.9-1.4c1.3-0.3,2.2-0.5,2.6-0.7v1.3c-0.3,0.2-1.1,0.4-2.3,0.6
				c-1.3,0.3-1.8,0.8-1.8,1.9v1.1h4.1v1.2H11.2z M15.6,41.3V40c0-1.3-0.7-2.1-1.8-2.1c-1.2,0-1.8,0.9-1.8,2.2c0,0.6,0.1,1,0.1,1.2
				H15.6z"/>
			<path fill="#808080" d="M11.2,32c-0.1-0.7-0.2-1.6-0.2-2.6c0-1.8,0.4-3,1.2-3.8c0.8-0.8,1.9-1.3,3.4-1.3c1.5,0,2.8,0.5,3.7,1.4
				c0.9,0.9,1.4,2.3,1.4,4.2c0,0.9,0,1.6-0.1,2.2H11.2z M19.6,30.8c0.1-0.3,0.1-0.8,0.1-1.2c0-2.6-1.5-4-4-4c-2.2,0-3.6,1.2-3.6,3.8
				c0,0.6,0.1,1.1,0.1,1.4H19.6z"/>
			<path fill="#808080" d="M16.1,17.8v3.7h3.4v-4.1h1v5.3h-9.4v-5.1h1v3.9h3v-3.7H16.1z"/>
			<path fill="#808080" d="M33.2,99.7c-1.3,0.1-2.9,0.2-4.1,0.1v0c1.1,0.3,2.3,0.7,3.6,1.2l4.6,1.7v0.9l-4.5,1.5
				c-1.3,0.4-2.5,0.8-3.7,1.1v0c1.2,0,2.8,0.1,4.2,0.2l4,0.3v1.2l-9.4-0.7v-1.6l4.6-1.6c1.2-0.4,2.2-0.7,3.2-1v0c-1-0.2-2-0.6-3.2-1
				l-4.6-1.7v-1.6l9.4-0.6v1.2L33.2,99.7z"/>
			<path fill="#808080" d="M32.9,91.6v3.7h3.4v-4.1h1v5.3h-9.4v-5.1h1v3.9h3v-3.7H32.9z"/>
			<path fill="#808080" d="M28.1,89.6c-0.1-0.7-0.2-1.6-0.2-2.6c0-1.8,0.4-3,1.2-3.8c0.8-0.8,1.9-1.3,3.4-1.3c1.5,0,2.8,0.5,3.7,1.4
				c0.9,0.9,1.4,2.3,1.4,4.2c0,0.9,0,1.6-0.1,2.2H28.1z M36.4,88.3c0.1-0.3,0.1-0.8,0.1-1.2c0-2.6-1.5-4-4-4c-2.2,0-3.6,1.2-3.6,3.8
				c0,0.6,0.1,1.1,0.1,1.4H36.4z"/>
			<path fill="#808080" d="M27.9,79h9.4v1.2h-9.4V79z"/>
			<path fill="#808080" d="M37.1,70.3c0.2,0.4,0.4,1.3,0.4,2.5c0,2.7-1.7,4.7-4.8,4.7c-3,0-5-2-5-4.9c0-1.2,0.3-1.9,0.4-2.2l1,0.3
				c-0.2,0.5-0.4,1.1-0.4,1.9c0,2.2,1.4,3.7,3.9,3.7c2.3,0,3.8-1.3,3.8-3.6c0-0.7-0.2-1.5-0.4-2L37.1,70.3z"/>
			<path fill="#808080" d="M34.4,67.2l3,1v1.3l-9.4-3.2v-1.5l9.4-3.2v1.3l-3,1V67.2z M33.4,64.1L30.7,65c-0.6,0.2-1.2,0.4-1.7,0.5v0
				c0.6,0.1,1.1,0.3,1.7,0.5l2.7,0.9V64.1z"/>
			<path fill="#808080" d="M33.2,52.2c-1.3,0.1-2.9,0.2-4.1,0.1v0c1.1,0.3,2.3,0.7,3.6,1.2l4.6,1.7v0.9l-4.5,1.5
				c-1.3,0.4-2.5,0.8-3.7,1.1v0c1.2,0,2.8,0.1,4.2,0.2l4,0.3v1.2l-9.4-0.7v-1.6l4.6-1.6c1.2-0.4,2.2-0.7,3.2-1v0c-1-0.2-2-0.6-3.2-1
				L27.9,53v-1.6l9.4-0.6V52L33.2,52.2z"/>
			<path fill="#808080" d="M32.9,44.1v3.7h3.4v-4.1h1v5.3h-9.4v-5.1h1v3.9h3v-3.7H32.9z"/>
			<path fill="#808080" d="M37.4,42.1h-9.4v-1.3l4.8-3c1.1-0.7,2.1-1.2,3.1-1.7l0,0c-1.3,0.1-2.4,0.1-3.9,0.1h-4V35h9.4v1.2l-4.8,3
				c-1,0.7-2.1,1.3-3.2,1.8l0,0c1.2-0.1,2.3-0.1,3.9-0.1h4V42.1z"/>
			<path fill="#808080" d="M29,31.1v2.9h-1v-7h1v2.9h8.4v1.2H29z"/>
			<path fill="#808080" d="M32.5,18.2c3.2,0,5,2,5,4.4c0,2.5-1.9,4.2-4.8,4.2c-3,0-5-1.9-5-4.4C27.8,19.9,29.7,18.2,32.5,18.2z
				 M32.7,25.5c2,0,3.8-1.1,3.8-3c0-1.9-1.8-3-3.9-3c-1.9,0-3.8,1-3.8,3C28.8,24.5,30.6,25.5,32.7,25.5z"/>
			<path fill="#808080" d="M35.9,16.8c0.3-0.5,0.6-1.3,0.6-2.2c0-1.2-0.7-2-1.6-2c-0.9,0-1.4,0.5-1.9,1.8c-0.5,1.5-1.3,2.5-2.7,2.5
				c-1.5,0-2.6-1.2-2.6-3.1c0-1,0.2-1.7,0.5-2.1l1,0.3c-0.2,0.3-0.4,0.9-0.4,1.8c0,1.3,0.8,1.8,1.4,1.8c0.9,0,1.3-0.6,1.8-1.9
				c0.6-1.6,1.4-2.4,2.8-2.4c1.5,0,2.7,1.1,2.7,3.3c0,0.9-0.3,1.9-0.6,2.4L35.9,16.8z"/>
		</g>
	</g>
</g>
</svg>
