<?xml version="1.0" encoding="utf-8"?>
<!-- Generator: Adobe Illustrator 18.0.0, SVG Export Plug-In . SVG Version: 6.00 Build 0)  -->
<!DOCTYPE svg PUBLIC "-//W3C//DTD SVG 1.1//EN" "http://www.w3.org/Graphics/SVG/1.1/DTD/svg11.dtd">
<svg version="1.1" xmlns="http://www.w3.org/2000/svg" xmlns:xlink="http://www.w3.org/1999/xlink" x="0px" y="0px"
	 viewBox="0 0 271.8 116.7" enable-background="new 0 0 271.8 116.7" xml:space="preserve">
<g id="capa1">
</g>
<g id="Capa_6">
</g>
<g id="Capa_5">
</g>
<g id="Capa_7">
</g>
<g id="Capa_8">
	<g id="Capa_10">
	</g>
</g>
<g id="Capa_11">
</g>
<g id="Capa_9">
</g>
<g id="BKG">
</g>
<g id="OBJ">
</g>
<g id="TXT">
	<g>
		<g>
			<g id="ein1hM.tif">
				<g>
					<path fill="#B2B2B2" d="M171.9,58.4c7.1,0,13.7,1.9,19.6,5.8c4.4,2.9,7.9,6.7,10.3,11.5c1.5,3,2.4,6.2,2.6,9.6
						c0.4,7-1.9,13.2-6.3,18.5c-3.3,4-7.5,6.8-12.3,8.8c-2.6,1.1-5.3,1.9-8.1,2.3c-5.6,0.9-11.2,0.5-16.7-1.2
						c-1.3-0.4-2.6-0.9-3.8-1.5c-0.4-0.2-0.7-0.2-1.1,0.1c-1.8,1.2-3.8,2.1-6,2.7c-2.7,0.6-5.2,0.3-7.8-0.7
						c-0.3-0.1-0.6-0.2-0.9-0.3c-0.3-0.1-0.4-0.2-0.1-0.5c0.4-0.4,0.8-0.7,1.2-1.1c1.9-1.7,3.2-3.7,3.7-6.3c0.1-0.3,0.1-0.7,0.1-1
						c0.1-0.4-0.1-0.7-0.3-1.1c-3.2-3.7-5.3-7.9-6.2-12.7c-0.8-4-0.5-8,0.7-11.9c2-6.6,6.1-11.6,11.8-15.4c4.3-2.9,9.1-4.6,14.3-5.4
						C168.3,58.5,170.1,58.3,171.9,58.4z M201,86.9c0-1.7-0.2-3.4-0.6-5c-1.3-5.4-4.3-9.8-8.6-13.3c-5.8-4.7-12.6-6.8-20-6.9
						c-2,0-3.9,0.2-5.8,0.5c-6.8,1.3-12.6,4.2-17.2,9.4c-3.5,3.9-5.5,8.5-5.9,13.7c-0.3,3.9,0.5,7.6,2.2,11.1c1.1,2.2,2.4,4.2,4.1,6
						c0.5,0.5,0.7,1,0.7,1.6c0,1.1-0.1,2.1-0.3,3.2c-0.3,1.5-0.9,2.8-1.6,4.1c-0.1,0.1-0.2,0.2-0.2,0.4c0.1,0.2,0.3,0.1,0.4,0.1
						c0.4,0,0.8-0.1,1.2-0.2c2.4-0.6,4.6-1.8,6.5-3.3c0.3-0.3,0.6-0.3,1-0.1c1.2,0.7,2.5,1.2,3.8,1.7c3.7,1.4,7.4,2,11.3,2
						c1.8,0,3.6-0.1,5.4-0.4c7.3-1.2,13.6-4.4,18.4-10.1C199,97.2,200.9,92.4,201,86.9z"/>
					<path fill="#B2B2B2" d="M174.6,84.4c-0.9,1.5-1.9,3.1-2.8,4.6c-0.2,0.4-0.5,0.6-1,0.6c-0.4,0-0.7-0.2-0.9-0.5
						c-0.8-1.4-1.6-2.7-2.4-4.1c-0.1-0.1-0.2-0.3-0.3-0.4c-0.1,0.2-0.1,0.4-0.1,0.5c0,2.8,0,5.6,0,8.4c0,0.9-0.1,1.1-1.1,1.1
						c-0.4,0-0.7,0-1.1,0c-0.5,0-0.8-0.3-0.8-0.8c0-0.1,0-0.3,0-0.4c0-4.2,0-8.3,0-12.5c0-1,0.2-1.1,1.2-1.2
						c1.2-0.1,1.9,0.3,2.5,1.4c0.8,1.5,1.8,2.9,2.7,4.4c0.2,0.4,0.4,0.4,0.6,0c1-1.6,2.1-3.2,3-4.9c0.4-0.7,0.9-1,1.7-0.9
						c0.3,0,0.5,0,0.8,0c0.7,0,0.8,0.1,0.8,0.8c0,0.5,0,0.9,0,1.4c0,3.9,0,7.8,0,11.7c0,0.9-0.1,1-1,1c-0.3,0-0.6,0-1,0
						c-0.7,0-0.9-0.2-0.9-0.9c0-2.9,0-5.8,0-8.6C174.7,84.8,174.7,84.6,174.6,84.4C174.7,84.5,174.6,84.4,174.6,84.4z"/>
					<path fill="#B2B2B2" d="M186.1,79.3c1.2,0,2.2,0.1,3.2,0.4c0.4,0.1,0.5,0.3,0.5,0.7c0,0.5-0.1,1-0.3,1.4
						c-0.2,0.4-0.4,0.6-0.9,0.4c-1.2-0.4-2.4-0.5-3.6-0.3c-0.8,0.1-1.3,0.5-1.4,1.1c-0.2,0.7,0.1,1.2,0.7,1.7
						c0.5,0.4,1.1,0.6,1.7,0.8c1.1,0.4,2.2,0.9,3.1,1.8c1.3,1.2,1.6,2.7,1.2,4.4c-0.4,1.6-1.6,2.5-3.1,2.8c-2.1,0.5-4.2,0.5-6.3-0.2
						c-1-0.3-1.1-0.5-0.9-1.5c0.3-1.4,0.3-1.4,1.6-1c1.4,0.4,2.8,0.6,4.3,0.2c0.6-0.2,1.3-0.4,1.4-1.2c0.1-0.8-0.2-1.4-0.8-1.9
						c-0.6-0.4-1.2-0.6-1.8-0.9c-0.9-0.3-1.7-0.7-2.5-1.3c-1.3-0.9-1.8-2.2-1.7-3.8c0.1-1.6,1.1-2.6,2.5-3.2
						C184.1,79.3,185.2,79.2,186.1,79.3z"/>
					<path fill="#B2B2B2" d="M157.5,79.3c1.2,0,2.2,0.1,3.3,0.4c0.3,0.1,0.5,0.3,0.5,0.6c0,0.5-0.1,1-0.3,1.5
						c-0.2,0.4-0.4,0.5-0.8,0.4c-0.9-0.3-1.9-0.4-2.8-0.4c-0.5,0-0.9,0.1-1.3,0.2c-1,0.4-1.3,1.6-0.5,2.4c0.5,0.5,1.2,0.8,1.9,1
						c1.1,0.4,2.2,0.9,3.1,1.7c1.5,1.2,1.8,2.8,1.4,4.6c-0.4,1.6-1.6,2.5-3.1,2.9c-2.1,0.5-4.3,0.5-6.4-0.2
						c-0.8-0.3-0.9-0.4-0.8-1.3c0.2-1.5,0.3-1.6,1.8-1.2c1.4,0.4,2.8,0.5,4.2,0.1c0.7-0.2,1.3-0.4,1.4-1.2c0.1-0.8-0.2-1.4-0.8-1.8
						c-0.6-0.4-1.2-0.6-1.8-0.9c-0.8-0.3-1.7-0.7-2.4-1.2c-1.3-0.9-1.9-2.2-1.8-3.8c0.1-1.7,1.2-2.7,2.7-3.3
						C155.7,79.3,156.7,79.2,157.5,79.3z"/>
				</g>
			</g>
			<g id="w8xx1j.tif">
				<g>
					<path fill="#B2B2B2" d="M244.7,112.7c-8.2,0-16.3,0-24.5,0c-1.5,0-2.5-0.9-2.5-2.5c0-9.9,0-19.9,0-29.8c0-1.4,1-2.4,2.4-2.4
						c16.4,0,32.8,0,49.2,0c1.4,0,2.4,0.9,2.4,2.3c0,0.1,0,0.2,0,0.2c0,9.9,0,19.8,0,29.6c0,1.3-0.6,2.2-1.8,2.5
						c-0.2,0.1-0.5,0.1-0.7,0.1C261.1,112.7,252.9,112.7,244.7,112.7z M244.7,110.9c8.1,0,16.2,0,24.2,0c0.1,0,0.3,0,0.4,0
						c0.3,0,0.5-0.2,0.5-0.5c0-0.3-0.1-0.5-0.3-0.7c-6.3-5-12.6-10-18.9-15c-0.3-0.2-0.4-0.2-0.7,0c-1.4,0.9-2.9,1.8-4.4,2.8
						c-0.5,0.4-1,0.4-1.6,0c-1.4-0.9-2.9-1.8-4.4-2.8c-0.3-0.2-0.5-0.2-0.7,0c-3.2,2.6-6.5,5.1-9.7,7.7c-3.1,2.4-6.2,4.9-9.3,7.3
						c-0.1,0.1-0.3,0.2-0.3,0.4c-0.1,0.5,0.1,0.8,0.7,0.8C228.4,110.9,236.6,110.9,244.7,110.9z M244.8,79.8c-8.1,0-16.3,0-24.4,0
						c-0.2,0-0.5-0.1-0.6,0.2c-0.1,0.2,0.2,0.3,0.4,0.4c8.1,5,16.1,10.1,24.2,15.1c0.3,0.2,0.5,0.2,0.8,0
						c8.1-5.1,16.1-10.1,24.2-15.1c0.2-0.1,0.5-0.2,0.4-0.4c-0.1-0.3-0.4-0.2-0.6-0.2C261,79.8,252.9,79.8,244.8,79.8z M219.6,94.9
						c0,4,0,8,0,11.9c0,0.2-0.1,0.6,0.1,0.6c0.2,0.1,0.4-0.2,0.6-0.3c5.6-4.5,11.3-8.9,16.9-13.4c0.4-0.3,0.4-0.3,0-0.6
						c-4.5-2.8-8.9-5.6-13.4-8.4c-1.3-0.8-2.5-1.6-3.8-2.3c-0.3-0.2-0.4-0.2-0.4,0.2c0,0.1,0,0.2,0,0.3
						C219.6,86.9,219.6,90.9,219.6,94.9z M269.9,95c0-4,0-8.1,0-12.1c0-0.1,0.1-0.3-0.1-0.4c-0.1-0.1-0.3,0.1-0.4,0.2
						c-5.7,3.5-11.5,7.1-17.2,10.6c-0.3,0.2-0.3,0.3,0,0.5c5.7,4.5,11.5,9,17.2,13.6c0.1,0.1,0.2,0.3,0.4,0.2
						c0.2-0.1,0.1-0.3,0.1-0.5C269.9,103,269.9,99,269.9,95z"/>
				</g>
			</g>
		</g>
		<g id="WKp8d3.tif_1_">
			<g>
				<path fill="#E05A5A" d="M44.8,116.7c-2-0.5-3.7-1.4-4.6-3.4c-0.7-1.6-0.8-3.3-0.5-5c1.7-8.3,3.3-16.6,5-24.9
					c0.9-4.4,3.7-7.4,8-8.6c5.7-1.6,11.6-2.9,17.3-4.4c0.2,0,0.4-0.1,0.6-0.2c0.1,0,0.3-0.1,0.3-0.3c0-0.2-0.2-0.2-0.3-0.2
					c-0.3,0-0.5,0-0.8,0c-3.9,0-7.7,0-11.6,0c-3.5,0-5.6-2.2-5.6-5.6c0-13-0.1-25.9,0-38.9c0.1-6,2.3-11.4,6.2-16
					c4.3-5.2,9.9-8.2,16.6-9.2c0.1,0,0.2-0.1,0.3-0.1c1.9,0,3.7,0,5.6,0c2.8,0.3,5.6,0.9,8.3,1.9c1.1,0.4,2.2,0.8,3.2,1.4
					c0.6,0.4,1.3,0.4,1.9,0.3c5-1,8.9,0.8,12.2,4.5c2.6,2.9,4,6.3,4,10.3c0,1.3-0.7,2.1-1.8,2.1c-1,0-1.7-0.9-1.8-2.1
					c-0.1-4-1.9-7.2-5-9.6c-1.9-1.5-4.1-2-6.4-1.6c-1.8,0.3-3.4,0-5.1-0.8c-6.3-2.9-12.8-3.9-19.5-1.5c-8.2,3-13,9-14.7,17.5
					c-0.3,1.5-0.2,2.9-0.2,4.4c0,12.2,0,24.3,0,36.5c0,0.4,0,0.8,0,1.1c0.1,1.1,0.5,1.5,1.6,1.6c1.6,0,3.3,0,4.9,0
					c2.4,0,4.9,0,7.3,0c0.3,0,0.8,0.2,0.9-0.4c0.1-0.5-0.1-0.9-0.6-1.2c-6.7-4-10.5-9.9-11.4-17.7c-0.3-2.3-0.2-4.7,0-7
					c0.1-2.1,2.2-3.8,4.4-3.8c2.4,0,4.9,0.1,7.3-0.3c6-1,11.2-3.5,15.7-7.6c1.6-1.4,3-3.1,4.4-4.7c1.7-2.1,4.1-2,5.4,0.4
					c1,1.8,2.5,2.9,4.5,3.2c1.5,0.3,2.7,1.2,3.3,2.6c0.2,0.6,0.6,0.9,1.2,1c0.7,0.1,1.4,0.9,1.8,0.5c0.5-0.4,0.2-1.4,0.2-2.1
					c0-0.8,0-1.5,0-2.3c0-1.1,0.8-1.9,1.8-1.9c1,0,1.8,0.8,1.8,1.9c0,2.3,0,4.5,0,6.8c0,10.2,0,20.4,0,30.5c0,3.5-2.1,5.7-5.7,5.7
					c-3.8,0-7.6,0-11.4,0c-0.2,0-0.5,0-0.7,0c-0.2,0-0.5-0.1-0.6,0.2c0,0.3,0.3,0.3,0.5,0.4c1,0.3,2,0.5,3,0.7
					c4.7,1.2,9.5,2.3,14.2,3.6c4.8,1.3,7.7,4.5,8.7,9.4c1.6,8.1,3.3,16.3,4.8,24.4c0.5,2.5,0.2,4.9-1.9,6.8c-0.9,0.8-2,1.2-3.1,1.5
					c-15.4,0-30.9,0-46.3,0c-0.8-0.6-1.3-1.3-0.9-2.3c0.4-1,1.3-1.2,2.2-1.2c0.3,0,0.6,0,1,0c9.6,0,19.3,0,28.9,0
					c0.8,0,1.1-0.2,1.1-1.1c0-3.5,0-7,0-10.5c0-1.5,0-2.9,0-4.4c0-1.2,0.8-1.9,1.8-1.9c1,0,1.7,0.8,1.7,1.9c0,0.3,0,0.6,0,0.9
					c0,4.7,0,9.4,0,14.1c0,0.5-0.1,1,0.7,1c2.8,0,5.6,0,8.4,0c2.1-0.1,2.9-1.1,2.9-3.1c0-0.4-0.1-0.8-0.1-1.2c-1.6-8-3.2-16-4.8-24
					c-0.7-3.6-2.8-5.8-6.3-6.7c-3.1-0.8-6.2-1.5-9.3-2.3c-0.6-0.2-1,0-1.3,0.5c-1.2,1.4-2.3,2.8-3.5,4.1c-2.3,2.7-4.6,5.5-7,8.1
					c-2.7,2.9-6.3,3.5-9.6,2c-1.8-0.8-3-2.2-4.3-3.7c-3-3.6-6-7.1-9-10.6c-0.3-0.3-0.5-0.6-1-0.5c-3.4,0.9-6.9,1.6-10.2,2.6
					c-3.1,0.9-5,3.1-5.6,6.3c-1.1,5.7-2.3,11.5-3.4,17.2c-0.5,2.6-1.1,5.1-1.5,7.7c-0.4,2.4,0.6,3.6,2.7,3.8c0.4,0,0.8,0,1.2,0
					c2.1,0,4.3,0,6.4,0c1.8,0,1.6,0.2,1.6-1.6c0-4.6,0-9.3,0-13.9c0-0.7,0.1-1.3,0.6-1.8c0.6-0.5,1.2-0.7,1.9-0.4
					c0.8,0.3,1.1,1,1.1,1.8c0,4.9,0,9.8,0,14.8c0,0.9,0.3,1.1,1.1,1.1c1.6-0.1,3.1,0,4.7,0c1.2,0,1.9,0.4,2.2,1.3
					c0.3,1-0.2,1.7-1,2.2C58.9,116.7,51.8,116.7,44.8,116.7z M100.8,39.2C100.8,39.2,100.8,39.2,100.8,39.2c0-2.4,0-4.9,0-7.3
					c0-0.9-0.3-1.4-1.2-1.5c-2.5-0.4-4.5-1.8-5.9-3.9c-0.3-0.5-0.5-0.5-0.8,0c-0.9,1.3-2.1,2.4-3.2,3.5c-5.6,5.4-12.4,8.6-20.1,9.5
					c-1.9,0.2-3.8,0.1-5.8,0.1c-0.7,0-1.3,0.3-1.3,1.1c0.1,2.1-0.1,4.2,0.1,6.3C63.9,57,73.5,65.5,84.9,63.6c9-1.5,15.8-9,16-18.2
					C100.9,43.4,100.8,41.3,100.8,39.2z M68.4,74.5c0.9,1.1,1.7,2,2.5,2.9c0.2,0.3,0.5,0.4,0.9,0.4c6.6,0,13.2,0,19.7,0
					c0.4,0,0.7-0.1,0.9-0.4c0.7-0.8,1.3-1.6,2-2.4c0.4-0.5,0.3-0.6-0.3-0.8c-1.3-0.3-2.7-0.6-4-1c-1.1-0.3-1.5-0.9-1.6-2
					c0-1.4,0-2.7,0-4.1c0-0.6-0.2-0.8-0.8-0.6c-4.2,1.2-8.4,1.2-12.6,0c-0.6-0.2-0.8,0.1-0.7,0.6c0,1.2,0,2.4,0,3.6
					c0,1.8-0.3,2.2-2.1,2.7C71.3,73.8,69.9,74.2,68.4,74.5z M107.3,54.4c0-3.3,0-6.7,0-10c0-0.6-0.1-0.9-0.8-0.5
					c-0.4,0.2-0.9,0.4-1.3,0.5c-0.5,0.1-0.6,0.4-0.7,0.9c0,0.9-0.1,1.8-0.2,2.7c-1.2,7.3-4.9,12.9-11.4,16.7c-0.4,0.3-0.7,0.5-0.5,1
					c0.1,0.5,0.6,0.4,0.9,0.4c4,0,8,0,12,0c1.5,0,2-0.5,2-2C107.3,60.8,107.3,57.6,107.3,54.4z M74.3,81.5c1.4,1.6,2.6,3.2,4,4.6
					c1.7,1.7,4,2,5.8,0.7c2-1.4,3.2-3.4,5-5.3C84.1,81.5,79.3,81.5,74.3,81.5z M104.5,37.3c0,0.9,0,1.8,0,2.7c0,0.5,0.2,0.7,0.7,0.4
					c1.1-0.7,2-1.3,2-2.8c0.1-1.6-0.8-2.5-2-3.3c-0.5-0.3-0.8-0.2-0.7,0.4C104.6,35.6,104.5,36.5,104.5,37.3z"/>
			</g>
		</g>
		<rect x="0" y="1.3" fill="#E5E5E5" width="29.2" height="115"/>
		<g>
			<path fill="#808080" d="M7.7,96.1h8c3,0,4.3-1.3,4.3-3.1c0-2-1.3-3.3-4.3-3.3h-8v-1.8h7.9c4.1,0,5.8,2.2,5.8,5.1
				c0,2.8-1.6,4.8-5.8,4.8H7.7V96.1z"/>
			<path fill="#808080" d="M19.1,85.1c0.5-0.8,0.9-1.9,0.9-3.1c0-1.8-0.9-2.8-2.3-2.8c-1.3,0-2,0.7-2.7,2.5
				c-0.8,2.2-1.9,3.6-3.8,3.6c-2.1,0-3.7-1.7-3.7-4.4c0-1.4,0.3-2.4,0.7-3l1.4,0.5c-0.2,0.4-0.6,1.3-0.6,2.6c0,1.8,1.1,2.5,2,2.5
				c1.3,0,1.9-0.8,2.6-2.7c0.9-2.3,2-3.4,4-3.4c2.1,0,3.9,1.5,3.9,4.7c0,1.3-0.4,2.7-0.9,3.4L19.1,85.1z"/>
			<path fill="#808080" d="M7.7,73.3h8c3,0,4.3-1.3,4.3-3.1c0-2-1.3-3.3-4.3-3.3h-8v-1.8h7.9c4.1,0,5.8,2.2,5.8,5.1
				c0,2.8-1.6,4.8-5.8,4.8H7.7V73.3z"/>
			<path fill="#808080" d="M16.9,60.6l4.2,1.4v1.8L7.7,59.2v-2.1l13.5-4.6v1.9l-4.2,1.4V60.6z M15.6,56.2l-3.9,1.3
				c-0.9,0.3-1.7,0.5-2.5,0.7v0c0.8,0.2,1.6,0.4,2.4,0.7l3.9,1.3V56.2z"/>
			<path fill="#808080" d="M7.9,50.5c-0.2-0.9-0.3-2.1-0.3-3.3c0-1.9,0.3-3.1,1.1-3.9c0.6-0.7,1.5-1.1,2.6-1.1c1.8,0,3,1.1,3.4,2.5
				h0.1c0.4-1,1.3-1.7,2.7-2c1.9-0.4,3.2-0.8,3.7-1v1.8c-0.4,0.2-1.5,0.5-3.2,0.9c-1.9,0.4-2.6,1.1-2.6,2.7v1.6h5.8v1.7H7.9z
				 M14,48.8V47c0-1.9-1-3-2.6-3c-1.7,0-2.5,1.3-2.5,3.1c0,0.8,0.1,1.4,0.2,1.7H14z"/>
			<path fill="#808080" d="M7.7,38h13.5v1.7H7.7V38z"/>
			<path fill="#808080" d="M14.3,23.5c4.6,0,7.1,2.8,7.1,6.3c0,3.6-2.8,6.1-6.8,6.1c-4.3,0-7.1-2.7-7.1-6.3
				C7.5,25.8,10.3,23.5,14.3,23.5z M14.5,33.9c2.9,0,5.5-1.6,5.5-4.3c0-2.8-2.5-4.3-5.6-4.3c-2.7,0-5.5,1.4-5.5,4.3
				C8.9,32.5,11.6,33.9,14.5,33.9z"/>
		</g>
	</g>
</g>
</svg>
