<?xml version="1.0" encoding="utf-8"?>
<!-- Generator: Adobe Illustrator 18.0.0, SVG Export Plug-In . SVG Version: 6.00 Build 0)  -->
<!DOCTYPE svg PUBLIC "-//W3C//DTD SVG 1.1//EN" "http://www.w3.org/Graphics/SVG/1.1/DTD/svg11.dtd">
<svg version="1.1" id="Capa_1" xmlns="http://www.w3.org/2000/svg" xmlns:xlink="http://www.w3.org/1999/xlink" x="0px" y="0px"
	 viewBox="0 0 17.6 25" enable-background="new 0 0 17.6 25" xml:space="preserve">
<g>
	<path fill="#CBCBCB" d="M16.5,24c-0.7,0.7-1.5,1-2.5,1c-1,0-1.8-0.3-2.5-1L0,12.5L11.5,1c0.3-0.4,0.7-0.6,1.2-0.8
		C13.1,0.1,13.5,0,14,0c0.5,0,0.9,0.1,1.4,0.3c0.4,0.2,0.8,0.4,1.2,0.8c0.7,0.7,1,1.5,1,2.5s-0.3,1.8-1,2.5l-6.4,6.4l6.4,6.4
		c0.7,0.7,1,1.5,1,2.5C17.6,22.4,17.2,23.3,16.5,24z"/>
</g>
</svg>
