<?xml version="1.0" encoding="utf-8"?>
<!-- Generator: Adobe Illustrator 18.0.0, SVG Export Plug-In . SVG Version: 6.00 Build 0)  -->
<!DOCTYPE svg PUBLIC "-//W3C//DTD SVG 1.1//EN" "http://www.w3.org/Graphics/SVG/1.1/DTD/svg11.dtd">
<svg version="1.1" id="Capa_1" xmlns="http://www.w3.org/2000/svg" xmlns:xlink="http://www.w3.org/1999/xlink" x="0px" y="0px"
	 viewBox="0 0 53.4 53.2" enable-background="new 0 0 53.4 53.2" xml:space="preserve">
<g id="b5CSTY.tif_2_">
	<g>
		<path fill="#CBCBCB" d="M38,53.2c-0.7-0.3-1.4-0.6-2-1.2c-0.7-0.8-1.2-1.7-1.2-2.8c0-5.5,0-11,0-16.5c0-2.1,1.7-4,3.7-4.1
			c2.4-0.2,4.3,1.3,4.6,3.5c0.1,0.5,0.3,0.6,0.7,0.6c0.9,0,1.8,0,2.8,0c0.5,0,0.7,0.2,0.7,0.7c0,1.9,0,3.9,0,5.8c0,0.2,0,0.4,0,0.6
			c0.2,0,0.3-0.1,0.3-0.2c2.1-3,3.3-6.3,3.6-10c0.4-6.4-1.4-12.1-5.4-17.1c-0.6-0.7-0.6-0.7-1.2-0.1c-0.1,0.1-0.2,0.2-0.3,0.4
			c-0.3,0.4-0.5,0.2-0.8,0c-1.8-1.7-3.8-3.2-6-4.2c-4-2-8.2-2.6-12.6-2.3c-4.6,0.3-8.8,1.8-12.5,4.6c-0.8,0.6-1.6,1.3-2.3,2
			c-0.3,0.3-0.4,0.3-0.7,0c-1.1-1.1-1.1-1-2,0.2c-3.1,4-4.7,8.6-5,13.7C2,31.4,3.1,35.6,5.7,39.4c0.1,0.2,0.2,0.4,0.5,0.5
			c0-0.8,0-1.5,0-2.2c0-1.4,0-2.7,0-4.1c0-0.6,0.1-0.9,0.8-0.8c0.9,0.1,1.8,0,2.7,0c0.4,0,0.6-0.1,0.6-0.6c0.2-1.9,1.9-3.4,3.6-3.5
			c2.2-0.2,3.9,1,4.5,3c0.1,0.4,0.1,0.9,0.1,1.3c0,5.2-0.1,10.5,0,15.7c0,2.3-1.2,4-3.3,4.6c-0.6,0-1.3,0-1.9,0
			c-1.8-0.7-2.9-1.8-3.1-3.8c0-0.3-0.3-0.3-0.5-0.3c-0.9,0-1.9,0-2.8,0c-0.5,0-0.8-0.1-0.7-0.7c0-1.2,0-2.4,0-3.6
			c0-0.9-0.1-1.8-0.9-2.4c-0.3-0.2-0.5-0.5-0.7-0.8c-4.7-6.1-5.6-13-3.8-20.4c1-4,2.9-7.5,5.5-10.7c0.2-0.3,0.4-0.5,0.1-0.9
			c-0.4-0.4-1-0.7-0.9-1.1c0-0.5,0.7-0.7,1-1.1c3.4-3.1,7.3-5.3,11.7-6.6C20.1,0.6,22,0.3,23.9,0c1.9,0,3.8,0,5.6,0
			c0.1,0,0.2,0.1,0.2,0.1c6.7,0.7,12.5,3.3,17.4,7.8c0.9,0.8,1,0.9,0,1.8c-0.4,0.4-0.4,0.7,0,1.1c4.1,5,6.2,10.8,6.2,17.4
			c0,5.7-2,10.6-5.8,14.8c-0.3,0.3-0.4,0.6-0.4,1c0,1.5,0,3,0,4.5c0,0.5-0.2,0.7-0.7,0.7c-1,0-1.9,0-2.9,0c-0.3,0-0.5,0-0.6,0.4
			c-0.3,1.9-1.4,3.1-3.2,3.6C39.3,53.2,38.6,53.2,38,53.2z M16.4,41c0-1.9,0-3.9,0-5.8c0-0.8,0-1.5,0-2.3c0-0.8-0.4-1.5-1.2-1.9
			c-0.8-0.3-1.5-0.2-2.1,0.3c-0.6,0.5-0.7,1.1-0.7,1.8c0,5.2,0,10.4,0,15.6c0,0.3,0,0.6,0.1,0.9c0.4,1.3,1.8,1.8,2.9,1.1
			c0.7-0.5,1-1.2,1-2C16.4,46.2,16.4,43.6,16.4,41z M41,41c0-2.2,0-4.3,0-6.5c0-0.6,0-1.2,0-1.8c-0.1-0.9-0.5-1.5-1.3-1.8
			c-0.7-0.3-1.4-0.1-2,0.4c-0.6,0.5-0.7,1.1-0.7,1.9c0,5.2,0,10.4,0,15.6c0,0.3,0,0.6,0.1,0.9c0.4,1.3,1.8,1.8,2.9,1.1
			c0.7-0.5,0.9-1.2,0.9-2C41,46.2,41,43.6,41,41z M26.6,2.1c-0.5,0-1.1,0.1-1.8,0.1C19.1,2.5,14,4.4,9.5,8c-1.3,1-1.2,0.6-0.1,1.8
			c0.3,0.3,0.5,0.3,0.8,0c0.5-0.4,1.1-0.9,1.6-1.2C16.4,5.4,21.5,4,27,4c5.9,0.1,11.1,1.8,15.8,5.4c0.9,0.7,0.9,0.7,1.7-0.1
			c0.4-0.4,0.5-0.6,0-1C39.3,4.2,33.4,2.1,26.6,2.1z M10.3,41c0-1.6,0-3.3,0-4.9c0-1.3,0.2-1.1-1.2-1.2c-0.7,0-0.8,0.2-0.8,0.8
			c0,3.4,0,6.7,0,10.1c0,1.4-0.2,1.2,1.3,1.3c0.5,0,0.7-0.2,0.7-0.7C10.3,44.6,10.3,42.8,10.3,41z M43.1,40.9c0,1.7,0,3.3,0,5
			c0,1.3-0.2,1.1,1.2,1.2c0.7,0,0.8-0.2,0.8-0.8c0-3.4,0-6.7,0-10.1c0-1.4,0.2-1.2-1.3-1.3c-0.5,0-0.7,0.2-0.7,0.7
			C43.2,37.3,43.1,39.1,43.1,40.9z"/>
	</g>
</g>
</svg>
