<?xml version="1.0" encoding="utf-8"?>
<!-- Generator: Adobe Illustrator 18.0.0, SVG Export Plug-In . SVG Version: 6.00 Build 0)  -->
<!DOCTYPE svg PUBLIC "-//W3C//DTD SVG 1.1//EN" "http://www.w3.org/Graphics/SVG/1.1/DTD/svg11.dtd">
<svg version="1.1" id="Capa_1" xmlns="http://www.w3.org/2000/svg" xmlns:xlink="http://www.w3.org/1999/xlink" x="0px" y="0px"
	 viewBox="0 0 35 35" enable-background="new 0 0 35 35" xml:space="preserve">
<g id="UlOrM7.tif_1_">
	<g>
		<path fill="#B4E548" d="M22,17.5c0,1.3,0,2.7,0,4c0,0.3-0.1,0.4-0.4,0.4c-2.7,0-5.4,0-8.1,0c-0.3,0-0.5-0.1-0.5-0.4
			c0-2.7,0-5.4,0-8.1c0-0.3,0.1-0.4,0.5-0.4c2.7,0,5.4,0,8.1,0c0.5,0,0.5,0,0.5,0.5C22,14.8,22,16.2,22,17.5
			C22,17.5,22,17.5,22,17.5z"/>
		<path fill="#B4E548" d="M4.5,0c1.3,0,2.7,0,4,0C8.9,0,9,0.1,9,0.4c0,2.7,0,5.4,0,8.1C9,8.9,8.9,9,8.5,9C5.8,9,3.1,9,0.4,9
			C0.1,9,0,8.9,0,8.5c0-2.7,0-5.4,0-8.1C0,0.1,0.1,0,0.4,0C1.8,0,3.1,0,4.5,0C4.5,0,4.5,0,4.5,0z"/>
		<path fill="#B4E548" d="M35,4.5c0,1.3,0,2.7,0,4C35,8.9,34.9,9,34.6,9c-2.7,0-5.4,0-8.1,0c-0.4,0-0.5,0-0.5-0.5c0-2.7,0-5.3,0-8
			C26,0.1,26.1,0,26.5,0c2.7,0,5.3,0,8,0C35,0,35,0,35,0.5C35,1.8,35,3.2,35,4.5C35,4.5,35,4.5,35,4.5z"/>
		<path fill="#B4E548" d="M4.5,35c-1.3,0-2.6,0-4,0C0,35,0,35,0,34.5c0-2.7,0-5.4,0-8.1C0,26.1,0.1,26,0.4,26c2.7,0,5.4,0,8.1,0
			c0.4,0,0.5,0,0.5,0.5c0,2.7,0,5.3,0,8C9,34.9,8.9,35,8.5,35C7.2,35,5.8,35,4.5,35C4.5,35,4.5,35,4.5,35z"/>
		<path fill="#B4E548" d="M35,30.5c0,1.3,0,2.7,0,4c0,0.3-0.1,0.5-0.4,0.5c-2.7,0-5.4,0-8.1,0c-0.3,0-0.4-0.1-0.4-0.5
			c0-2.7,0-5.3,0-8c0-0.5,0-0.5,0.5-0.5c2.7,0,5.3,0,8,0c0.4,0,0.5,0.1,0.5,0.5C35,27.8,35,29.2,35,30.5C35,30.5,35,30.5,35,30.5z"
			/>
		<path fill="#B4E548" d="M17.5,9c-1.3,0-2.7,0-4,0C13,9,13,8.9,13,8.5c0-2.7,0-5.4,0-8.1C13,0.1,13.1,0,13.4,0c2.7,0,5.4,0,8.1,0
			C21.9,0,22,0.1,22,0.4c0,2.7,0,5.4,0,8.1C22,8.9,21.8,9,21.5,9C20.2,9,18.8,9,17.5,9z"/>
		<path fill="#B4E548" d="M0,17.5c0-1.3,0-2.7,0-4C0,13.1,0.1,13,0.4,13c2.7,0,5.4,0,8.1,0C8.9,13,9,13,9,13.5c0,2.7,0,5.3,0,8
			C9,21.9,8.9,22,8.5,22c-2.7,0-5.3,0-8,0C0,22,0,22,0,21.5C0,20.2,0,18.8,0,17.5C0,17.5,0,17.5,0,17.5z"/>
		<path fill="#B4E548" d="M30.5,13c1.3,0,2.7,0,4,0c0.5,0,0.5,0,0.5,0.5c0,2.7,0,5.3,0,8c0,0.5,0,0.5-0.5,0.5c-2.7,0-5.3,0-8,0
			c-0.4,0-0.5,0-0.5-0.5c0-2.7,0-5.3,0-8c0-0.5,0-0.5,0.5-0.5C27.8,13,29.2,13,30.5,13z"/>
		<path fill="#B4E548" d="M13,30.5c0-1.3,0-2.7,0-4c0-0.4,0.1-0.5,0.5-0.5c2.7,0,5.4,0,8.1,0c0.3,0,0.5,0.1,0.5,0.4
			c0,2.7,0,5.4,0,8.1c0,0.4-0.1,0.4-0.5,0.4c-2.7,0-5.4,0-8.1,0c-0.4,0-0.4-0.1-0.4-0.5C13,33.2,13,31.8,13,30.5z"/>
	</g>
</g>
</svg>
