<?xml version="1.0" encoding="utf-8"?>
<!-- Generator: Adobe Illustrator 18.0.0, SVG Export Plug-In . SVG Version: 6.00 Build 0)  -->
<!DOCTYPE svg PUBLIC "-//W3C//DTD SVG 1.1//EN" "http://www.w3.org/Graphics/SVG/1.1/DTD/svg11.dtd">
<svg version="1.1" id="Capa_1" xmlns="http://www.w3.org/2000/svg" xmlns:xlink="http://www.w3.org/1999/xlink" x="0px" y="0px"
	 viewBox="0 0 92.4 67.8" enable-background="new 0 0 92.4 67.8" xml:space="preserve">
<g>
	<g>
		<g>
			<path fill="#FFFFFF" d="M81.5,30.5c-3.1-1.6-9-1.6-9.3-1.6c-0.7,0-1.4,0.6-1.4,1.4c0,0.7,0.6,1.4,1.4,1.4c1.5,0,5.9,0.2,8.1,1.3
				c0.2,0.1,0.4,0.1,0.6,0.1c0.5,0,1-0.3,1.2-0.7C82.5,31.7,82.2,30.9,81.5,30.5z"/>
		</g>
	</g>
	<g>
		<g>
			<path fill="#FFFFFF" d="M88.3,49.8l-5.6-1.6c-0.2-0.1-0.4-0.3-0.4-0.5v-1.9c0.5-0.3,0.9-0.7,1.3-1.1c2-1.9,3-4.5,3-7.2V35
				l0.5-1.1c0.6-1.2,0.9-2.5,0.9-3.8v-7c0-0.7-0.6-1.4-1.4-1.4h-13c-4.7,0-8.6,3.9-8.6,8.6v0.1c0,1.1,0.3,2.2,0.8,3.2l0.7,1.4v2.2
				c0,3.5,1.7,6.6,4.3,8.5l0,2c0,0.3,0,0.4-1.1,0.7L67,49.2l-7.9-2.9c0-0.4-0.1-0.8-0.4-1l-2.5-2.6v-4.4c0.3-0.2,0.5-0.4,0.8-0.7
				c3.2-3,5-7.2,5-11.5v-3.6c1-2.1,1.4-4.3,1.4-6.6V1.4c0-0.7-0.6-1.4-1.4-1.4H41.9c-7.1,0-12.9,5.8-12.9,12.9v2.9
				c0,2.3,0.5,4.5,1.4,6.6v3.1c0,5.1,2.2,9.6,5.8,12.6v4.6l-2.5,2.6c-0.3,0.3-0.4,0.7-0.4,1l-8.3,3c-0.6,0.2-1.2,0.5-1.7,0.9
				L22,49.6c3.9-1.7,5.1-4.1,5.2-4.2c0.2-0.4,0.2-0.8,0-1.2c-1-2-1.1-5.5-1.2-8.4c0-1-0.1-1.9-0.1-2.7c-0.5-6.5-5.4-11.4-11.5-11.4
				s-11,4.9-11.5,11.4c-0.1,0.8-0.1,1.7-0.1,2.7c-0.1,2.9-0.2,6.5-1.2,8.4c-0.2,0.4-0.2,0.8,0,1.2c0.1,0.1,1.3,2.5,5.2,4.2l-3.6,1.8
				c-1.9,1-3.1,2.9-3.1,5.1v10c0,0.7,0.6,1.4,1.4,1.4s1.4-0.6,1.4-1.4v-10c0-1.1,0.6-2.2,1.7-2.7l4.5-2.3l1.6,1.5
				c1.1,1,2.5,1.6,3.9,1.6c1.4,0,2.8-0.5,3.9-1.6l1.6-1.5l1.5,0.7c-0.7,1.1-1.1,2.4-1.1,3.8v10.4c0,0.7,0.6,1.4,1.4,1.4
				s1.4-0.6,1.4-1.4V56.1c0-1.9,1.2-3.5,2.9-4.2l8.8-3.2l3.7,5.5c0.5,0.7,1.2,1.2,2.1,1.2c0.1,0,0.2,0,0.3,0c0.7,0,1.4-0.3,2-0.8
				l2.2-2.2v14.1c0,0.7,0.6,1.4,1.4,1.4s1.4-0.6,1.4-1.4V52.4l2.2,2.2c0.5,0.5,1.2,0.8,2,0.8c0.1,0,0.2,0,0.3,0
				c0.8-0.1,1.6-0.5,2.1-1.2l3.7-5.5l8.8,3.2c1.7,0.6,2.9,2.3,2.9,4.2v10.4c0,0.7,0.6,1.4,1.4,1.4s1.4-0.6,1.4-1.4V56.1
				c0-1.9-0.7-3.6-2-5l0.3-0.1c0.3-0.1,0.8-0.2,1.3-0.5l3.5,3.5v12.5c0,0.7,0.6,1.4,1.4,1.4s1.4-0.6,1.4-1.4V54l3.4-3.4
				c0.2,0.1,0.4,0.2,0.6,0.2l5.6,1.6c1.3,0.4,2.2,1.5,2.2,2.9v11.2c0,0.7,0.6,1.4,1.4,1.4c0.7,0,1.4-0.6,1.4-1.4V55.3
				C92.4,52.8,90.7,50.5,88.3,49.8z M8.7,47.4c-2.5-0.9-3.8-2.1-4.3-2.8c0.4-1,0.6-2.1,0.8-3.2c0.7,1.8,2,3.3,3.6,4.4V47.4z
				 M16.4,51.1c-1.2,1.1-3,1.1-4.1,0l-1.3-1.2c0.2-0.4,0.3-0.8,0.3-1.3v-1.4c0.9,0.3,1.9,0.5,3,0.5c1,0,2-0.2,3-0.5l0,1.4
				c0,0.5,0.1,0.9,0.3,1.3L16.4,51.1z M14.4,44.9c-4,0-7.3-3.3-7.3-7.3c0-0.7-0.6-1.4-1.4-1.4c-0.1,0-0.1,0-0.2,0c0-0.1,0-0.2,0-0.3
				c0-0.9,0.1-1.8,0.1-2.6c0.2-2.4,1.1-4.7,2.7-6.3c1.6-1.7,3.8-2.6,6-2.6s4.4,0.9,6,2.6c1.6,1.6,2.6,3.9,2.7,6.3
				c0.1,0.8,0.1,1.6,0.1,2.6c0,0.1,0,0.2,0,0.2c-1.5-2.3-3.7-3.9-6.7-4.9c-2.7-0.9-5-0.8-5.1-0.8c-0.4,0-0.7,0.2-0.9,0.4l-2.4,2.5
				c-0.5,0.5-0.5,1.4,0,1.9c0.5,0.5,1.4,0.5,1.9,0l2-2.1c1.8,0.1,7.4,0.7,9.6,5.6C21.1,42.2,18,44.9,14.4,44.9z M20.1,47.4l0-1.6
				c1.6-1.1,2.8-2.6,3.6-4.4c0.2,1.2,0.4,2.3,0.8,3.2C23.9,45.3,22.6,46.5,20.1,47.4z M33.1,25.5v-3.4c0-0.2,0-0.4-0.1-0.6
				c-0.9-1.8-1.3-3.7-1.3-5.7v-2.9c0-5.6,4.6-10.2,10.2-10.2h18.9v13.1c0,2-0.4,3.9-1.3,5.7c-0.1,0.2-0.1,0.4-0.1,0.6V26
				c0,3.7-1.5,7.1-4.1,9.6c-0.3,0.3-0.7,0.6-1,0.9c0,0,0,0,0,0c-2.5,1.9-5.6,2.8-8.8,2.6C38.5,38.6,33.1,32.6,33.1,25.5z M40.7,52.7
				C40.7,52.7,40.7,52.7,40.7,52.7c-0.1,0-0.1,0-0.1,0l-4.2-6.3l1.4-1.4l6.4,4.4L40.7,52.7z M46.2,47.5l-7.3-5v-2.5
				c1.9,1,4,1.7,6.3,1.8c0.4,0,0.7,0,1.1,0c2.6,0,5.1-0.6,7.3-1.8v2.5L46.2,47.5z M51.9,52.7C51.9,52.7,51.8,52.7,51.9,52.7
				c-0.1,0-0.1,0-0.1,0l-3.4-3.4l6.4-4.4l1.4,1.4L51.9,52.7z M76.6,51.5l-3.1-3.1c0.1-0.2,0.1-0.5,0.1-0.8l0-0.6
				c0.9,0.3,1.8,0.4,2.7,0.5c0.1,0,0.2,0,0.3,0c1,0,2-0.2,3-0.5v0.5c0,0.3,0,0.5,0.1,0.8L76.6,51.5z M81.7,42.8
				c-1.4,1.4-3.3,2.1-5.3,2.1c-3.9-0.1-7.1-3.6-7.1-7.7v-2.5c0-0.2,0-0.4-0.1-0.6l-0.8-1.7c-0.3-0.6-0.5-1.3-0.5-2v-0.1
				c0-3.2,2.6-5.9,5.9-5.9h11.7V30c0,0.9-0.2,1.8-0.6,2.6L84.1,34c-0.1,0.2-0.1,0.4-0.1,0.6v2.9C83.9,39.5,83.1,41.4,81.7,42.8z"/>
		</g>
	</g>
	<g>
		<g>
			<path fill="#FFFFFF" d="M85.3,56.4c-0.7,0-1.4,0.6-1.4,1.4v8.7c0,0.7,0.6,1.4,1.4,1.4c0.7,0,1.4-0.6,1.4-1.4v-8.7
				C86.6,57,86,56.4,85.3,56.4z"/>
		</g>
	</g>
	<g>
		<g>
			<path fill="#FFFFFF" d="M7.1,58.2c-0.7,0-1.4,0.6-1.4,1.4v6.9c0,0.7,0.6,1.4,1.4,1.4s1.4-0.6,1.4-1.4v-6.9
				C8.5,58.8,7.9,58.2,7.1,58.2z"/>
		</g>
	</g>
	<g>
		<g>
			<path fill="#FFFFFF" d="M57.3,16.3c-5.1-5.1-15.8-4.1-20.2-3.5c-1.4,0.2-2.4,1.4-2.4,2.8v3.1c0,0.7,0.6,1.4,1.4,1.4
				s1.4-0.6,1.4-1.4v-3.1c0,0,0-0.1,0.1-0.1c1.7-0.3,5.2-0.7,8.8-0.4c4.2,0.3,7.3,1.3,9.1,3.1c0.5,0.5,1.4,0.5,1.9,0
				C57.8,17.7,57.8,16.8,57.3,16.3z"/>
		</g>
	</g>
	<g>
		<g>
			<path fill="#FFFFFF" d="M30.3,59.3c-0.7,0-1.4,0.6-1.4,1.4v5.8c0,0.7,0.6,1.4,1.4,1.4s1.4-0.6,1.4-1.4v-5.8
				C31.7,59.9,31,59.3,30.3,59.3z"/>
		</g>
	</g>
	<g>
		<g>
			<path fill="#FFFFFF" d="M62.1,59.3c-0.7,0-1.4,0.6-1.4,1.4v5.8c0,0.7,0.6,1.4,1.4,1.4s1.4-0.6,1.4-1.4v-5.8
				C63.5,59.9,62.9,59.3,62.1,59.3z"/>
		</g>
	</g>
</g>
</svg>
