<?xml version="1.0" encoding="utf-8"?>
<!-- Generator: Adobe Illustrator 18.0.0, SVG Export Plug-In . SVG Version: 6.00 Build 0)  -->
<!DOCTYPE svg PUBLIC "-//W3C//DTD SVG 1.1//EN" "http://www.w3.org/Graphics/SVG/1.1/DTD/svg11.dtd">
<svg version="1.1" xmlns="http://www.w3.org/2000/svg" xmlns:xlink="http://www.w3.org/1999/xlink" x="0px" y="0px"
	 viewBox="0 0 232.1 118" enable-background="new 0 0 232.1 118" xml:space="preserve">
<g id="capa1">
</g>
<g id="Capa_6">
</g>
<g id="Capa_5">
</g>
<g id="Capa_7">
</g>
<g id="Capa_8">
	<g id="Capa_10">
	</g>
</g>
<g id="Capa_11">
</g>
<g id="Capa_9">
</g>
<g id="BKG">
</g>
<g id="OBJ">
</g>
<g id="TXT">
	<g>
		<g>
			<g id="JtFIyF.tif_1_">
				<g>
					<path fill="#B2B2B2" d="M184.6,118c-1-0.1-1.8-0.5-2.4-1.4c-0.7-1-0.9-2.1-0.3-3.3c0.6-1.2,1.5-1.8,2.8-1.9c1,0,2,0,3,0
						c0.4,0,0.6-0.1,0.7-0.5c0.5-1.6,1-3.2,1.5-4.8c0.2-0.6,0.2-0.6-0.5-0.6c-4.7,0-9.3,0-14,0c-1,0-1.9-0.1-2.8-0.6
						c-2.2-1.1-3.6-2.8-3.6-5.3c0-9.7,0-19.3,0-29c0-1.6,0-3.1,0-4.7c0-3.3,2.7-6,5.9-6c1.9,0,3.8,0,5.7,0c0.7,0,1.1,0.3,1.1,0.8
						c0.1,0.7-0.4,1.1-1.1,1.1c-1.9,0-3.8,0-5.6,0c-2,0-3.6,1.3-4,3.2c-0.1,0.3-0.1,0.6-0.1,1c0,11,0,22.1,0,33.1
						c0,2.1,1.5,4.2,4.2,4.3c0.1,0,0.2,0,0.3,0c16.8,0,33.5,0,50.3,0c1.3,0,2.5-0.3,3.4-1.3c0.7-0.7,1-1.6,1.1-2.5
						c0-0.2,0-0.4,0-0.6c0-10.9,0-21.7,0-32.6c0-0.7,0-1.4-0.3-2c-0.8-1.6-2-2.4-3.8-2.4c-6.1,0-12.3,0-18.4,0c-7.5,0-15,0-22.6,0
						c-0.2,0-0.4,0-0.6,0c-0.5-0.1-0.9-0.5-0.9-1c0-0.5,0.4-0.9,0.9-0.9c0.2,0,0.3,0,0.5,0c13.6,0,27.2,0,40.9,0
						c3.2,0,5.7,2.2,6.2,5c0,0.1,0,0.1,0.1,0.2c0,11.7,0,23.4,0,35.1c0,0.2-0.1,0.4-0.1,0.5c-0.5,2-1.8,3.4-3.7,4.2
						c-0.9,0.4-1.8,0.4-2.7,0.4c-4.6,0-9.2,0-13.9,0c-0.6,0-0.6,0-0.4,0.6c0.5,1.6,1,3.2,1.5,4.9c0.1,0.4,0.3,0.5,0.7,0.5
						c1,0,1.9,0,2.9,0c1.4,0,2.5,0.8,3,2.1c0.5,1.3,0.2,2.6-0.9,3.6c-0.6,0.5-1.2,0.7-2,0.9C205.9,118,195.2,118,184.6,118z
						 M200.5,111.5c3.3,0,6.5,0,9.8,0c0.4,0,0.5-0.1,0.4-0.5c-0.5-1.6-1-3.3-1.5-4.9c-0.1-0.4-0.3-0.5-0.6-0.5c-5.3,0-10.7,0-16,0
						c-0.4,0-0.6,0.2-0.7,0.5c-0.5,1.6-1,3.2-1.5,4.9c-0.2,0.5-0.2,0.5,0.4,0.5C194,111.5,197.3,111.5,200.5,111.5z M200.6,113.5
						c-5.1,0-10.2,0-15.3,0c-0.2,0-0.4,0-0.6,0c-0.8,0.1-1.4,0.9-1.1,1.7c0.2,0.6,0.7,0.9,1.5,0.9c10.3,0,20.6,0,30.8,0
						c0.3,0,0.5,0,0.8-0.1c0.5-0.2,0.8-0.5,0.8-1c0.1-0.5-0.1-0.8-0.5-1.1c-0.3-0.3-0.7-0.3-1-0.3
						C210.9,113.5,205.7,113.5,200.6,113.5z"/>
					<path fill="#B2B2B2" d="M200.6,97.7c-8.4,0-16.9,0-25.3,0c-1,0-1.3-0.3-1.3-1.3c0-10,0-20,0-30c0-1,0.4-1.3,1.3-1.3
						c16.9,0,33.7,0,50.6,0c0.9,0,1.3,0.4,1.3,1.3c0,7.7,0,15.4,0,23.1c0,0.9-0.6,1.4-1.4,1.1c-0.4-0.2-0.5-0.5-0.6-0.8
						c0-0.2,0-0.4,0-0.6c0-7.2,0-14.3,0-21.5c0-0.7,0-0.7-0.7-0.7c-16,0-31.9,0-47.9,0c-0.7,0-0.7,0-0.7,0.7c0,9.1,0,18.2,0,27.2
						c0,0.7,0,0.7,0.7,0.7c16,0,31.9,0,47.9,0c0.7,0,0.7,0,0.7-0.7c0-0.5,0-0.9,0-1.4c0-0.7,0.4-1.1,1-1.1c0.6,0,1,0.4,1,1.1
						c0,0.9,0,1.9,0,2.8c0,1-0.3,1.2-1.2,1.2C217.5,97.7,209,97.7,200.6,97.7z"/>
					<path fill="#B2B2B2" d="M200.6,99.5c0.5,0,1,0.5,1,1c0,0.5-0.4,1-1,1c-0.5,0-1-0.5-1-1C199.6,100,200.1,99.5,200.6,99.5z"/>
				</g>
			</g>
		</g>
		<rect x="0" y="2.3" fill="#E5E5E5" width="47.6" height="115"/>
		<g>
			<path fill="#808080" d="M9.3,96.7C9.2,96,9.1,95.1,9.1,94c0-1.4,0.3-2.4,0.9-3c0.5-0.6,1.3-0.9,2.3-0.9c1,0,1.7,0.3,2.3,0.8
				c0.8,0.7,1.2,1.9,1.2,3.3c0,0.4,0,0.8-0.1,1.1H20v1.4H9.3z M14.5,95.3c0.1-0.3,0.1-0.7,0.1-1.2c0-1.7-0.8-2.7-2.3-2.7
				c-1.4,0-2.1,1-2.1,2.5c0,0.6,0,1.1,0.1,1.3H14.5z"/>
			<path fill="#808080" d="M14.9,82.6v4.2h3.9v-4.7H20v6.1H9.2v-5.8h1.2v4.4h3.4v-4.2H14.9z"/>
			<path fill="#808080" d="M9.3,80.3c-0.1-0.7-0.2-1.7-0.2-2.7c0-1.5,0.3-2.4,0.9-3.1c0.5-0.5,1.2-0.8,2-0.8c1.4,0,2.4,0.9,2.8,2h0
				c0.3-0.8,1.1-1.3,2.2-1.6c1.5-0.4,2.5-0.6,3-0.8v1.4c-0.3,0.2-1.2,0.4-2.6,0.7c-1.5,0.3-2,0.9-2.1,2.2v1.3H20v1.4H9.3z
				 M14.3,78.9v-1.4c0-1.5-0.8-2.4-2-2.4c-1.4,0-2,1-2,2.5c0,0.7,0.1,1.2,0.1,1.4H14.3z"/>
			<path fill="#808080" d="M18.3,71.9c0.4-0.6,0.7-1.5,0.7-2.5c0-1.4-0.8-2.3-1.8-2.3c-1,0-1.6,0.6-2.1,2C14.4,70.9,13.5,72,12,72
				C10.3,72,9,70.6,9,68.5c0-1.1,0.3-1.9,0.5-2.4l1.1,0.4c-0.2,0.4-0.5,1.1-0.5,2c0,1.5,0.9,2,1.6,2c1,0,1.5-0.7,2.1-2.1
				c0.7-1.8,1.6-2.8,3.2-2.8c1.7,0,3.1,1.2,3.1,3.8c0,1-0.3,2.2-0.7,2.8L18.3,71.9z"/>
			<path fill="#808080" d="M14.5,54.6c3.7,0,5.7,2.3,5.7,5c0,2.8-2.2,4.8-5.5,4.8c-3.4,0-5.7-2.1-5.7-5C9,56.5,11.3,54.6,14.5,54.6z
				 M14.7,63c2.3,0,4.4-1.2,4.4-3.4c0-2.2-2-3.5-4.5-3.5c-2.1,0-4.4,1.1-4.4,3.4C10.2,61.8,12.3,63,14.7,63z"/>
			<path fill="#808080" d="M20,52.8H9.2v-1.5l5.5-3.5c1.3-0.8,2.4-1.4,3.5-1.9l0,0C16.7,46,15.4,46,13.7,46H9.2v-1.3H20v1.4
				l-5.5,3.4c-1.2,0.8-2.4,1.5-3.6,2l0,0c1.4-0.1,2.7-0.1,4.5-0.1H20V52.8z"/>
			<path fill="#808080" d="M16.6,40.5l3.4,1.1v1.4L9.2,39.4v-1.7L20,34.1v1.5l-3.4,1.2V40.5z M15.5,37L12.4,38
				c-0.7,0.2-1.3,0.4-2,0.6v0c0.6,0.2,1.3,0.3,2,0.5l3.1,1.1V37z"/>
			<path fill="#808080" d="M9.2,32.5v-1.4h9.6v-4.6H20v6H9.2z"/>
			<path fill="#808080" d="M35.8,104.6l3.4,1.1v1.4l-10.8-3.7v-1.7l10.8-3.7v1.5l-3.4,1.2V104.6z M34.7,101l-3.1,1.1
				c-0.7,0.2-1.3,0.4-2,0.6v0c0.6,0.2,1.3,0.3,2,0.5l3.1,1.1V101z"/>
			<path fill="#808080" d="M28.4,95.6h6.4c2.4,0,3.4-1.1,3.4-2.5c0-1.6-1.1-2.6-3.4-2.6h-6.4V89h6.3c3.3,0,4.7,1.7,4.7,4.1
				c0,2.2-1.3,3.9-4.6,3.9h-6.4V95.6z"/>
			<path fill="#808080" d="M29.6,84.6v3.3h-1.2v-8h1.2v3.3h9.6v1.4H29.6z"/>
			<path fill="#808080" d="M33.7,69.9c3.7,0,5.7,2.3,5.7,5c0,2.8-2.2,4.8-5.5,4.8c-3.4,0-5.7-2.1-5.7-5
				C28.2,71.8,30.5,69.9,33.7,69.9z M33.9,78.2c2.3,0,4.4-1.2,4.4-3.4c0-2.2-2-3.5-4.5-3.5c-2.1,0-4.4,1.1-4.4,3.4
				C29.4,77.1,31.5,78.2,33.9,78.2z"/>
			<path fill="#808080" d="M28.5,68.1c-0.1-0.7-0.2-1.7-0.2-2.7c0-1.5,0.3-2.4,0.9-3.1c0.5-0.5,1.2-0.8,2-0.8c1.4,0,2.4,0.9,2.8,2h0
				c0.3-0.8,1.1-1.3,2.2-1.6c1.5-0.4,2.5-0.6,3-0.8v1.4c-0.3,0.2-1.2,0.4-2.6,0.7c-1.5,0.3-2,0.9-2.1,2.2v1.3h4.7v1.4H28.5z
				 M33.5,66.7v-1.4c0-1.5-0.8-2.4-2-2.4c-1.4,0-2,1-2,2.5c0,0.7,0.1,1.2,0.1,1.4H33.5z"/>
			<path fill="#808080" d="M28.4,58.1h10.8v1.4H28.4V58.1z"/>
			<path fill="#808080" d="M38.4,56.4l-8.8-6h0v5.5h-1.2v-7.3h0.8l8.7,6h0v-6h1.2v7.9H38.4z"/>
			<path fill="#808080" d="M35.8,45l3.4,1.1v1.4l-10.8-3.7v-1.7l10.8-3.7v1.5l-3.4,1.2V45z M34.7,41.5l-3.1,1.1
				c-0.7,0.2-1.3,0.4-2,0.6v0c0.6,0.2,1.3,0.3,2,0.5l3.1,1.1V41.5z"/>
			<path fill="#808080" d="M28.5,37c-0.1-0.8-0.2-1.9-0.2-3c0-2,0.5-3.4,1.3-4.4c0.9-1,2.1-1.5,3.9-1.5c1.8,0,3.2,0.5,4.2,1.6
				c1,1,1.6,2.7,1.6,4.8c0,1,0,1.8-0.1,2.5H28.5z M38.1,35.6c0.1-0.4,0.1-0.9,0.1-1.4c0-3-1.7-4.6-4.6-4.6c-2.5,0-4.2,1.4-4.2,4.4
				c0,0.7,0.1,1.3,0.1,1.6H38.1z"/>
			<path fill="#808080" d="M33.7,17.1c3.7,0,5.7,2.3,5.7,5c0,2.8-2.2,4.8-5.5,4.8c-3.4,0-5.7-2.1-5.7-5C28.2,19,30.5,17.1,33.7,17.1
				z M33.9,25.5c2.3,0,4.4-1.2,4.4-3.4c0-2.2-2-3.5-4.5-3.5c-2.1,0-4.4,1.1-4.4,3.4C29.4,24.3,31.5,25.5,33.9,25.5z"/>
		</g>
		<g id="noBJbj.tif">
			<g>
				<path fill="#1FB2A0" d="M61.3,117.2c-1-0.7-1.3-1.4-1-2.3c0.3-0.9,1-1.3,2.2-1.3c3.7,0,7.4,0,11.1,0c0.3,0,0.6,0,1,0
					c0-0.4-0.3-0.5-0.4-0.7c-1.4-1.5-2.8-2.9-4.2-4.4c-2.7-3.1-4.1-6.8-4.1-10.9c0-7.8,0-15.7,0-23.5c0-5.3,2.4-9.1,6.8-11.9
					c2.6-1.7,5.5-2.3,8.5-2.8c1.9-0.3,3.7-0.7,5.6-1.1c1.9-0.4,3.5-1.4,4.2-3.3c0.5-1.2,0.2-2.5,0.2-3.8c0-0.4-0.3-0.5-0.6-0.7
					c-4.7-3.8-7-8.7-7-14.7c0-3.1,0-6.1,0-9.2c0-0.6-0.1-0.8-0.8-0.7c-1.7,0.4-2.6-0.3-2.7-2c-0.3-3.8,0.4-7.5,2.1-10.9
					c3-6.1,7.6-10.3,14.3-12.2c1.1-0.3,2.2-0.5,3.3-0.8c1.5,0,2.9,0,4.4,0c2.9,0.6,5.7,1.6,8.2,3.3c5,3.4,8.3,8.1,10.4,13.7
					c0.4,1.1,0.8,2.2,1.1,3.3c0.4,1.3,0,2.3-1.1,2.7c-1,0.3-2-0.3-2.4-1.6c-1-3.4-2.3-6.6-4.4-9.5c-2.6-3.6-5.9-6.3-10.2-7.7
					c-2.6-0.8-5.2-0.8-7.9-0.1c-4.2,1.1-7.7,3.3-10.4,6.9c-0.4,0.6-0.5,1,0.1,1.5c1.9,1.8,3.4,4,5.4,5.6c4.1,3.1,8.7,5,13.9,5.2
					c3.5,0.2,6.9-0.3,10-1.9c1.2-0.6,2.5,0.2,2.6,1.6c0.1,1,0,2,0,3.1c0,0.3,0,0.6,0.1,0.9c0.4,1.4,1.7,2,3.1,1.4
					c0.3-0.1,0.3-0.4,0.4-0.6c0.2-0.8,0.4-1.6,0.7-2.5c0.5-1.7,2.1-2.7,3.9-2.4c1.3,0.2,2.5,0.4,3.8,0.7c2.2,0.4,3.3,1.7,3.1,4
					c0,0.7-0.1,1.4-0.2,2.1c0,0.1-0.1,0.3,0,0.3c0.5,0.9,1.5,0.8,2.2,1.4c0.4,0.3,0.6,0,0.9-0.2c1.7-1.5,3.3-3.1,5.1-4.6
					c0.5-0.4,0.3-0.8,0.2-1.3c-1.3-6,0.1-11.3,4.4-15.6c5-5,11-6.2,17.7-4c1.6,0.5,1.9,2,0.7,3.3c-2.4,2.5-4.9,4.9-7.3,7.3
					c-1,1-1,1,0,2c1.4,1.4,2.8,2.8,4.2,4.2c0.6,0.6,1,0.6,1.6,0c2.5-2.5,5-5,7.4-7.4c0.9-0.9,1.6-1,2.5-0.5c0.4,0.2,0.7,0.6,0.9,1.1
					c3.8,9.9-3,21.2-13.6,22.4c-2.2,0.3-4.4,0.1-6.5-0.4c-0.3-0.1-0.6-0.2-0.8,0.1c-0.8,0.8-1.5,1.7-2.4,2.7
					c2.4,0.2,3.1,1.9,3.7,3.8c0.3,0.9,0.6,1.7,0.9,2.6c0.6,1.7-0.1,3.3-1.7,4.1c-0.8,0.4-1.5,0.7-2.3,1.1c-0.4,0.2-0.6,0.5-0.5,1
					c0.3,1.9,0.3,1.9,2.2,2.4c0.3,0.1,0.6,0.2,0.9,0.3c1.8,0.6,2.8,2.1,2.5,4c-0.2,1.3-0.4,2.6-0.7,3.9c-0.4,2.1-1.7,3.1-3.9,3
					c-0.7,0-1.5-0.1-2.2-0.2c-0.6-0.1-0.9,0.2-1,0.7c-0.1,0.4-0.3,0.8-0.5,1.1c-0.8,1.6-0.9,1.1,0.3,2.4c0.4,0.4,0.9,0.9,1.3,1.3
					c1.1,1.3,1.1,2.9,0.1,4.2c-1,1.3-2.1,2.5-3.2,3.7c-1,1-2.5,1.2-3.8,0.5c-0.8-0.5-1.6-1.1-2.4-1.7c-0.4-0.3-0.8-0.2-1.2,0
					c-1.8,0.8-2.3,2.2-2.2,4.1c0.2,4-0.1,8.1,0.1,12.1c0.3,6.2-1.6,11.5-5.8,16c-0.8,0.8-1.4,1.7-2.1,2.6c-0.1,0.1-0.1,0.2-0.1,0.2
					c0.3,0.3,0.6,0.1,0.9,0.2c3.1,0,6.1,0,9.2,0c0.2,0,0.4,0,0.6,0c1,0,1.7,0.5,2,1.3c0.3,1-0.2,1.7-1,2.2
					C114.9,117.2,88.1,117.2,61.3,117.2z M75.3,108.9c0-0.5,0-0.9,0-1.2c0-8.3,0-16.7,0-25c0-2.5,1-4.4,3.3-5.5
					c0.5-0.2,0.5-0.5,0.4-1c-0.2-0.7-0.6-1.3-1.2-1.8c-0.7-0.5-1.3-1-1.9-1.6c-0.7-0.7-0.7-1.7-0.1-2.4c0.5-0.7,1.5-0.9,2.2-0.4
					c2.2,1.5,4.2,3.1,4.7,5.9c0.1,0.6,0.4,0.8,1,0.8c0.8,0,1.6,0,2.4,0c1.1,0.1,1.8,0.7,1.9,1.7c0.1,1-0.5,1.7-1.7,1.9
					c-0.3,0-0.6,0.1-0.9,0.1c-1.2,0-2.5,0-3.7,0c-2.1,0-2.8,0.7-2.8,2.8c0,9.5,0,19,0,28.5c0,1.7,0.4,2.1,2.2,2.1
					c13.9,0,27.7,0,41.6,0c1.8,0,2.1-0.3,2.1-2.1c0-9.5,0-19.1,0-28.6c0-0.4,0-0.7,0-1.1c-0.1-0.8-0.7-1.5-1.6-1.6
					c-0.4-0.1-0.8,0-1.2,0c-9.4,0-18.8,0-28.2,0c-0.4,0-0.9,0-1.3-0.1c-0.8-0.3-1.4-0.9-1.4-1.7c0-0.8,0.6-1.5,1.5-1.8
					c0.5-0.1,1-0.1,1.5-0.1c8.2,0,16.5,0,24.7,0c0.3,0,0.5,0,0.8,0c0.4,0,0.7-0.2,0.7-0.6c0.4-2.8,2.4-4.4,4.5-5.9
					c0.9-0.6,1.9-0.5,2.5,0.3c0.6,0.7,0.5,1.8-0.3,2.5c-0.5,0.5-1.1,0.9-1.6,1.3c-0.5,0.5-1,1-1.3,1.6c-0.2,0.5-0.1,0.8,0.4,1
					c2.8,1.1,4,3.2,4,6.1c0,8.4,0,16.8,0,25.2c0,0.3-0.1,0.7,0.1,1.1c0.7-0.9,1.4-1.7,2-2.5c2.4-2.9,3.6-6.3,3.6-10.1
					c-0.1-7.5-0.1-15,0-22.5c0-3.6-1.6-6.2-4.4-8.2c-1.8-1.3-3.8-1.9-5.9-2.3c-3.3-0.7-6.7-1-9.9-2.3c-0.4-0.1-0.6,0.1-0.9,0.2
					c-4.1,2.8-8.5,3.9-13.4,3.5c-1.2-0.1-1.9-0.8-1.9-2c0-1.1,1-1.8,2.1-1.7c0.9,0.1,1.9,0.1,2.8,0.1c2.6-0.2,5-1,7.3-2.2
					c0.4-0.2,0.7-0.4,0.3-0.9c-1-1.4-1.5-3-1.5-4.8c0-0.6-0.2-0.6-0.7-0.4c-4.2,1.6-8.4,1.8-12.7,0.3c-0.5-0.2-0.8-0.1-0.8,0.5
					C94.7,54.9,94.5,56,94,57c-0.3,0.6-1.1,1.1-0.8,1.7c0.2,0.6,1.1,0.7,1.6,1.1c1,0.6,1.3,1.6,0.8,2.5c-0.5,0.9-1.5,1.2-2.5,0.7
					c-0.6-0.3-1.1-0.5-1.6-0.9c-1-0.8-2-1.1-3.2-0.4c-0.4,0.2-0.8,0.3-1.3,0.3c-2.9,0.6-5.8,1.1-8.7,1.8c-4.7,1.1-9.2,4.6-9,11.1
					c0.1,4.7,0,9.5,0,14.2c0,3.2-0.1,6.5,0.1,9.7C69.8,103,72.1,106.1,75.3,108.9z M172,19.6c-1.9,1.9-3.8,3.8-5.6,5.6
					c-2,2-4.3,2-6.3,0c-1.7-1.7-3.4-3.3-5-5c-0.6-0.6-1-1.4-1.2-2.3c-0.2-1.6,0.3-2.8,1.4-3.9c1.7-1.7,3.4-3.3,5-5
					c0.1-0.1,0.4-0.3,0.3-0.5c-0.1-0.3-0.4-0.2-0.6-0.2c-0.8,0-1.6-0.1-2.5,0c-8.4,1.1-13.4,9.1-10.8,17.2c0.4,1.1,0.2,2-0.7,2.7
					c-2,1.8-4,3.6-6,5.4c-5.3,4.9-10.6,9.7-15.9,14.6c-3,2.7-6,5.5-9,8.2c-0.7,0.7-0.7,0.7,0.2,1.2c0.7,0.3,1.4,0.5,2.1,0.7
					c3.3,0.7,6.7,1.2,9.9,2.1c0.6,0.2,1,0,1.4-0.4c7.6-8.5,15.2-16.9,22.8-25.4c1-1.2,2-1.4,3.5-0.9c3.8,1.2,7.4,0.9,10.9-1.2
					C170.3,29.9,172.9,24.6,172,19.6z M87.1,30.5c0,2.7-0.2,5.3,0.2,8c1.3,8.4,9.6,13.8,17.8,11.7c5.9-1.5,10.2-6.7,10.6-12.7
					c0.3-3.5,0-7.1,0.1-10.6c0-0.7-0.1-0.9-0.9-0.7c-3.9,1-7.8,1.3-11.8,0.5c-4.1-0.8-7.8-2.3-11.2-4.7c-0.6-0.4-1-0.5-1.6,0
					c-0.8,0.7-1.8,1.3-2.7,1.8c-0.5,0.3-0.7,0.7-0.7,1.3C87.2,26.9,87.1,28.7,87.1,30.5z M151.8,62.6c1.2,0.1,1.2,0.1,1.4-1.2
					c0.1-0.5,0.2-1,0.3-1.6c0.1-0.6,0-0.9-0.7-1.1c-1.1-0.2-2.2-0.5-3.2-0.8c-0.9-0.2-1.4-0.9-1.5-1.8c0-1.6-0.2-3.1-0.4-4.7
					c-0.1-1,0.3-1.7,1.3-2.2c1-0.4,1.9-0.9,2.9-1.3c0.6-0.3,0.7-0.6,0.4-1.2c-0.3-0.6-0.5-1.3-0.7-2c-0.2-0.6-0.4-0.7-1-0.6
					c-2.3,0.5-4.3,1.2-5.6,3.3c-0.3,0.4-0.7,0.8-1,1.2c-0.4,0.4-0.5,0.9-0.3,1.4c0.5,1.6,0.8,3.4,0.9,5.1c0.1,5.9-1.9,11-6.1,15.2
					c-0.4,0.4-0.7,0.8-0.6,1.5c0.2,0.7,0.1,1.5,0.2,2.2c0,0.4-0.2,0.9,0.2,1.1c0.4,0.2,0.7-0.3,1-0.6c1.2-0.9,1.8-1,3.1-0.1
					c0.8,0.6,1.6,1.1,2.4,1.7c0.4,0.3,0.7,0.4,1.1-0.1c0.5-0.6,1-1.2,1.6-1.8c0.4-0.4,0.4-0.6,0-1c-0.8-0.8-1.6-1.7-2.4-2.5
					c-0.7-0.8-0.8-1.5-0.2-2.4c0.9-1.5,1.7-3.1,2.3-4.8c0.3-0.9,0.9-1.3,1.9-1.3C149.7,62.5,150.8,62.5,151.8,62.6z M119.6,34.4
					c0,0.3,0,0.5,0,0.8c0,1.3,0,1.3,1.2,1c2.9-0.5,5.7-0.5,8.5,0.3c1.5,0.5,2.3,0,3.3-0.9c1.6-1.6,1.6-1.5-0.5-2.3
					c-1.2-0.4-1.6-1.1-1.5-2.4c0.1-1,0.2-2,0.3-3.1c0.1-0.6-0.2-0.8-0.7-0.9c-0.7-0.1-1.4-0.2-2.2-0.4c-0.6-0.2-0.9,0.1-1,0.7
					c-0.2,1-0.5,2-0.8,3c-0.3,1.3-0.9,1.7-2.2,1.7c-0.8,0-1.6,0-2.4,0.1C119.6,32.4,119.6,32.3,119.6,34.4z M124.5,39.5
					c-1.6,0-3.1,0.3-4.5,0.6c-0.6,0.1-0.9,0.4-1.1,1.1c-0.8,3.1-2.4,5.8-4.7,7.9c-1.2,1-1.7,2.2-1.5,3.7c0,0.3-0.1,0.6,0.1,0.7
					c0.3,0.1,0.5-0.2,0.7-0.4c2-1.9,4.1-3.7,6.1-5.6c2.5-2.3,5-4.6,7.6-6.9c0.2-0.1,0.5-0.3,0.4-0.5c-0.1-0.2-0.4-0.2-0.6-0.2
					C126.1,39.7,125.2,39.4,124.5,39.5z M140.8,55.9c-0.1-0.8-0.1-1.6-0.2-2.4c0-0.3,0.1-0.7-0.3-0.8c-0.3-0.1-0.4,0.3-0.6,0.5
					c-2.6,2.9-5.2,5.7-7.8,8.6c-0.4,0.5-0.3,0.7,0.1,1c1.5,1,2.7,2.3,3.7,3.8c0.4,0.6,0.6,0.5,1,0C139.4,63.6,140.8,60,140.8,55.9z
					 M83.7,21.1c-0.1,0.5,0.1,0.6,0.6,0.4c1.3-0.5,2.5-1.3,3.6-2.1c0.4-0.3,0.4-0.5,0-0.9c-0.8-0.8-1.6-1.6-2.4-2.5
					c-0.4-0.5-0.6-0.6-0.9,0.1C84.1,17.8,83.8,19.4,83.7,21.1z"/>
				<path fill="#1FB2A0" d="M107.9,97c-0.1,3.4-2.8,6-6.1,6c-3.3-0.1-6-2.9-6-6.1c0.1-3.4,2.9-6,6.3-6
					C105.3,90.9,107.9,93.7,107.9,97z M99.5,96.9c0,1.3,1,2.3,2.2,2.4c1.4,0,2.5-1.1,2.5-2.4c0-1.3-1.1-2.3-2.4-2.3
					C100.4,94.6,99.5,95.5,99.5,96.9z"/>
			</g>
		</g>
	</g>
</g>
</svg>
