<?xml version="1.0" encoding="utf-8"?>
<!-- Generator: Adobe Illustrator 18.0.0, SVG Export Plug-In . SVG Version: 6.00 Build 0)  -->
<!DOCTYPE svg PUBLIC "-//W3C//DTD SVG 1.1//EN" "http://www.w3.org/Graphics/SVG/1.1/DTD/svg11.dtd">
<svg version="1.1" id="Capa_1" xmlns="http://www.w3.org/2000/svg" xmlns:xlink="http://www.w3.org/1999/xlink" x="0px" y="0px"
	 viewBox="0 0 206 206" enable-background="new 0 0 206 206" xml:space="preserve">
<g>
	<path fill="#595958" d="M189.4,53.2h-10V0H26.6v53.2h-10C7.5,53.2,0,60.6,0,69.8v99.7c0,9.2,7.5,16.6,16.6,16.6h43.2v13.3H46.5v6.6
		h113v-6.6h-13.3v-13.3h43.2c9.2,0,16.6-7.5,16.6-16.6V69.8C206,60.6,198.5,53.2,189.4,53.2z M33.2,6.6h139.5v19.9H33.2V6.6z
		 M139.5,199.4H66.5v-13.3h73.1V199.4z M199.4,169.5c0,5.5-4.5,10-10,10H16.6c-5.5,0-10-4.5-10-10v-3.3h192.7V169.5z M199.4,159.5
		H6.6V69.8c0-5.5,4.5-10,10-10h10v59.8h39.5c0.2-0.4,0.5-0.8,0.8-1.1c-0.2-1.5-0.2-3-0.3-4.5c-0.6-0.3-1.2-0.7-1.7-1H33.2V33.2
		h139.5V113h-29.2c0,0.3,0.1,0.6,0.1,0.8c0.1,1.5-0.5,3-1.5,4.1c0.2,0.5,0.2,1.1,0.3,1.7h37V59.8h10c5.5,0,10,4.5,10,10V159.5z"/>
	<path fill="#595958" d="M39.9,13.3h6.6v6.6h-6.6V13.3z"/>
	<path fill="#595958" d="M53.2,13.3h6.6v6.6h-6.6V13.3z"/>
	<path fill="#595958" d="M66.5,13.3h6.6v6.6h-6.6V13.3z"/>
	<path fill="#595958" d="M39.9,39.9h66.5v6.6H39.9V39.9z"/>
	<path fill="#595958" d="M39.9,53.2h66.5v6.6H39.9V53.2z"/>
	<path fill="#595958" d="M39.9,66.5h66.5v6.6H39.9V66.5z"/>
	<path fill="#595958" d="M79.2,146.1l-0.1,0.1l3,2.2c0.1,0.1,0.2,0.1,0.3,0.2c0.6,0.4,1.2,0.8,1.8,1.2c0.4,0.2,0.8,0.5,1.1,0.7
		c0.6,0.3,1.2,0.7,1.8,1c0.5,0.3,1,0.5,1.5,0.7c0.5,0.2,1,0.5,1.5,0.7c1,0.4,2.1,0.8,3.1,1.2c0.4,0.1,0.7,0.2,1.1,0.3
		c0.8,0.2,1.6,0.4,2.4,0.6c0.4,0.1,0.8,0.2,1.3,0.2c0.8,0.2,1.7,0.3,2.5,0.4c0.4,0,0.8,0.1,1.1,0.1c1.2,0.1,2.4,0.2,3.7,0.2
		s2.5-0.1,3.7-0.2c0.4,0,0.8-0.1,1.1-0.1c0.8-0.1,1.7-0.2,2.5-0.4c0.4-0.1,0.8-0.2,1.2-0.2c0.8-0.2,1.6-0.4,2.4-0.6
		c0.4-0.1,0.7-0.2,1.1-0.3c1.1-0.3,2.1-0.7,3.1-1.2c0.5-0.2,1-0.5,1.5-0.7c0.5-0.3,1.1-0.5,1.6-0.8c0.6-0.3,1.2-0.6,1.7-1
		c0.4-0.2,0.8-0.5,1.2-0.7c0.6-0.4,1.2-0.8,1.7-1.2c0.1-0.1,0.2-0.1,0.3-0.2l3.1-2.2l-0.2-0.1c8.3-7.3,13.6-18,13.6-30
		c0-22-17.9-39.9-39.9-39.9s-39.9,17.9-39.9,39.9C65.5,128.1,70.8,138.8,79.2,146.1z M97.2,148.8c-1.2-0.3-2.4-0.7-3.6-1.1
		c-0.1-0.1-0.3-0.1-0.4-0.2c-1.2-0.5-2.4-1-3.6-1.6l7.5-4.1c2.3-1.3,3.7-3.6,3.7-6.3v-5.2l-0.7-0.9c0,0-2.5-3-3.4-7l-0.4-1.4
		l-1.1-0.7l0.1-4.6l1-0.9v-7.8l0-0.4c0,0-0.2-2.3,1.3-4c1.4-1.6,4.2-2.5,7.9-2.5c3.7,0,6.4,0.8,7.8,2.5c1.6,1.8,1.4,4,1.4,4.1l0,6.8
		l0.1,1.6l1,0.9v4.5c0,0.1-0.1,0.2-0.2,0.2l-1.5,0.5l-0.5,1.5c-0.7,2.1-1.7,4.1-2.9,5.8c-0.3,0.4-0.6,0.8-0.8,1l-0.8,0.9v5.3
		c0,2.7,1.5,5.2,3.9,6.4l7.9,4c0,0-0.1,0-0.1,0.1c-1.1,0.6-2.2,1.1-3.3,1.5c-0.2,0.1-0.4,0.1-0.6,0.2c-1.2,0.4-2.3,0.8-3.5,1.1
		c0,0-0.1,0-0.1,0C108.1,150.2,102.5,150.1,97.2,148.8C97.2,148.8,97.2,148.8,97.2,148.8z M105.4,82.3c18.6,0,33.8,15.2,33.8,33.8
		c0,10.5-4.8,19.9-12.3,26.1c-0.2-0.1-0.3-0.2-0.4-0.3l-10.6-5.3c-0.3-0.2-0.5-0.5-0.5-0.9v-3.1c0.1-0.2,0.3-0.4,0.4-0.6
		c1.3-1.9,2.4-4,3.3-6.2c1.8-1.2,3-3.2,3-5.4V116c0-1.3-0.4-2.5-1.1-3.6v-5.2c0.1-1.1,0.2-5.2-2.8-8.7c-2.7-3-6.9-4.6-12.5-4.6
		s-9.8,1.5-12.5,4.6c-3,3.5-2.9,7.5-2.8,8.7v5.2c-0.7,1.1-1.1,2.3-1.1,3.6v4.5c0,1.7,0.7,3.3,1.9,4.5c1,3.5,2.7,6.3,3.7,7.6v3
		c0,0.4-0.2,0.7-0.5,0.9l-9.9,5.4c-0.1,0.1-0.2,0.1-0.3,0.2c-7.5-6.2-12.2-15.6-12.2-26C71.6,97.5,86.8,82.3,105.4,82.3z"/>
</g>
</svg>
