<?xml version="1.0" encoding="utf-8"?>
<!-- Generator: Adobe Illustrator 18.0.0, SVG Export Plug-In . SVG Version: 6.00 Build 0)  -->
<!DOCTYPE svg PUBLIC "-//W3C//DTD SVG 1.1//EN" "http://www.w3.org/Graphics/SVG/1.1/DTD/svg11.dtd">
<svg version="1.1" id="Capa_1" xmlns="http://www.w3.org/2000/svg" xmlns:xlink="http://www.w3.org/1999/xlink" x="0px" y="0px"
	 viewBox="0 0 217.8 210.9" enable-background="new 0 0 217.8 210.9" xml:space="preserve">
<g>
	<g id="oBT5wk.tif_2_">
		<g>
			<path fill="#E5E5E5" d="M47.4,63.9c-3.5,0-7,0-10.5,0c-0.6,0-1-0.2-1.2-0.9C34,57.6,31,53,27,48.9c-6-6.1-9-13.5-8.3-22.1
				c0.5-6.2,3-11.5,6.9-16.3c3.6-4.3,8-7.5,13.4-9.2c8.1-2.5,15.9-1.6,23,2.9c7.7,4.8,12.4,11.9,13.8,20.8c1.3,8.3-1.1,15.6-6.5,22
				c-1.9,2.3-4.1,4.4-5.8,6.9c-1.9,2.7-3.2,5.5-4.2,8.6c-0.3,0.9-0.7,1.2-1.6,1.2C54.3,63.8,50.9,63.9,47.4,63.9z M47.3,60.6
				c2.7,0,5.4,0,8.1,0c0.6,0,1.1-0.2,1.3-0.8c1.9-5.4,5.3-9.7,9.1-13.8c6-6.5,8.2-14.2,6.1-22.8c-1.3-5.5-4.3-10.1-8.6-13.7
				c-5.8-4.9-12.5-6.9-20.1-5.7c-7.1,1.2-12.4,5.1-16.5,10.9c-3.9,5.5-5.4,11.6-4.5,18.3c0.8,5.5,3.4,10,7.2,13.9
				c3.7,3.7,6.5,8,8.4,12.8c0.3,0.7,0.7,0.9,1.4,0.9C42,60.6,44.7,60.6,47.3,60.6z"/>
			<path fill="#E5E5E5" d="M47.4,65.4c3.7,0,7.4,0,11.1,0c1.8,0,2.6,0.8,2.7,2.6c0,2.9,0,5.8,0,8.6c0,2-0.5,2.6-2.4,3
				c-0.4,0.1-0.6,0.2-0.7,0.6c-0.3,1.4-1.3,1.9-2.6,1.8c-1.1-0.1-1.8,0.3-2.5,1.2c-2.8,3.9-8.7,3.7-11.3-0.4
				c-0.4-0.6-0.8-0.9-1.5-0.8c-1.5,0.1-2.8-0.2-3.2-2c-0.1-0.4-0.4-0.4-0.7-0.4c-1.7-0.3-2.5-1.1-2.5-2.9c0-3,0-6,0-8.9
				c0-1.6,0.9-2.5,2.6-2.5c1.9,0,3.8,0,5.6,0C43.7,65.4,45.6,65.4,47.4,65.4z M47.5,68.7L47.5,68.7c-3.1,0-6.3,0-9.4,0
				c-0.6,0-1.1,0-1.1,0.8c0,2,0,3.9,0,5.9c0,0.5,0.2,0.8,0.8,0.8c0.3,0,0.5,0,0.8,0c1.6,0,1.7-0.1,1.6,1.5c0,0.6,0.2,1,0.9,0.9
				c1.7-0.3,2.7,0.4,3.1,2c0,0,0,0.1,0,0.1c0.7,1.3,1.7,1.9,3.2,1.9c1.4,0,2.6-0.6,3-1.9c0.6-1.7,1.5-2.5,3.3-2.1
				c0.5,0.1,0.8-0.2,0.8-0.7c0.1-1.6,0.1-1.6,1.8-1.7c0.1,0,0.2,0,0.3,0c0.8,0.1,1.1-0.2,1.1-1c0-1.8,0-3.6,0-5.4
				c0-0.8-0.2-1.1-1.1-1.1C53.7,68.7,50.6,68.7,47.5,68.7z"/>
			<path fill="#E5E5E5" d="M6.9,51.9c-0.4,0-0.7-0.2-0.8-0.6c-0.2-0.5,0-0.9,0.4-1.1c1.1-0.6,2.2-1.3,3.3-1.9
				c3.2-1.8,6.4-3.6,9.6-5.5c0.5-0.3,1-0.6,1.4,0.2c0.4,0.7,0.1,1-0.5,1.3c-4,2.3-8.1,4.6-12.1,6.9C7.8,51.6,7.4,51.9,6.9,51.9z"/>
			<path fill="#E5E5E5" d="M7.1,5.1c0.1,0.1,0.4,0.1,0.6,0.3c4.4,2.5,8.7,5.1,13.1,7.6c0.5,0.3,0.9,0.5,0.5,1.2
				c-0.4,0.6-0.7,0.6-1.2,0.3c-2-1.2-4.1-2.3-6.1-3.5c-2.4-1.4-4.7-2.8-7.1-4.1C6.4,6.6,5.9,6.4,6.1,5.7C6.1,5.3,6.5,5.1,7.1,5.1z"
				/>
			<path fill="#E5E5E5" d="M8.7,28c2.4,0,4.9,0,7.3,0c0.5,0,1.1-0.1,1.1,0.8c0,0.8-0.5,0.9-1.1,0.9c-4.9,0-9.9,0-14.8,0
				c-0.6,0-1.2-0.1-1.2-0.9C0,28.1,0.6,28,1.2,28C3.7,28,6.2,28,8.7,28L8.7,28z"/>
			<path fill="#E5E5E5" d="M85.9,5.9c0,0.4-0.3,0.7-0.6,0.9C81.5,9,77.8,11.2,74,13.4c-0.7,0.4-0.9,0-1.3-0.5
				c-0.4-0.5-0.2-0.8,0.3-1.1c3.8-2.2,7.6-4.4,11.4-6.5C85.2,4.8,85.9,5.1,85.9,5.9z"/>
			<path fill="#E5E5E5" d="M86.1,51.1c0,0.7-0.7,1-1.4,0.6c-1.4-0.8-2.8-1.6-4.3-2.4c-2.2-1.3-4.3-2.5-6.5-3.8
				c-0.5-0.3-0.9-0.6-0.5-1.2c0.3-0.5,0.6-0.7,1.2-0.4c3.6,2.1,7.2,4.2,10.7,6.3C85.6,50.4,86.1,50.6,86.1,51.1z"/>
			<path fill="#E5E5E5" d="M84.7,29.7c-2,0-3.9,0-5.9,0c-0.6,0-1.1-0.1-1.1-0.8c0-0.8,0.5-0.8,1.1-0.8c4,0,8,0,12,0
				c0.6,0,1.2,0,1.2,0.8c0,0.8-0.6,0.8-1.2,0.8C88.8,29.7,86.7,29.7,84.7,29.7z"/>
			<path fill="#E5E5E5" d="M46.4,50.7c0-1.6,0-3.1,0-4.7c0-0.7-0.2-1.3-0.7-1.8c-2.5-2.5-5-5-7.5-7.6c-0.3-0.3-0.7-0.6-0.6-1.2
				c0.2-0.7,1-0.9,1.7-0.2c1.9,1.9,3.9,3.9,5.8,5.8c0.5,0.5,1,0.9,1.4,1.4c0.6,0.9,1,0.6,1.6,0c2.2-2.3,4.5-4.6,6.8-6.8
				c0.2-0.2,0.4-0.4,0.7-0.6c0.4-0.3,0.8-0.2,1.1,0.1c0.3,0.3,0.4,0.7,0.1,1.1c-0.2,0.3-0.4,0.5-0.7,0.7c-2.4,2.4-4.8,4.8-7.2,7.2
				c-0.5,0.5-0.7,1.1-0.7,1.8c0,3,0,6.1,0,9.1c0,0.4,0,0.7-0.1,1.1c-0.1,0.5-0.3,1-1,0.9c-0.6,0-0.8-0.5-0.8-1.1
				C46.4,54.3,46.4,52.5,46.4,50.7C46.4,50.7,46.4,50.7,46.4,50.7z"/>
		</g>
	</g>
	<g id="_x34_Ep2F6.tif_2_">
		<g>
			<path fill="#E5E5E5" d="M158.7,197.7c0-3.2,0-6.5,0-9.7c0-0.7-0.2-1-0.9-1.1c-0.3-0.1-0.7-0.2-1-0.3c-1.4-0.4-2-1.2-2-2.7
				c-0.1-3.3-0.5-6.6-0.8-9.9c-0.2-2.4-0.4-4.9-0.1-7.3c0.1-0.7,0.4-1,1-1.2c1.8-0.5,3.6-1.1,5.3-1.7c0.5-0.2,0.9,0,1.2,0.4
				c0.9,1.1,1.9,2.2,2.9,3.3c0.3,0.4,0.6,0.5,1,0c0.9-1.1,1.9-2.2,2.9-3.4c0.4-0.5,0.8-0.6,1.4-0.4c1.7,0.6,3.4,1.2,5.1,1.7
				c0.6,0.2,0.9,0.5,1,1.2c0.2,1.7,0.2,3.4,0,5c-0.3,3.4-0.6,6.8-0.9,10.3c-0.1,0.9-0.1,1.8-0.2,2.7c0,0.7-0.3,1.2-1,1.5
				c-0.6,0.3-1.3,0.6-2,0.7c-0.7,0.1-0.9,0.4-0.9,1.2c0,5.5,0,11,0,16.5c0,1,0,1.9,0,2.9c0,2.1-1.3,3.4-3.4,3.4c-1.7,0-3.3,0-5,0
				c-2.2,0-3.6-1.4-3.6-3.6C158.7,204.1,158.7,200.9,158.7,197.7z M161.3,196.3C161.3,196.3,161.3,196.3,161.3,196.3
				c0,3.5,0,7,0,10.6c0,1,0.2,1.2,1.2,1.2c1.6,0,3.2,0,4.8,0c1.2,0,1.5-0.3,1.5-1.5c0-1.8,0-3.6,0-5.4c0-5.1,0-10.2,0-15.3
				c0-0.6,0.2-1,0.8-1.1c0.6-0.1,1.1-0.2,1.7-0.3c0.7-0.1,0.9-0.5,1-1.2c0.2-2.8,0.5-5.6,0.7-8.5c0.2-2,0.2-3.9,0.4-5.9
				c0-0.7-0.2-1.2-0.9-1.3c-0.7-0.2-1.3-0.4-1.9-0.6c-0.6-0.3-1.1-0.1-1.5,0.4c-1.2,1.4-2.4,2.7-3.5,4.1c-0.4,0.5-0.7,0.6-1.2,0
				c-1.2-1.4-2.5-2.8-3.7-4.2c-0.4-0.4-0.7-0.6-1.2-0.4c-0.7,0.3-1.3,0.5-2,0.6c-0.8,0.2-1.1,0.5-1,1.3c0.1,4.9,0.7,9.8,1.1,14.7
				c0,0.4,0.3,0.6,0.6,0.7c0.7,0.2,1.4,0.3,2.2,0.4c0.7,0.1,1,0.4,1,1.2C161.3,189.3,161.3,192.8,161.3,196.3z"/>
			<path fill="#E5E5E5" d="M196.5,187.4c0-3.5,0-7,0-10.5c0-0.7,0.3-1,0.9-1.1c0.7-0.1,1.4-0.2,2.2-0.4c0.5-0.1,0.7-0.3,0.7-0.8
				c0.3-4,0.8-8,1-12c0-1,0.1-2,0.1-3c0-0.5-0.2-0.7-0.6-0.9c-0.9-0.3-1.7-0.5-2.5-0.8c-0.4-0.1-0.7,0-0.9,0.3
				c-1.2,1.5-2.5,2.9-3.8,4.3c-0.4,0.5-0.7,0.5-1.2,0c-1.2-1.4-2.4-2.8-3.6-4.2c-0.4-0.4-0.7-0.6-1.3-0.4c-0.4,0.1-0.8,0.2-1.1,0.4
				c-1,0.5-1.9,0.1-2.8-0.2c-0.2-0.1-0.4-0.2-0.2-0.5c0.5-0.8,0.8-1.7,2-1.9c1-0.2,2-0.6,3-0.9c0.6-0.2,0.9,0,1.3,0.4
				c0.9,1.1,1.8,2.1,2.6,3.2c0.4,0.6,0.7,0.5,1.1,0c0.9-1.1,1.9-2.2,2.8-3.3c0.3-0.4,0.6-0.5,1.1-0.3c1.8,0.6,3.7,1.2,5.6,1.7
				c0.6,0.2,0.8,0.5,0.9,1c0.3,1.8,0.2,3.6,0.1,5.3c-0.2,3.2-0.5,6.5-0.7,9.7c-0.1,1.1-0.1,2.1-0.2,3.2c0,0.5-0.3,0.9-0.7,1.2
				c-0.7,0.5-1.5,0.7-2.3,0.9c-0.7,0.1-0.8,0.4-0.8,1.1c0,6.3,0,12.5,0,18.8c0,2.6-1.4,4-4,4c-1.7,0-3.3,0-5,0
				c-2.2,0-3.9-1.7-3.9-3.8c0-4.5,0-9.1,0-13.6c0-0.7,0.2-1,0.9-1.2c0.3-0.1,0.6-0.2,0.9-0.3c1-0.4,1-0.4,1,0.7c0,4.6,0,9.3,0,13.9
				c0,1.4,0.2,1.6,1.6,1.6c1.5,0,3,0,4.5,0c1.3,0,1.4-0.1,1.4-1.5C196.5,194.3,196.5,190.8,196.5,187.4z"/>
			<path fill="#E5E5E5" d="M210.4,183c0-3.5,0-6.9,0-10.4c0-0.8,0.2-1.1,1-1.2c0.7-0.1,1.4-0.3,2.2-0.4c0.4-0.1,0.6-0.3,0.7-0.8
				c0.3-4,0.8-7.9,1-11.9c0-1,0.1-2,0.1-3c0-0.5-0.2-0.8-0.7-1c-0.8-0.2-1.7-0.5-2.5-0.8c-0.4-0.1-0.7,0-0.9,0.3
				c-1.2,1.5-2.5,2.9-3.8,4.3c-0.4,0.5-0.7,0.5-1.2,0c-1.2-1.4-2.4-2.8-3.6-4.2c-0.4-0.4-0.7-0.6-1.3-0.4c-0.4,0.1-0.8,0.2-1.1,0.4
				c-1,0.5-1.9,0.1-2.8-0.2c-0.2-0.1-0.4-0.2-0.3-0.4c0.4-0.6,0.6-1.5,1.5-1.8c1.2-0.3,2.4-0.7,3.5-1.1c0.5-0.2,0.8-0.1,1.2,0.4
				c0.9,1.1,1.8,2.1,2.7,3.2c0.6,0.7,0.6,0.7,1.2,0c0.9-1.1,1.8-2.2,2.7-3.3c0.3-0.4,0.6-0.5,1.1-0.3c1.9,0.6,3.8,1.2,5.6,1.7
				c0.6,0.2,0.8,0.5,0.9,1.1c0.3,1.8,0.2,3.5,0.1,5.3c-0.2,3.2-0.5,6.5-0.7,9.7c-0.1,1.1-0.1,2.2-0.2,3.3c0,0.5-0.3,0.9-0.7,1.2
				c-0.7,0.4-1.4,0.7-2.2,0.9c-0.7,0.1-0.9,0.4-0.9,1.1c0,6.3,0,12.6,0,18.9c0,2.5-1.4,3.8-3.8,3.8c-1.7,0-3.5,0-5.2,0
				c-2,0-3.7-1.5-3.8-3.6c-0.1-4.7,0-9.4,0-14.1c0-0.5,0.2-0.7,0.6-0.9c0.5-0.1,0.9-0.3,1.3-0.5c0.6-0.3,0.8-0.1,0.8,0.5
				c0,2.3,0,4.6,0,6.9c0,2.5,0,5,0,7.6c0,1.1,0.4,1.5,1.5,1.5c1.6,0,3.2,0,4.8,0c1,0,1.2-0.2,1.2-1.2c0-2.4,0-4.8,0-7.2
				C210.4,185.3,210.4,184.2,210.4,183z"/>
			<path fill="#E5E5E5" d="M175.1,186.8c0.2,0.5,0.1,1,0.1,1.4c0,4.6,0,9.2,0,13.8c0,1.3,0.3,1.6,1.6,1.6c1.5,0,3,0,4.5,0
				c1.3,0,1.3,0,1.3-1.4c0-5,0-10,0-15c0-2,0-4,0-6c0-0.6,0.2-0.8,0.8-0.9c0.8-0.1,1.7-0.3,2.5-0.5c0.4-0.1,0.7-0.3,0.7-0.7
				c0.4-4.8,0.9-9.6,1.1-14.4c0-1.2,0-1.2-1.2-1.6c-2.5-0.8-2.5-0.8-4.2,1.2c-0.8,0.9-1.6,1.9-2.4,2.8c-0.4,0.6-0.8,0.6-1.3,0
				c-1.2-1.4-2.5-2.8-3.7-4.2c-0.4-0.4-0.7-0.5-1.2-0.3c-0.3,0.1-0.7,0.2-1,0.3c-1.2,0.7-2.3,0.2-3.5-0.2c-0.2-0.1-0.4-0.2-0.3-0.4
				c0.3-0.5,0.5-1.2,1.2-1.4c1.6-0.5,3.1-1,4.7-1.5c0.4-0.1,0.6,0,0.9,0.3c0.9,1.1,1.9,2.2,2.8,3.4c0.4,0.5,0.6,0.6,1,0
				c0.9-1.2,1.9-2.3,2.8-3.4c0.3-0.3,0.5-0.4,0.9-0.3c1.9,0.6,3.9,1.2,5.8,1.8c0.6,0.2,0.8,0.6,0.9,1.1c0.1,0.7,0.2,1.4,0.2,2.1
				c-0.1,3.5-0.4,7.1-0.7,10.6c-0.2,1.7-0.3,3.4-0.4,5.1c0,1-0.4,1.5-1.2,1.9c-0.6,0.3-1.1,0.5-1.7,0.6c-0.7,0.1-0.9,0.4-0.9,1.1
				c0,6.3,0,12.7,0,19c0,0.9-0.2,1.8-0.7,2.5c-0.6,0.8-1.3,1.2-2.3,1.2c-2.1,0-4.1,0-6.2,0c-1.8,0-3.5-1.7-3.5-3.6
				c0-4.7,0-9.4,0-14.1c0-0.6,0.2-1,0.8-1.1C174,187.5,174.5,187.2,175.1,186.8z"/>
			<path fill="#E5E5E5" d="M212.1,141.2c-0.2,2.9-0.7,5.6-2.6,7.9c-1.5,1.8-3.6,1.9-5.3,0.3c-1.8-1.6-2.4-3.8-2.9-6
				c-0.3-1.3-0.4-2.7,0-4.1c0.5-2,1.6-3.2,3.6-3.6c2-0.4,4-0.2,5.6,1.2C211.8,138.1,212.2,139.6,212.1,141.2z M209.3,142.1
				c0-2.8-0.6-3.7-2.5-3.8c-2.1-0.1-3.2,0.2-3.1,2.7c0,1.6,0.4,3.2,1,4.6c0.2,0.4,0.3,0.7,0.6,1c1,1.3,1.6,1.3,2.5-0.1
				C208.9,145,209.3,143.3,209.3,142.1z"/>
			<path fill="#E5E5E5" d="M198.2,145.7c-0.2,2.9-0.7,5.6-2.7,7.9c-1.5,1.7-3.6,1.8-5.3,0.3c-1.8-1.6-2.5-3.7-2.9-6
				c-0.3-1.4-0.4-2.7,0-4.1c0.5-1.9,1.6-3.2,3.6-3.5c2-0.4,4-0.2,5.6,1.2C197.9,142.5,198.3,144,198.2,145.7z M195.5,146.4
				c0-2.7-0.5-3.5-2.4-3.6c-2.3-0.1-3.3,0.2-3.2,2.7c0,1.6,0.4,3.2,1.1,4.6c0.2,0.5,0.5,0.9,0.9,1.3c0.8,0.8,1.3,0.8,2-0.1
				C195,149.7,195.4,147.8,195.5,146.4z"/>
			<path fill="#E5E5E5" d="M173.5,150.3c0-2.1,0.3-3.7,1.9-4.9c1.6-1.2,4.8-1.3,6.7-0.1c1.8,1.1,2.7,3.1,2.4,5.4
				c-0.2,1.7-0.6,3.4-1.2,5c-0.4,1-1,1.8-1.7,2.5c-1.5,1.5-3.5,1.4-5.2-0.2c-1.7-1.6-2.3-3.8-2.8-6
				C173.6,151.4,173.5,150.7,173.5,150.3z M176.1,150c0,1.1,0.2,2.2,0.6,3.3c0.3,1,0.7,1.9,1.4,2.6c0.8,0.7,1.2,0.8,1.9-0.1
				c1.5-1.9,2-4.1,1.8-6.5c-0.1-1.3-0.7-1.8-2.1-2.1c-0.7-0.2-1.4,0-2,0.1c-0.9,0.1-1.4,0.6-1.5,1.5
				C176.1,149.2,176.1,149.6,176.1,150z"/>
			<path fill="#E5E5E5" d="M159.2,154.6c-0.1-2,0.3-3.7,2-4.8c3-2.1,8.1-0.5,8.8,2.8c0.7,3.7-0.1,7.1-2.7,10c-1.4,1.6-3.4,1.5-5,0
				c-1.7-1.6-2.4-3.8-2.9-6C159.2,155.9,159.2,155.2,159.2,154.6z M161.8,154.3c-0.1,0.7,0,1.3,0.2,2c0.3,1.5,0.7,3,1.9,4.2
				c0.7,0.7,1.2,0.6,1.8-0.2c1.4-1.9,1.9-4.1,1.8-6.4c-0.1-1.4-0.7-1.9-2-2.2c-0.7-0.1-1.4-0.1-2,0c-1.1,0.2-1.5,0.7-1.6,1.8
				C161.8,153.7,161.8,154,161.8,154.3z"/>
		</g>
	</g>
	<g id="bNagF1.tif_2_">
		<g>
			<path fill="#69B8E8" d="M180.4,54.6c-0.2,2.7-0.4,5.4-0.6,8.1c-0.1,1.8,0.3,3.4,1.4,4.8c1.7,2.3,3.4,4.7,4.9,7.1
				c2.7,4.3,2.6,8.7,0.1,13.1c-1,1.7-2.1,3.5-3.4,5c-3,3.3-3.4,7-2.7,11.1c0.4,2.1,0.4,4.2,0.3,6.3c-0.3,3.9-2,7.1-5.6,8.9
				c-2.6,1.4-5.4,2.5-8.1,3.7c-3.5,1.6-6.3,7.1-5.4,10.9c3.9,18,7.9,36.1,11.8,54.1c0.1,0.5,0.2,1.1,0.3,1.6
				c0.3,1.8-0.1,3.3-1.6,4.3c-1.5,1.1-3,0.8-4.6-0.1c-6-3.6-12.1-7.1-18.2-10.6c-8.7-5.1-17.4-10.1-26-15.2c-1.2-0.7-2.2-0.7-3.4,0
				C105.8,176,92,184,78.2,192.1c-0.9,0.5-1.8,1-2.6,1.5c-1.6,1-3.2,1.4-4.8,0.2c-1.6-1.2-2.1-2.8-1.7-4.8c1.5-6.9,3-13.9,4.5-20.8
				c2.5-11.5,5-23,7.5-34.5c0.9-4.1-1.7-9.3-5.6-11c-1.4-0.6-2.7-1.1-4.1-1.7c-7.9-3.4-10.4-7.9-9.2-16.5c0.2-1.2,0.2-2.5,0.4-3.7
				c0.3-2.5-0.4-4.7-2-6.8c-1.6-2.2-3.3-4.3-4.6-6.7c-2.3-4.2-2.1-8.4,0.2-12.5c1-1.7,2-3.4,3.3-4.8c3.1-3.3,3.5-7.1,2.9-11.3
				c-0.1-0.8-0.3-1.7-0.3-2.6c-0.4-7.8,1.6-11.6,8.9-14.3c5.6-2.1,8.9-5.5,10.9-11.1c2.6-7.2,7.9-9.9,15.4-8.5
				c5.2,1,9.7,0.4,13.6-3.4c0.9-0.9,2.1-1.6,3.2-2.3c4.9-3,9.7-2.9,14.5,0.2c1,0.7,2.2,1.3,3,2.2c3.7,3.8,8.3,4.1,13.2,3.3
				c8.3-1.3,12.8,1.4,16,9.1c0.1,0.1,0.1,0.3,0.2,0.4c1.3,4.8,4.1,8.1,9.1,9.4c1.3,0.3,2.5,1,3.6,1.6
				C178.5,45.5,180.8,49.3,180.4,54.6z M95,30.3c-3.6-0.2-4.7,0.3-6.1,4.7c-2.3,7.3-6.9,12-14.3,14c-0.3,0.1-0.6,0.2-0.9,0.4
				c-3.4,1.6-4.2,2.9-3.5,6.7c1.2,6.9,0.8,13.2-4,18.9c-5.2,6.1-5,6.9,0.1,13.2c3.8,4.7,5.3,9.9,4.2,15.9c-1.3,7.3-0.9,7.9,6.1,10.5
				c5.8,2.2,9.6,5.9,11.6,11.8c2.1,6.3,3.3,6.8,9.8,5.8c6.4-1,12.1,0.1,17,4.6c1,0.9,2.1,1.6,3.2,2.3c2,1.4,4.1,1.3,6.1,0
				c0.9-0.6,1.9-1.2,2.7-1.9c5.4-5.1,11.7-6.3,18.9-4.9c4.4,0.9,6,0.3,7.4-4c2.5-7.6,7.3-12.6,15-15c4.2-1.3,4.8-2.9,3.9-7.2
				c-1.4-7.3-0.4-13.8,4.9-19.3c0.7-0.7,1.2-1.6,1.8-2.5c1.4-1.9,1.4-3.8,0.2-5.9c-1.1-1.7-2.3-3.3-3.6-4.9c-3-3.9-4.4-8.2-3.8-13.1
				c0.2-1.7,0.5-3.4,0.7-5.1c0.4-3-0.2-4.3-2.9-5.7c-1.4-0.7-2.8-1.4-4.3-1.9c-5.4-1.8-8.8-5.5-10.8-10.9c-2.7-7.4-3.3-7.6-11-6.4
				c-5,0.7-9.8,0.3-13.9-3.1c-1.6-1.3-3.4-2.5-5.1-3.7c-2.2-1.5-4.3-1.6-6.5,0c-1.7,1.2-3.4,2.5-5.1,3.8c-3.1,2.3-6.5,3.6-10.5,3.3
				C100,30.6,97.5,30.5,95,30.3z M163.8,182.6c-1.2-5.5-2.2-10.4-3.3-15.4c-1.9-8.6-3.8-17.2-5.6-25.8c-0.2-1-0.4-2.1-1.9-1.6
				c-3.3,1.2-6.6,0.7-9.9,0.1c-3.7-0.6-6.9-0.1-9.8,2.4c-1.8,1.5-3.8,2.8-5.8,4c-3.7,2.1-7.5,2.4-11.4,0.5c-2.1-1-4.1-2.3-5.8-3.9
				c-3.3-2.9-6.9-3.8-11.2-3c-3,0.6-6.1,0.7-9-0.1c-1.6-0.5-2,0.1-2.3,1.5c-2,9.3-4,18.6-6,27.9c-0.9,4.2-1.8,8.5-2.8,13.2
				c1.6-0.9,2.8-1.6,3.9-2.2c11.4-6.7,22.9-13.3,34.3-20.1c3.2-1.9,5.7-1.8,8.8,0.1c9.3,5.6,18.7,11,28,16.5
				C156.9,178.7,160.1,180.5,163.8,182.6z"/>
			<path fill="#69B8E8" d="M168.7,81.4c0.1,25.2-19.9,47.6-47.8,47.4c-27.1-0.2-47.4-22.3-47-48.1c0.4-25,20-46.7,47.5-46.7
				C149.4,34.1,168.8,56.8,168.7,81.4z M162.4,81.4c0-23-18.3-41.3-41.3-41.3c-22.5,0-40.8,18.4-41.1,41
				c-0.3,22.1,17.5,41.5,41,41.6C144.1,122.8,162.4,104.4,162.4,81.4z"/>
			<path fill="#69B8E8" d="M143.6,70.1c-0.1,1.3-0.7,2.4-1.6,3.3c-7.3,7.3-14.5,14.6-21.8,21.8c-2.2,2.1-4.4,2.1-6.6,0
				c-4.3-4.3-8.6-8.6-12.9-12.9c-1.6-1.6-2.5-3.4-1.3-5.7c1.3-2.3,4.2-2.6,6.4-0.5c3.3,3.1,6.5,6.3,9.6,9.6c1.2,1.3,2,1.2,3.2,0
				c5.8-6,11.8-11.8,17.7-17.7c2-1.9,3.9-2.3,5.6-1.2C143.1,67.5,143.5,68.7,143.6,70.1z"/>
		</g>
	</g>
</g>
</svg>
