<?xml version="1.0" encoding="utf-8"?>
<!-- Generator: Adobe Illustrator 18.0.0, SVG Export Plug-In . SVG Version: 6.00 Build 0)  -->
<!DOCTYPE svg PUBLIC "-//W3C//DTD SVG 1.1//EN" "http://www.w3.org/Graphics/SVG/1.1/DTD/svg11.dtd">
<svg version="1.1" id="Capa_1" xmlns="http://www.w3.org/2000/svg" xmlns:xlink="http://www.w3.org/1999/xlink" x="0px" y="0px"
	 viewBox="0 0 203.9 203.9" enable-background="new 0 0 203.9 203.9" xml:space="preserve">
<g>
	<g id="surface1_2_">
		<path fill="#595958" d="M13.6,203.9h163.1c7.5,0,13.6-6.1,13.6-13.6v-10.2c0-1.9-1.5-3.4-3.4-3.4h-6.8v-54.4h-6.8v54.4h-6.8v-54.4
			h-6.8v54.4h-43.4c-3.6,0-6.9,2-8.5,5.3c-0.5,0.9-1.4,1.5-2.5,1.5H85.7c-1,0-2-0.6-2.5-1.5c-1.6-3.2-4.9-5.3-8.5-5.3H30.6V91.7
			c0-1.9,1.5-3.4,3.4-3.4h61.2v-6.8H34c-5.6,0-10.2,4.6-10.2,10.2v84.9H17V84.9c0-5.6,4.6-10.2,10.2-10.2h68V68h-68
			c-9.4,0-17,7.6-17,17v91.7H3.4c-1.9,0-3.4,1.5-3.4,3.4v10.2C0,197.8,6.1,203.9,13.6,203.9z M6.8,183.5h68c1,0,2,0.6,2.5,1.5
			c1.6,3.2,4.9,5.3,8.5,5.3h19.6c3.6,0,6.9-2,8.5-5.3c0.5-0.9,1.4-1.5,2.5-1.5h67.2v6.8c0,3.8-3,6.8-6.8,6.8H13.6
			c-3.8,0-6.8-3-6.8-6.8V183.5z"/>
		<path fill="#595958" d="M44.2,125.7v27.2c0,1.9,1.5,3.4,3.4,3.4h95.1c1.9,0,3.4-1.5,3.4-3.4v-27.2c0-1.9-1.5-3.4-3.4-3.4H47.6
			C45.7,122.3,44.2,123.8,44.2,125.7z M51,129.1h88.3v20.4H51V129.1z"/>
		<path fill="#595958" d="M57.8,135.9h6.8v6.8h-6.8V135.9z"/>
		<path fill="#595958" d="M71.4,135.9h6.8v6.8h-6.8V135.9z"/>
		<path fill="#595958" d="M84.9,135.9h6.8v6.8h-6.8V135.9z"/>
		<path fill="#595958" d="M98.5,135.9h6.8v6.8h-6.8V135.9z"/>
		<path fill="#595958" d="M193.7,51.1V40.8c0-22.5-18.3-40.8-40.8-40.8s-40.8,18.3-40.8,40.8v10.3c-5.8,0.6-10.2,5.5-10.2,11.3v41.7
			c0,6.3,5.1,11.4,11.4,11.4h79.1c6.3,0,11.4-5.1,11.4-11.4V62.4C203.9,56.6,199.5,51.7,193.7,51.1z M118.9,40.8
			c0-18.8,15.2-34,34-34s34,15.2,34,34V51h-6.8V40.8c0-15-12.2-27.2-27.2-27.2c-15,0-27.2,12.2-27.2,27.2V51h-6.8V40.8z M132.5,51
			V40.8c0-11.3,9.1-20.4,20.4-20.4c11.3,0,20.4,9.1,20.4,20.4V51H132.5z M197.1,104.1c0,2.6-2.1,4.6-4.6,4.6h-79.1
			c-2.6,0-4.6-2.1-4.6-4.6V62.4c0-2.6,2.1-4.6,4.6-4.6h79.1c2.6,0,4.6,2.1,4.6,4.6V104.1z"/>
		<path fill="#595958" d="M152.9,71.4c-5,0-9.2,3.6-10,8.4c-0.8,4.9,2,9.7,6.6,11.3v7.4h6.8v-7.4c4.7-1.6,7.5-6.4,6.6-11.3
			C162.1,74.9,157.9,71.3,152.9,71.4z M152.9,84.9c-1.9,0-3.4-1.5-3.4-3.4s1.5-3.4,3.4-3.4s3.4,1.5,3.4,3.4S154.8,84.9,152.9,84.9z"
			/>
		<path fill="#595958" d="M61.2,54.4H68v6.8h-6.8V54.4z"/>
		<path fill="#595958" d="M61.2,40.8H68v6.8h-6.8V40.8z"/>
		<path fill="#595958" d="M61.2,27.2H68V34h-6.8V27.2z"/>
		<path fill="#595958" d="M61.2,13.6H68v6.8h-6.8V13.6z"/>
		<path fill="#595958" d="M74.8,13.6h6.8v6.8h-6.8V13.6z"/>
		<path fill="#595958" d="M88.3,13.6h6.8v6.8h-6.8V13.6z"/>
		<path fill="#595958" d="M101.9,13.6h6.8v6.8h-6.8V13.6z"/>
	</g>
</g>
</svg>
