<?xml version="1.0" encoding="utf-8"?>
<!-- Generator: Adobe Illustrator 18.0.0, SVG Export Plug-In . SVG Version: 6.00 Build 0)  -->
<!DOCTYPE svg PUBLIC "-//W3C//DTD SVG 1.1//EN" "http://www.w3.org/Graphics/SVG/1.1/DTD/svg11.dtd">
<svg version="1.1" id="Capa_1" xmlns="http://www.w3.org/2000/svg" xmlns:xlink="http://www.w3.org/1999/xlink" x="0px" y="0px"
	 viewBox="0 0 17.6 25" enable-background="new 0 0 17.6 25" xml:space="preserve">
<g>
	<path fill="#CBCBCB" d="M1,1c0.7-0.7,1.5-1,2.5-1c1,0,1.8,0.3,2.5,1l11.5,11.4L6.1,24c-0.3,0.4-0.7,0.6-1.2,0.8
		C4.5,24.9,4,25,3.6,25c-0.5,0-0.9-0.1-1.4-0.3C1.8,24.6,1.4,24.3,1,24c-0.7-0.7-1-1.5-1-2.5c0-1,0.3-1.8,1-2.5l6.4-6.4L1,6.1
		C0.3,5.4,0,4.5,0,3.6S0.3,1.7,1,1z"/>
</g>
</svg>
