<?xml version="1.0" encoding="utf-8"?>
<!-- Generator: Adobe Illustrator 18.0.0, SVG Export Plug-In . SVG Version: 6.00 Build 0)  -->
<!DOCTYPE svg PUBLIC "-//W3C//DTD SVG 1.1//EN" "http://www.w3.org/Graphics/SVG/1.1/DTD/svg11.dtd">
<svg version="1.1" id="Capa_1" xmlns="http://www.w3.org/2000/svg" xmlns:xlink="http://www.w3.org/1999/xlink" x="0px" y="0px"
	 viewBox="0 0 103.1 103.1" enable-background="new 0 0 103.1 103.1" xml:space="preserve">
<g>
	<g>
		<g>
			<path fill="#595958" d="M101.4,92.8h-5.2V60.2c0-0.9-0.8-1.7-1.7-1.7c-0.6,0-1.1,0.3-1.4,0.7L69.1,93.5c-0.5,0.8-0.4,1.8,0.4,2.4
				c0.3,0.2,0.6,0.3,1,0.3h22.3v5.2c0,0.9,0.8,1.7,1.7,1.7c0.9,0,1.7-0.8,1.7-1.7v-5.2h5.2c0.9,0,1.7-0.8,1.7-1.7
				C103.1,93.6,102.4,92.8,101.4,92.8z M92.8,92.8h-19l19-27.2V92.8z"/>
			<path fill="#595958" d="M70.5,99.7H50.1L69,77.4c0-0.1,0.1-0.1,0.1-0.2c3.6-5.3,2.4-12.4-2.7-16.2c-6.2-4.4-14.8-3-19.2,3.1
				c-1.7,2.3-2.6,5.1-2.6,8c0,0.9,0.8,1.7,1.7,1.7s1.7-0.8,1.7-1.7c0-5.7,4.6-10.3,10.3-10.3c2.2,0,4.3,0.7,6,1.9
				c3.6,2.7,4.4,7.7,1.9,11.5l-21.2,25c-0.6,0.7-0.5,1.8,0.2,2.4c0.3,0.3,0.7,0.4,1.1,0.4h24.1c0.9,0,1.7-0.8,1.7-1.7
				C72.2,100.5,71.4,99.7,70.5,99.7z"/>
			<path fill="#595958" d="M46.4,91.1c0-0.9-0.7-1.7-1.7-1.8c0,0,0,0,0,0C22.4,88.5,4.4,70.5,3.5,48.1h6.8c0.9,0,1.7-0.8,1.7-1.7
				s-0.8-1.7-1.7-1.7H3.5C4.4,22.3,22.3,4.4,44.7,3.5v5.1c0,0.9,0.8,1.7,1.7,1.7s1.7-0.8,1.7-1.7V3.5C70.2,4.4,88,21.8,89.3,43.9
				l-6.7-6.7c-0.7-0.7-1.8-0.6-2.4,0c-0.6,0.7-0.6,1.7,0,2.4l9.6,9.6c0.2,0.2,0.4,0.4,0.7,0.5c0.1,0,0.1,0,0.2,0
				c0.1,0,0.2,0.1,0.4,0.1c0,0,0,0,0,0c0,0,0,0,0,0c0.1,0,0.3,0,0.4-0.1c0.1,0,0.1,0,0.2,0c0.2-0.1,0.4-0.2,0.6-0.4l9.7-9.7
				c0.7-0.7,0.6-1.8,0-2.4c-0.7-0.6-1.7-0.6-2.4,0l-6.9,6.9c-1.2-24.6-21.5-44-46.2-44c0,0-0.1,0-0.1,0c0,0-0.1,0-0.1,0
				C20.7,0.1,0.1,20.7,0,46.3c0,0,0,0.1,0,0.1c0,0,0,0.1,0,0.1c0,24.9,19.8,45.3,44.6,46.3h0.1C45.6,92.8,46.4,92,46.4,91.1z"/>
			<path fill="#595958" d="M69.5,23.3c-0.7-0.7-1.8-0.7-2.4,0L48.6,41.8c-1.4-0.6-3-0.6-4.4,0L35.5,33c-0.7-0.7-1.8-0.6-2.4,0
				c-0.6,0.7-0.6,1.7,0,2.4l8.7,8.7c-1.2,2.6-0.1,5.6,2.4,6.9c2,0.9,4.3,0.5,5.9-1c1.6-1.5,2-3.9,1-5.9l18.5-18.5
				C70.2,25.1,70.2,24,69.5,23.3z M47.6,47.6C47.6,47.6,47.6,47.6,47.6,47.6c-0.7,0.7-1.8,0.7-2.4,0c-0.7-0.7-0.7-1.8,0-2.4
				c0.7-0.7,1.8-0.7,2.4,0C48.3,45.9,48.3,46.9,47.6,47.6z"/>
		</g>
	</g>
</g>
</svg>
