<?xml version="1.0" encoding="utf-8"?>
<!-- Generator: Adobe Illustrator 18.0.0, SVG Export Plug-In . SVG Version: 6.00 Build 0)  -->
<!DOCTYPE svg PUBLIC "-//W3C//DTD SVG 1.1//EN" "http://www.w3.org/Graphics/SVG/1.1/DTD/svg11.dtd">
<svg version="1.1" id="Capa_1" xmlns="http://www.w3.org/2000/svg" xmlns:xlink="http://www.w3.org/1999/xlink" x="0px" y="0px"
	 viewBox="90 0 612 612" enable-background="new 90 0 612 612" xml:space="preserve">
<g id="Capa_2">
	<g>
		<path fill="#333333" d="M397.3,612c-42.8,0-83.1-7.6-118.4-22.7c-35.3-15.1-70.5-37.8-98.2-65.5c-27.7-27.7-50.4-60.4-65.5-98.2
			C97.6,387.9,90,347.6,90,307.3c0-42.8,7.6-83.1,22.7-118.4c15.1-37.8,37.8-70.5,65.5-98.2s60.4-50.4,98.2-65.5
			C314.1,7.6,354.4,0,397.3,0s83.1,7.6,118.4,22.7c37.8,15.1,70.5,37.8,98.2,65.5c27.7,27.7,50.4,60.4,65.5,98.2
			c15.1,37.8,22.7,78.1,22.7,118.4c0,42.8-7.6,83.1-22.7,118.4c-15.1,37.8-37.8,70.5-65.5,98.2c-27.7,27.7-60.4,50.4-98.2,65.5
			C477.9,604.4,437.6,612,397.3,612z M397.3,57.9c-35.3,0-65.5,7.6-95.7,20.1c-32.7,12.6-57.9,30.2-80.6,52.9s-40.3,47.9-52.9,78.1
			c-12.6,30.2-20.1,63-20.1,95.7c0,35.3,7.6,65.5,20.1,95.7c12.6,30.2,30.2,57.9,52.9,78.1c22.7,22.7,47.9,40.3,78.1,52.9
			c30.2,12.6,63,20.1,95.7,20.1s65.5-7.6,95.7-20.1c30.2-12.6,57.9-30.2,78.1-52.9c22.7-22.7,40.3-47.9,52.9-78.1
			c12.6-30.2,20.1-63,20.1-95.7c0-35.3-7.6-65.5-20.1-95.7c-12.6-30.2-30.2-57.9-52.9-78.1c-22.7-22.7-47.9-40.3-78.1-52.9
			C462.7,63,430,57.9,397.3,57.9z M374.6,307.3l115.9,115.9L437.6,476L266.3,307.3L437.6,136l52.9,52.9L374.6,307.3z"/>
	</g>
</g>
<g id="Capa_1_1_">
</g>
<g id="Capa_3">
</g>
</svg>
