<?xml version="1.0" encoding="utf-8"?>
<!-- Generator: Adobe Illustrator 18.0.0, SVG Export Plug-In . SVG Version: 6.00 Build 0)  -->
<!DOCTYPE svg PUBLIC "-//W3C//DTD SVG 1.1//EN" "http://www.w3.org/Graphics/SVG/1.1/DTD/svg11.dtd">
<svg version="1.1" xmlns="http://www.w3.org/2000/svg" xmlns:xlink="http://www.w3.org/1999/xlink" x="0px" y="0px"
	 viewBox="0 0 24.3 24.3" enable-background="new 0 0 24.3 24.3" xml:space="preserve">
<g id="Capa_2">
	<g>
		<path fill="#FFFFFF" d="M12.2,24.3c-1.7,0-3.3-0.3-4.7-0.9s-2.8-1.5-3.9-2.6c-1.1-1.1-2-2.4-2.6-3.9C0.3,15.4,0,13.8,0,12.2
			c0-1.7,0.3-3.3,0.9-4.7c0.6-1.5,1.5-2.8,2.6-3.9c1.1-1.1,2.4-2,3.9-2.6C8.9,0.3,10.5,0,12.2,0s3.3,0.3,4.7,0.9
			c1.5,0.6,2.8,1.5,3.9,2.6c1.1,1.1,2,2.4,2.6,3.9c0.6,1.5,0.9,3.1,0.9,4.7c0,1.7-0.3,3.3-0.9,4.7c-0.6,1.5-1.5,2.8-2.6,3.9
			c-1.1,1.1-2.4,2-3.9,2.6C15.4,24,13.8,24.3,12.2,24.3z M12.2,2.3c-1.4,0-2.6,0.3-3.8,0.8C7.1,3.6,6.1,4.3,5.2,5.2
			C4.3,6.1,3.6,7.1,3.1,8.3c-0.5,1.2-0.8,2.5-0.8,3.8c0,1.4,0.3,2.6,0.8,3.8c0.5,1.2,1.2,2.3,2.1,3.1c0.9,0.9,1.9,1.6,3.1,2.1
			c1.2,0.5,2.5,0.8,3.8,0.8s2.6-0.3,3.8-0.8c1.2-0.5,2.3-1.2,3.1-2.1c0.9-0.9,1.6-1.9,2.1-3.1c0.5-1.2,0.8-2.5,0.8-3.8
			c0-1.4-0.3-2.6-0.8-3.8c-0.5-1.2-1.2-2.3-2.1-3.1c-0.9-0.9-1.9-1.6-3.1-2.1C14.8,2.5,13.5,2.3,12.2,2.3z M11.3,12.2l4.6,4.6
			l-2.1,2.1L7,12.2l6.8-6.8l2.1,2.1L11.3,12.2z"/>
	</g>
</g>
<g id="Capa_1">
</g>
<g id="Capa_3">
</g>
</svg>
