<?xml version="1.0" encoding="utf-8"?>
<!-- Generator: Adobe Illustrator 18.0.0, SVG Export Plug-In . SVG Version: 6.00 Build 0)  -->
<!DOCTYPE svg PUBLIC "-//W3C//DTD SVG 1.1//EN" "http://www.w3.org/Graphics/SVG/1.1/DTD/svg11.dtd">
<svg version="1.1" id="Capa_1" xmlns="http://www.w3.org/2000/svg" xmlns:xlink="http://www.w3.org/1999/xlink" x="0px" y="0px"
	 viewBox="0 0 82.6 96.5" enable-background="new 0 0 82.6 96.5" xml:space="preserve">
<g>
	<g>
		<g>
			<path fill="#FFFFFF" d="M43.8,6.1h-1.1V5c0-0.8-0.6-1.4-1.4-1.4c-0.8,0-1.4,0.6-1.4,1.4v1.1h-1.1c-0.8,0-1.4,0.6-1.4,1.4
				c0,0.8,0.6,1.4,1.4,1.4h1.1V10c0,0.8,0.6,1.4,1.4,1.4c0.8,0,1.4-0.6,1.4-1.4V8.9h1.1c0.8,0,1.4-0.6,1.4-1.4
				C45.2,6.7,44.6,6.1,43.8,6.1z"/>
		</g>
	</g>
	<g>
		<g>
			<path fill="#FFFFFF" d="M82.6,91.6l-4.1-24.1c-0.4-2.6-2.3-4.7-4.8-5.5l-18.5-5.6c-0.8-0.2-1.7-0.1-2.4,0.2
				c-0.7-0.6-1.1-1.6-1.1-2.5v-4.6c0,0,0.1-0.1,0.1-0.1c0.1-0.1,0.1-0.1,0.2-0.2h1.8c2.5,0,4.8-1,6.6-2.8c1.7-1.8,2.6-4.2,2.4-6.7
				l-0.5-7.9v-0.1c0-0.2,0-0.4,0-0.6l-0.6-8.9c0-0.8-0.7-1.4-1.5-1.3c-0.8,0-1.4,0.7-1.3,1.5l0.3,5.3c-0.4-0.1-0.8-0.2-1.2-0.2H58
				c-0.4-0.6-1.1-1.1-1.9-1.1c-14.6-1.3-18.8-5.7-21.9-8.9c-0.6-0.7-1.7-0.7-3.1-0.2c-2.5,1-6.7,4.1-6.8,9.8c0,0,0,0,0,0v0.4
				c-0.3,0-0.6,0.1-0.8,0.1l0.4-6.9c0.2-3.7,2.1-6.9,5-9L29,12c0.7,1.8,2.5,3.1,4.5,3.1h16.1c2,0,3.8-1.2,4.5-3.1l0-0.1
				c1.5,1.1,2.7,2.6,3.6,4.4c0.2,0.5,0.7,0.8,1.3,0.8c0.2,0,0.4,0,0.6-0.1c0.7-0.3,1-1.2,0.7-1.9c-1.1-2.4-2.9-4.4-5.1-5.9l1-2.5
				c0.4-1,0.3-2-0.2-2.9c-0.5-0.9-1.4-1.5-2.4-1.7l-8.1-1.6c-2.6-0.5-5.2-0.5-7.8,0L29.5,2c-1,0.2-1.9,0.8-2.4,1.7s-0.6,2-0.2,2.9
				l0.9,2.3c-4,2.5-6.5,6.7-6.8,11.5l-0.7,10.5c0,0.2,0,0.4,0,0.6v0.1l-0.5,7.9c-0.2,2.5,0.7,4.9,2.4,6.7c1.7,1.8,4,2.8,6.6,2.8h1.8
				c0.1,0.1,0.2,0.1,0.2,0.2c0,0,0.1,0.1,0.1,0.1v4.6c0,0.9-0.5,1.9-1.1,2.5c-0.7-0.4-1.5-0.5-2.4-0.2L9,62.1
				c-2.5,0.8-4.4,2.9-4.8,5.5l-1.5,9.1c-0.1,0.8,0.4,1.5,1.2,1.6c0.8,0.1,1.5-0.4,1.6-1.2L7,68c0.3-1.6,1.4-2.8,2.9-3.3l18.5-5.6
				c0.1,0,0.2,0,0.3,0.1c0,0,0,0,0,0l8.8,17.4c0.2,0.5,0.5,0.9,0.9,1.2c0.8,0.7,1.8,1.2,3,1.2c0.7,0,1.4-0.2,2-0.5
				c0.8-0.4,1.4-1.1,1.9-1.9L54,59.3c0.1-0.1,0.2-0.2,0.3-0.1l18.5,5.6c1.5,0.5,2.6,1.7,2.9,3.3l4.1,24.1c0.1,0.5-0.1,0.9-0.3,1.1
				c-0.1,0.2-0.5,0.5-1,0.5h-8.7l-2.3-13.5c-0.1-0.8-0.9-1.3-1.6-1.2c-0.8,0.1-1.3,0.9-1.2,1.6l2.2,13H15.7l2.2-13
				c0.1-0.8-0.4-1.5-1.2-1.6c-0.8-0.1-1.5,0.4-1.6,1.2l-2.3,13.5H4.1c-0.5,0-0.9-0.3-1-0.5C3,93,2.7,92.6,2.8,92.1l1.4-8.4
				c0.1-0.8-0.4-1.5-1.2-1.6c-0.8-0.1-1.5,0.4-1.6,1.2l-1.4,8.4C-0.1,92.8,0.2,94.1,1,95s1.9,1.5,3.2,1.5c0,0,0,0,0,0h74.4
				c1.2,0,2.4-0.5,3.2-1.5C82.4,94.1,82.8,92.8,82.6,91.6z M29.6,5.1c0.1-0.1,0.2-0.3,0.5-0.3l8.1-1.6c1.1-0.2,2.2-0.3,3.3-0.3
				c1.1,0,2.2,0.1,3.3,0.3l8.1,1.6c0,0,0,0,0,0c0.3,0.1,0.4,0.2,0.5,0.3c0.1,0.1,0.1,0.3,0,0.6l-2,5.3c-0.3,0.8-1,1.3-1.9,1.3H33.5
				c-0.8,0-1.6-0.5-1.9-1.3l-2-5.3C29.5,5.5,29.5,5.2,29.6,5.1z M60,39.9c0.1,1.7-0.5,3.4-1.7,4.6c-1,1-2.2,1.7-3.6,1.9
				c1.5-1.9,3.1-4.5,3.5-7.3c0.6,0,1.1-0.2,1.6-0.4L60,39.9z M24.3,44.5c-1.2-1.3-1.8-2.9-1.7-4.6l0.1-1.3c0.5,0.2,1.1,0.4,1.6,0.4
				c0.4,2.9,1.9,5.4,3.5,7.3C26.5,46.2,25.3,45.5,24.3,44.5z M42.8,75.1l-0.2,0.3c0,0-0.1,0.1-0.1,0.1c0,0,0,0,0,0c0,0,0,0-0.1,0.1
				c-0.1,0.1-0.1,0.2-0.2,0.2c0,0,0,0-0.1,0c-0.3,0.2-0.6,0.3-0.9,0.3c-0.6,0-1.1-0.3-1.4-0.8l-5.8-11.6h14.4L42.8,75.1z M49.9,61.1
				H32.7L31.6,59c1.3-1.1,2.2-2.9,2.2-4.7v-2.4c1.8,1.2,4.2,2.1,7.5,2.1c0,0,0,0,0,0c0,0,0,0,0,0c3.3,0,5.6-1,7.5-2.1v2.4
				c0,1.8,0.9,3.6,2.2,4.7L49.9,61.1z M49.9,47.4c-2.6,2.2-4.6,3.7-8.6,3.8c-4,0-6-1.5-8.6-3.8c-3.5-3-5.6-6.6-5.6-9.7
				c0-0.8-0.6-1.4-1.4-1.4h-1.1c-0.8,0-1.4-0.6-1.4-1.4v-3.1c0-0.1,0-0.1,0-0.2c0,0,0,0,0-0.1c0.1-0.7,0.7-1.2,1.4-1.2h1.1
				c0.8,0,1.4-0.6,1.4-1.4v-1.7c0.1-4.8,4.1-7,5.4-7.3c4.1,4.2,9.2,8,23.1,9.3c0.1,0.7,0.7,1.2,1.4,1.2H58c0.7,0,1.3,0.5,1.4,1.2
				c0,0,0,0,0,0.1c0,0.1,0,0.1,0,0.2v3.1c0,0.8-0.6,1.4-1.4,1.4H57c-0.8,0-1.4,0.6-1.4,1.4C55.5,40.7,53.4,44.4,49.9,47.4z"/>
		</g>
	</g>
</g>
</svg>
