<?xml version="1.0" encoding="utf-8"?>
<!-- Generator: Adobe Illustrator 18.0.0, SVG Export Plug-In . SVG Version: 6.00 Build 0)  -->
<!DOCTYPE svg PUBLIC "-//W3C//DTD SVG 1.1//EN" "http://www.w3.org/Graphics/SVG/1.1/DTD/svg11.dtd">
<svg version="1.1" id="Capa_1" xmlns="http://www.w3.org/2000/svg" xmlns:xlink="http://www.w3.org/1999/xlink" x="0px" y="0px"
	 viewBox="0 0 114 114" enable-background="new 0 0 114 114" xml:space="preserve">
<g>
	<g>
		<g>
			<path fill="#F6921E" d="M99.3,77.2h-2.5c3.8-3,6.2-7.7,6.2-12.9V57c0-7.1-5.8-12.9-12.9-12.9h-7.4c-2,0-3.8,0.5-5.5,1.3v-16h-3.7
				v-7.4h3.7V0H0v22.1h3.7v7.4H0v22.1h3.7v7.4H0v22.1h63.9c-3.1,2.7-5,6.6-5,11V114h12.9h1.8h25.7h1.8H114V91.9
				C114,83.8,107.4,77.2,99.3,77.2z M97.1,85.3l-7.5,3.2l5.1-7.6H96L97.1,85.3z M82.5,80.9h7.8l-3.9,5.9L82.5,80.9z M83.2,88.5
				l-7.5-3.2l1.1-4.4h0.4h0.9L83.2,88.5z M99.3,64.4c0,7.1-5.8,12.9-12.9,12.9c-7.1,0-12.9-5.8-12.9-12.9h8.6c3.2,0,6.3-1.3,8.6-3.6
				l0.9-0.9c1.9,2.4,4.6,3.9,7.6,4.3L99.3,64.4L99.3,64.4z M82.7,47.8h7.4c5.1,0,9.2,4.1,9.2,9.2v3.5c-2.1-0.5-4-1.7-5.2-3.6
				l-1.9-2.8l-4.1,4.1c-1.6,1.6-3.7,2.5-6,2.5h-8.6V57C73.5,51.9,77.7,47.8,82.7,47.8z M3.7,3.7h69.9v14.7H3.7V3.7z M62.5,25.7v3.7
				h-3.7v-3.7h-3.7v3.7h-3.7v-3.7h-3.7v3.7h-3.7v-3.7h-3.7v3.7h-3.7v-3.7h-3.7v3.7h-3.7v-3.7h-3.7v3.7h-3.7v-3.7h-3.7v3.7h-3.7v-3.7
				H11v3.7H7.4v-7.4h62.5v7.4h-3.7v-3.7H62.5z M3.7,33.1h69.9v14.7H3.7V33.1z M62.5,55.2v3.7h-3.7v-3.7h-3.7v3.7h-3.7v-3.7h-3.7v3.7
				h-3.7v-3.7h-3.7v3.7h-3.7v-3.7h-3.7v3.7h-3.7v-3.7h-3.7v3.7h-3.7v-3.7h-3.7v3.7h-3.7v-3.7H11v3.7H7.4v-7.4h62.5V57v1.8h-3.7v-3.7
				H62.5z M3.7,77.2V62.5h66.2v1.8c0,3.9,1.4,7.5,3.7,10.4v2.5H3.7z M69.9,110.3h-7.4V103h7.4V110.3z M110.3,110.3H103V103h7.4
				V110.3z M110.3,99.3H103v-7.4h-3.7v18.4H73.5V91.9h-3.7v7.4h-7.4v-7.4c0-5.9,4.7-10.7,10.5-11l-1.6,6.6l15,6.4l15-6.4l-1.6-6.6
				c5.8,0.3,10.5,5.1,10.5,11V99.3z"/>
			<rect x="95.6" y="36.8" fill="#F6921E" width="3.7" height="3.7"/>
			<rect x="95.6" y="29.4" fill="#F6921E" width="3.7" height="3.7"/>
			<rect x="95.6" y="22.1" fill="#F6921E" width="3.7" height="3.7"/>
			<rect x="88.3" y="22.1" fill="#F6921E" width="3.7" height="3.7"/>
			<rect x="80.9" y="22.1" fill="#F6921E" width="3.7" height="3.7"/>
			<rect x="36.8" y="99.3" fill="#F6921E" width="3.7" height="3.7"/>
			<rect x="36.8" y="91.9" fill="#F6921E" width="3.7" height="3.7"/>
			<rect x="36.8" y="84.6" fill="#F6921E" width="3.7" height="3.7"/>
			<rect x="51.5" y="99.3" fill="#F6921E" width="3.7" height="3.7"/>
			<rect x="44.1" y="99.3" fill="#F6921E" width="3.7" height="3.7"/>
		</g>
	</g>
</g>
</svg>
