<?xml version="1.0" encoding="utf-8"?>
<!-- Generator: Adobe Illustrator 18.0.0, SVG Export Plug-In . SVG Version: 6.00 Build 0)  -->
<!DOCTYPE svg PUBLIC "-//W3C//DTD SVG 1.1//EN" "http://www.w3.org/Graphics/SVG/1.1/DTD/svg11.dtd">
<svg version="1.1" xmlns="http://www.w3.org/2000/svg" xmlns:xlink="http://www.w3.org/1999/xlink" x="0px" y="0px"
	 viewBox="0 0 245.7 335.2" enable-background="new 0 0 245.7 335.2" xml:space="preserve">
<g id="Capa_1">
</g>
<g id="fondo_naranja">
</g>
<g id="imagengif">
</g>
<g id="Capa_6">
</g>
<g id="Capa_3">
</g>
<g id="Capa_2">
</g>
<g id="Capa_4">
</g>
<g id="modal">
	<g>
		<g>
			<defs>
				<rect id="SVGID_147_" x="0" y="89.5" width="245.7" height="245.7"/>
			</defs>
			<clipPath id="SVGID_2_">
				<use xlink:href="#SVGID_147_"  overflow="visible"/>
			</clipPath>
			<g clip-path="url(#SVGID_2_)">
				<path fill="#CACCD0" d="M8.3,298.8c-1.2,0-2.1,1-2.1,2.1c0,1.2,1,2.1,2.1,2.1c1.2,0,2.1-1,2.1-2.1
					C10.4,299.7,9.4,298.8,8.3,298.8 M8.3,300.9L8.3,300.9v0.9V300.9"/>
				<path fill="#CACCD0" d="M31.3,298.8c-1.2,0-2.1,1-2.1,2.1c0,1.2,1,2.1,2.1,2.1c1.2,0,2.1-1,2.1-2.1
					C33.4,299.7,32.5,298.8,31.3,298.8 M31.3,300.9L31.3,300.9v0.9V300.9"/>
				<path fill="#CACCD0" d="M54.3,298.8c-1.2,0-2.1,1-2.1,2.1c0,1.2,1,2.1,2.1,2.1c1.2,0,2.1-1,2.1-2.1
					C56.4,299.7,55.5,298.8,54.3,298.8 M54.3,300.9L54.3,300.9v0.9V300.9"/>
				<path fill="#CACCD0" d="M8.3,321.8c-1.2,0-2.1,1-2.1,2.1c0,1.2,1,2.1,2.1,2.1c1.2,0,2.1-1,2.1-2.1
					C10.4,322.8,9.4,321.8,8.3,321.8 M8.3,323.9L8.3,323.9v0.9V323.9"/>
				<path fill="#CACCD0" d="M31.3,321.8c-1.2,0-2.1,1-2.1,2.1c0,1.2,1,2.1,2.1,2.1c1.2,0,2.1-1,2.1-2.1
					C33.4,322.8,32.5,321.8,31.3,321.8 M31.3,323.9L31.3,323.9v0.9V323.9"/>
				<path fill="#CACCD0" d="M54.3,321.8c-1.2,0-2.1,1-2.1,2.1c0,1.2,1,2.1,2.1,2.1c1.2,0,2.1-1,2.1-2.1
					C56.4,322.8,55.5,321.8,54.3,321.8 M54.3,323.9L54.3,323.9v0.9V323.9"/>
				<path fill="#CACCD0" d="M79.9,298.8c-1.2,0-2.1,1-2.1,2.1c0,1.2,1,2.1,2.1,2.1c1.2,0,2.1-1,2.1-2.1
					C82,299.7,81.1,298.8,79.9,298.8 M79.9,300.9L79.9,300.9v0.9V300.9"/>
				<path fill="#CACCD0" d="M102.9,298.8c-1.2,0-2.1,1-2.1,2.1c0,1.2,1,2.1,2.1,2.1c1.2,0,2.1-1,2.1-2.1
					C105,299.7,104.1,298.8,102.9,298.8 M102.9,300.9L102.9,300.9v0.9V300.9"/>
				<path fill="#CACCD0" d="M125.9,298.8c-1.2,0-2.1,1-2.1,2.1c0,1.2,1,2.1,2.1,2.1c1.2,0,2.1-1,2.1-2.1
					C128,299.7,127.1,298.8,125.9,298.8 M125.9,300.9L125.9,300.9v0.9V300.9"/>
				<path fill="#CACCD0" d="M79.9,321.8c-1.2,0-2.1,1-2.1,2.1c0,1.2,1,2.1,2.1,2.1c1.2,0,2.1-1,2.1-2.1
					C82,322.8,81.1,321.8,79.9,321.8 M79.9,323.9L79.9,323.9v0.9V323.9"/>
				<path fill="#CACCD0" d="M102.9,321.8c-1.2,0-2.1,1-2.1,2.1c0,1.2,1,2.1,2.1,2.1c1.2,0,2.1-1,2.1-2.1
					C105,322.8,104.1,321.8,102.9,321.8 M102.9,323.9L102.9,323.9v0.9V323.9"/>
				<path fill="#CACCD0" d="M125.9,321.8c-1.2,0-2.1,1-2.1,2.1c0,1.2,1,2.1,2.1,2.1c1.2,0,2.1-1,2.1-2.1
					C128,322.8,127.1,321.8,125.9,321.8 M125.9,323.9L125.9,323.9v0.9V323.9"/>
				<path fill="#CACCD0" d="M151.5,298.8c-1.2,0-2.1,1-2.1,2.1c0,1.2,1,2.1,2.1,2.1c1.2,0,2.1-1,2.1-2.1
					C153.6,299.7,152.7,298.8,151.5,298.8 M151.5,300.9L151.5,300.9v0.9V300.9"/>
				<path fill="#CACCD0" d="M174.5,298.8c-1.2,0-2.1,1-2.1,2.1c0,1.2,1,2.1,2.1,2.1c1.2,0,2.1-1,2.1-2.1
					C176.6,299.7,175.7,298.8,174.5,298.8 M174.5,300.9L174.5,300.9v0.9V300.9"/>
				<path fill="#CACCD0" d="M197.5,298.8c-1.2,0-2.1,1-2.1,2.1c0,1.2,1,2.1,2.1,2.1c1.2,0,2.1-1,2.1-2.1
					C199.7,299.7,198.7,298.8,197.5,298.8 M197.5,300.9L197.5,300.9v0.9V300.9"/>
				<path fill="#CACCD0" d="M151.5,321.8c-1.2,0-2.1,1-2.1,2.1c0,1.2,1,2.1,2.1,2.1c1.2,0,2.1-1,2.1-2.1
					C153.6,322.8,152.7,321.8,151.5,321.8 M151.5,323.9L151.5,323.9v0.9V323.9"/>
				<path fill="#CACCD0" d="M174.5,321.8c-1.2,0-2.1,1-2.1,2.1c0,1.2,1,2.1,2.1,2.1c1.2,0,2.1-1,2.1-2.1
					C176.6,322.8,175.7,321.8,174.5,321.8 M174.5,323.9L174.5,323.9v0.9V323.9"/>
				<path fill="#CACCD0" d="M197.5,321.8c-1.2,0-2.1,1-2.1,2.1c0,1.2,1,2.1,2.1,2.1c1.2,0,2.1-1,2.1-2.1
					C199.7,322.8,198.7,321.8,197.5,321.8 M197.5,323.9L197.5,323.9v0.9V323.9"/>
				<path fill="#CACCD0" d="M223.1,298.8c-1.2,0-2.1,1-2.1,2.1c0,1.2,1,2.1,2.1,2.1c1.2,0,2.1-1,2.1-2.1
					C225.2,299.7,224.3,298.8,223.1,298.8 M223.1,300.9L223.1,300.9v0.9V300.9"/>
				<path fill="#CACCD0" d="M223.1,321.8c-1.2,0-2.1,1-2.1,2.1c0,1.2,1,2.1,2.1,2.1c1.2,0,2.1-1,2.1-2.1
					C225.2,322.8,224.3,321.8,223.1,321.8 M223.1,323.9L223.1,323.9v0.9V323.9"/>
				<path fill="#CACCD0" d="M8.3,227.2c-1.2,0-2.1,1-2.1,2.1c0,1.2,1,2.1,2.1,2.1c1.2,0,2.1-1,2.1-2.1
					C10.4,228.1,9.4,227.2,8.3,227.2 M8.3,229.3L8.3,229.3v0.9V229.3"/>
				<path fill="#CACCD0" d="M31.3,227.2c-1.2,0-2.1,1-2.1,2.1c0,1.2,1,2.1,2.1,2.1c1.2,0,2.1-1,2.1-2.1
					C33.4,228.1,32.5,227.2,31.3,227.2 M31.3,229.3L31.3,229.3v0.9V229.3"/>
				<path fill="#CACCD0" d="M54.3,227.2c-1.2,0-2.1,1-2.1,2.1c0,1.2,1,2.1,2.1,2.1c1.2,0,2.1-1,2.1-2.1
					C56.4,228.1,55.5,227.2,54.3,227.2 M54.3,229.3L54.3,229.3v0.9V229.3"/>
				<path fill="#CACCD0" d="M8.3,250.2c-1.2,0-2.1,1-2.1,2.1c0,1.2,1,2.1,2.1,2.1c1.2,0,2.1-1,2.1-2.1
					C10.4,251.1,9.4,250.2,8.3,250.2 M8.3,252.3L8.3,252.3v0.9V252.3"/>
				<path fill="#CACCD0" d="M31.3,250.2c-1.2,0-2.1,1-2.1,2.1c0,1.2,1,2.1,2.1,2.1c1.2,0,2.1-1,2.1-2.1
					C33.4,251.1,32.5,250.2,31.3,250.2 M31.3,252.3L31.3,252.3v0.9V252.3"/>
				<path fill="#CACCD0" d="M54.3,250.2c-1.2,0-2.1,1-2.1,2.1c0,1.2,1,2.1,2.1,2.1c1.2,0,2.1-1,2.1-2.1
					C56.4,251.1,55.5,250.2,54.3,250.2 M54.3,252.3L54.3,252.3v0.9V252.3"/>
				<path fill="#CACCD0" d="M8.3,273.2c-1.2,0-2.1,1-2.1,2.1c0,1.2,1,2.1,2.1,2.1c1.2,0,2.1-1,2.1-2.1
					C10.4,274.2,9.4,273.2,8.3,273.2 M8.3,275.3L8.3,275.3v0.9V275.3"/>
				<path fill="#CACCD0" d="M31.3,273.2c-1.2,0-2.1,1-2.1,2.1c0,1.2,1,2.1,2.1,2.1c1.2,0,2.1-1,2.1-2.1
					C33.4,274.2,32.5,273.2,31.3,273.2 M31.3,275.3L31.3,275.3v0.9V275.3"/>
				<path fill="#CACCD0" d="M54.3,273.2c-1.2,0-2.1,1-2.1,2.1c0,1.2,1,2.1,2.1,2.1c1.2,0,2.1-1,2.1-2.1
					C56.4,274.2,55.5,273.2,54.3,273.2 M54.3,275.3L54.3,275.3v0.9V275.3"/>
				<path fill="#CACCD0" d="M79.9,227.2c-1.2,0-2.1,1-2.1,2.1c0,1.2,1,2.1,2.1,2.1c1.2,0,2.1-1,2.1-2.1
					C82,228.1,81.1,227.2,79.9,227.2 M79.9,229.3L79.9,229.3v0.9V229.3"/>
				<path fill="#CACCD0" d="M102.9,227.2c-1.2,0-2.1,1-2.1,2.1c0,1.2,1,2.1,2.1,2.1c1.2,0,2.1-1,2.1-2.1
					C105,228.1,104.1,227.2,102.9,227.2 M102.9,229.3L102.9,229.3v0.9V229.3"/>
				<path fill="#CACCD0" d="M125.9,227.2c-1.2,0-2.1,1-2.1,2.1c0,1.2,1,2.1,2.1,2.1c1.2,0,2.1-1,2.1-2.1
					C128,228.1,127.1,227.2,125.9,227.2 M125.9,229.3L125.9,229.3v0.9V229.3"/>
				<path fill="#CACCD0" d="M79.9,250.2c-1.2,0-2.1,1-2.1,2.1c0,1.2,1,2.1,2.1,2.1c1.2,0,2.1-1,2.1-2.1
					C82,251.1,81.1,250.2,79.9,250.2 M79.9,252.3L79.9,252.3v0.9V252.3"/>
				<path fill="#CACCD0" d="M102.9,250.2c-1.2,0-2.1,1-2.1,2.1c0,1.2,1,2.1,2.1,2.1c1.2,0,2.1-1,2.1-2.1
					C105,251.1,104.1,250.2,102.9,250.2 M102.9,252.3L102.9,252.3v0.9V252.3"/>
				<path fill="#CACCD0" d="M125.9,250.2c-1.2,0-2.1,1-2.1,2.1c0,1.2,1,2.1,2.1,2.1c1.2,0,2.1-1,2.1-2.1
					C128,251.1,127.1,250.2,125.9,250.2 M125.9,252.3L125.9,252.3v0.9V252.3"/>
				<path fill="#CACCD0" d="M79.9,273.2c-1.2,0-2.1,1-2.1,2.1c0,1.2,1,2.1,2.1,2.1c1.2,0,2.1-1,2.1-2.1
					C82,274.2,81.1,273.2,79.9,273.2 M79.9,275.3L79.9,275.3v0.9V275.3"/>
				<path fill="#CACCD0" d="M102.9,273.2c-1.2,0-2.1,1-2.1,2.1c0,1.2,1,2.1,2.1,2.1c1.2,0,2.1-1,2.1-2.1
					C105,274.2,104.1,273.2,102.9,273.2 M102.9,275.3L102.9,275.3v0.9V275.3"/>
				<path fill="#CACCD0" d="M125.9,273.2c-1.2,0-2.1,1-2.1,2.1c0,1.2,1,2.1,2.1,2.1c1.2,0,2.1-1,2.1-2.1
					C128.1,274.2,127.1,273.2,125.9,273.2 M125.9,275.3L125.9,275.3v0.9V275.3"/>
				<path fill="#CACCD0" d="M151.5,227.2c-1.2,0-2.1,1-2.1,2.1c0,1.2,1,2.1,2.1,2.1c1.2,0,2.1-1,2.1-2.1
					C153.6,228.1,152.7,227.2,151.5,227.2 M151.5,229.3L151.5,229.3v0.9V229.3"/>
				<path fill="#CACCD0" d="M174.5,227.2c-1.2,0-2.1,1-2.1,2.1c0,1.2,1,2.1,2.1,2.1c1.2,0,2.1-1,2.1-2.1
					C176.6,228.1,175.7,227.2,174.5,227.2 M174.5,229.3L174.5,229.3v0.9V229.3"/>
				<path fill="#CACCD0" d="M197.5,227.2c-1.2,0-2.1,1-2.1,2.1c0,1.2,1,2.1,2.1,2.1c1.2,0,2.1-1,2.1-2.1
					C199.7,228.1,198.7,227.2,197.5,227.2 M197.5,229.3L197.5,229.3v0.9V229.3"/>
				<path fill="#CACCD0" d="M151.5,250.2c-1.2,0-2.1,1-2.1,2.1c0,1.2,1,2.1,2.1,2.1c1.2,0,2.1-1,2.1-2.1
					C153.6,251.1,152.7,250.2,151.5,250.2 M151.5,252.3L151.5,252.3v0.9V252.3"/>
				<path fill="#CACCD0" d="M174.5,250.2c-1.2,0-2.1,1-2.1,2.1c0,1.2,1,2.1,2.1,2.1c1.2,0,2.1-1,2.1-2.1
					C176.6,251.1,175.7,250.2,174.5,250.2 M174.5,252.3L174.5,252.3v0.9V252.3"/>
				<path fill="#CACCD0" d="M197.5,250.2c-1.2,0-2.1,1-2.1,2.1c0,1.2,1,2.1,2.1,2.1c1.2,0,2.1-1,2.1-2.1
					C199.7,251.1,198.7,250.2,197.5,250.2 M197.5,252.3L197.5,252.3v0.9V252.3"/>
				<path fill="#CACCD0" d="M151.5,273.2c-1.2,0-2.1,1-2.1,2.1c0,1.2,1,2.1,2.1,2.1c1.2,0,2.1-1,2.1-2.1
					C153.6,274.2,152.7,273.2,151.5,273.2 M151.5,275.3L151.5,275.3v0.9V275.3"/>
				<path fill="#CACCD0" d="M174.5,273.2c-1.2,0-2.1,1-2.1,2.1c0,1.2,1,2.1,2.1,2.1c1.2,0,2.1-1,2.1-2.1
					C176.6,274.2,175.7,273.2,174.5,273.2 M174.5,275.3L174.5,275.3v0.9V275.3"/>
				<path fill="#CACCD0" d="M197.5,273.2c-1.2,0-2.1,1-2.1,2.1c0,1.2,1,2.1,2.1,2.1c1.2,0,2.1-1,2.1-2.1
					C199.7,274.2,198.7,273.2,197.5,273.2 M197.5,275.3L197.5,275.3v0.9V275.3"/>
				<path fill="#CACCD0" d="M223.1,227.2c-1.2,0-2.1,1-2.1,2.1c0,1.2,1,2.1,2.1,2.1c1.2,0,2.1-1,2.1-2.1
					C225.2,228.1,224.3,227.2,223.1,227.2 M223.1,229.3L223.1,229.3v0.9V229.3"/>
				<path fill="#CACCD0" d="M223.1,250.2c-1.2,0-2.1,1-2.1,2.1c0,1.2,1,2.1,2.1,2.1c1.2,0,2.1-1,2.1-2.1
					C225.2,251.1,224.3,250.2,223.1,250.2 M223.1,252.3L223.1,252.3v0.9V252.3"/>
				<path fill="#CACCD0" d="M223.1,273.2c-1.2,0-2.1,1-2.1,2.1c0,1.2,1,2.1,2.1,2.1c1.2,0,2.1-1,2.1-2.1
					C225.2,274.2,224.3,273.2,223.1,273.2 M223.1,275.3L223.1,275.3v0.9V275.3"/>
				<path fill="#CACCD0" d="M8.3,155.5c-1.2,0-2.1,1-2.1,2.1c0,1.2,1,2.1,2.1,2.1c1.2,0,2.1-1,2.1-2.1
					C10.4,156.5,9.4,155.5,8.3,155.5 M8.3,157.7L8.3,157.7v0.9V157.7"/>
				<path fill="#CACCD0" d="M31.3,155.5c-1.2,0-2.1,1-2.1,2.1c0,1.2,1,2.1,2.1,2.1c1.2,0,2.1-1,2.1-2.1
					C33.4,156.5,32.5,155.5,31.3,155.5 M31.3,157.7L31.3,157.7v0.9V157.7"/>
				<path fill="#CACCD0" d="M54.3,155.5c-1.2,0-2.1,1-2.1,2.1c0,1.2,1,2.1,2.1,2.1c1.2,0,2.1-1,2.1-2.1
					C56.4,156.5,55.5,155.5,54.3,155.5 M54.3,157.7L54.3,157.7v0.9V157.7"/>
				<path fill="#CACCD0" d="M8.3,178.6c-1.2,0-2.1,1-2.1,2.1c0,1.2,1,2.1,2.1,2.1c1.2,0,2.1-1,2.1-2.1
					C10.4,179.5,9.4,178.6,8.3,178.6 M8.3,180.7L8.3,180.7v0.9V180.7"/>
				<path fill="#CACCD0" d="M31.3,178.6c-1.2,0-2.1,1-2.1,2.1c0,1.2,1,2.1,2.1,2.1c1.2,0,2.1-1,2.1-2.1
					C33.4,179.5,32.5,178.6,31.3,178.6 M31.3,180.7L31.3,180.7v0.9V180.7"/>
				<path fill="#CACCD0" d="M54.3,178.6c-1.2,0-2.1,1-2.1,2.1c0,1.2,1,2.1,2.1,2.1c1.2,0,2.1-1,2.1-2.1
					C56.4,179.5,55.5,178.6,54.3,178.6 M54.3,180.7L54.3,180.7v0.9V180.7"/>
				<path fill="#CACCD0" d="M8.3,201.6c-1.2,0-2.1,1-2.1,2.1c0,1.2,1,2.1,2.1,2.1c1.2,0,2.1-1,2.1-2.1
					C10.4,202.5,9.4,201.6,8.3,201.6 M8.3,203.7L8.3,203.7v0.9V203.7"/>
				<path fill="#CACCD0" d="M31.3,201.6c-1.2,0-2.1,1-2.1,2.1c0,1.2,1,2.1,2.1,2.1c1.2,0,2.1-1,2.1-2.1
					C33.4,202.5,32.5,201.6,31.3,201.6 M31.3,203.7L31.3,203.7v0.9V203.7"/>
				<path fill="#CACCD0" d="M54.3,201.6c-1.2,0-2.1,1-2.1,2.1c0,1.2,1,2.1,2.1,2.1c1.2,0,2.1-1,2.1-2.1
					C56.4,202.5,55.5,201.6,54.3,201.6 M54.3,203.7L54.3,203.7v0.9V203.7"/>
				<path fill="#CACCD0" d="M79.9,155.5c-1.2,0-2.1,1-2.1,2.1c0,1.2,1,2.1,2.1,2.1c1.2,0,2.1-1,2.1-2.1
					C82,156.5,81.1,155.5,79.9,155.5 M79.9,157.7L79.9,157.7v0.9V157.7"/>
				<path fill="#CACCD0" d="M102.9,155.5c-1.2,0-2.1,1-2.1,2.1c0,1.2,1,2.1,2.1,2.1c1.2,0,2.1-1,2.1-2.1
					C105,156.5,104.1,155.5,102.9,155.5 M102.9,157.7L102.9,157.7v0.9V157.7"/>
				<path fill="#CACCD0" d="M125.9,155.5c-1.2,0-2.1,1-2.1,2.1c0,1.2,1,2.1,2.1,2.1c1.2,0,2.1-1,2.1-2.1
					C128,156.5,127.1,155.5,125.9,155.5 M125.9,157.7L125.9,157.7v0.9V157.7"/>
				<path fill="#CACCD0" d="M79.9,178.6c-1.2,0-2.1,1-2.1,2.1c0,1.2,1,2.1,2.1,2.1c1.2,0,2.1-1,2.1-2.1
					C82,179.5,81.1,178.6,79.9,178.6 M79.9,180.7L79.9,180.7v0.9V180.7"/>
				<path fill="#CACCD0" d="M102.9,178.6c-1.2,0-2.1,1-2.1,2.1c0,1.2,1,2.1,2.1,2.1c1.2,0,2.1-1,2.1-2.1
					C105,179.5,104.1,178.6,102.9,178.6 M102.9,180.7L102.9,180.7v0.9V180.7"/>
				<path fill="#CACCD0" d="M125.9,178.6c-1.2,0-2.1,1-2.1,2.1c0,1.2,1,2.1,2.1,2.1c1.2,0,2.1-1,2.1-2.1
					C128,179.5,127.1,178.6,125.9,178.6 M125.9,180.7L125.9,180.7v0.9V180.7"/>
				<path fill="#CACCD0" d="M79.9,201.6c-1.2,0-2.1,1-2.1,2.1c0,1.2,1,2.1,2.1,2.1c1.2,0,2.1-1,2.1-2.1
					C82,202.5,81.1,201.6,79.9,201.6 M79.9,203.7L79.9,203.7v0.9V203.7"/>
				<path fill="#CACCD0" d="M102.9,201.6c-1.2,0-2.1,1-2.1,2.1c0,1.2,1,2.1,2.1,2.1c1.2,0,2.1-1,2.1-2.1
					C105,202.5,104.1,201.6,102.9,201.6 M102.9,203.7L102.9,203.7v0.9V203.7"/>
				<path fill="#CACCD0" d="M125.9,201.6c-1.2,0-2.1,1-2.1,2.1c0,1.2,1,2.1,2.1,2.1c1.2,0,2.1-1,2.1-2.1
					C128.1,202.5,127.1,201.6,125.9,201.6 M125.9,203.7L125.9,203.7v0.9V203.7"/>
				<path fill="#CACCD0" d="M151.5,155.5c-1.2,0-2.1,1-2.1,2.1c0,1.2,1,2.1,2.1,2.1c1.2,0,2.1-1,2.1-2.1
					C153.6,156.5,152.7,155.5,151.5,155.5 M151.5,157.7L151.5,157.7v0.9V157.7"/>
				<path fill="#CACCD0" d="M174.5,155.5c-1.2,0-2.1,1-2.1,2.1c0,1.2,1,2.1,2.1,2.1c1.2,0,2.1-1,2.1-2.1
					C176.6,156.5,175.7,155.5,174.5,155.5 M174.5,157.7L174.5,157.7v0.9V157.7"/>
				<path fill="#CACCD0" d="M197.5,155.5c-1.2,0-2.1,1-2.1,2.1c0,1.2,1,2.1,2.1,2.1c1.2,0,2.1-1,2.1-2.1
					C199.7,156.5,198.7,155.5,197.5,155.5 M197.5,157.7L197.5,157.7v0.9V157.7"/>
				<path fill="#CACCD0" d="M151.5,178.6c-1.2,0-2.1,1-2.1,2.1c0,1.2,1,2.1,2.1,2.1c1.2,0,2.1-1,2.1-2.1
					C153.6,179.5,152.7,178.6,151.5,178.6 M151.5,180.7L151.5,180.7v0.9V180.7"/>
				<path fill="#CACCD0" d="M174.5,178.6c-1.2,0-2.1,1-2.1,2.1c0,1.2,1,2.1,2.1,2.1c1.2,0,2.1-1,2.1-2.1
					C176.6,179.5,175.7,178.6,174.5,178.6 M174.5,180.7L174.5,180.7v0.9V180.7"/>
				<path fill="#CACCD0" d="M197.5,178.6c-1.2,0-2.1,1-2.1,2.1c0,1.2,1,2.1,2.1,2.1c1.2,0,2.1-1,2.1-2.1
					C199.7,179.5,198.7,178.6,197.5,178.6 M197.5,180.7L197.5,180.7v0.9V180.7"/>
				<path fill="#CACCD0" d="M151.5,201.6c-1.2,0-2.1,1-2.1,2.1c0,1.2,1,2.1,2.1,2.1c1.2,0,2.1-1,2.1-2.1
					C153.6,202.5,152.7,201.6,151.5,201.6 M151.5,203.7L151.5,203.7v0.9V203.7"/>
				<path fill="#CACCD0" d="M174.5,201.6c-1.2,0-2.1,1-2.1,2.1c0,1.2,1,2.1,2.1,2.1c1.2,0,2.1-1,2.1-2.1
					C176.6,202.5,175.7,201.6,174.5,201.6 M174.5,203.7L174.5,203.7v0.9V203.7"/>
				<path fill="#CACCD0" d="M197.5,201.6c-1.2,0-2.1,1-2.1,2.1c0,1.2,1,2.1,2.1,2.1c1.2,0,2.1-1,2.1-2.1
					C199.7,202.5,198.7,201.6,197.5,201.6 M197.5,203.7L197.5,203.7v0.9V203.7"/>
				<path fill="#CACCD0" d="M223.1,155.5c-1.2,0-2.1,1-2.1,2.1c0,1.2,1,2.1,2.1,2.1c1.2,0,2.1-1,2.1-2.1
					C225.2,156.5,224.3,155.5,223.1,155.5 M223.1,157.7L223.1,157.7v0.9V157.7"/>
				<path fill="#CACCD0" d="M223.1,178.6c-1.2,0-2.1,1-2.1,2.1c0,1.2,1,2.1,2.1,2.1c1.2,0,2.1-1,2.1-2.1
					C225.2,179.5,224.3,178.6,223.1,178.6 M223.1,180.7L223.1,180.7v0.9V180.7"/>
				<path fill="#CACCD0" d="M223.1,201.6c-1.2,0-2.1,1-2.1,2.1c0,1.2,1,2.1,2.1,2.1c1.2,0,2.1-1,2.1-2.1
					C225.2,202.5,224.3,201.6,223.1,201.6 M223.1,203.7L223.1,203.7v0.9V203.7"/>
				<path fill="#CACCD0" d="M8.3,83.9c-1.2,0-2.1,1-2.1,2.1c0,1.2,1,2.1,2.1,2.1c1.2,0,2.1-1,2.1-2.1C10.4,84.9,9.4,83.9,8.3,83.9
					 M8.3,86.1L8.3,86.1v0.9V86.1"/>
				<path fill="#CACCD0" d="M31.3,83.9c-1.2,0-2.1,1-2.1,2.1c0,1.2,1,2.1,2.1,2.1c1.2,0,2.1-1,2.1-2.1
					C33.4,84.9,32.5,83.9,31.3,83.9 M31.3,86.1L31.3,86.1v0.9V86.1"/>
				<path fill="#CACCD0" d="M54.3,83.9c-1.2,0-2.1,1-2.1,2.1c0,1.2,1,2.1,2.1,2.1c1.2,0,2.1-1,2.1-2.1
					C56.4,84.9,55.5,83.9,54.3,83.9 M54.3,86.1L54.3,86.1v0.9V86.1"/>
				<path fill="#CACCD0" d="M8.3,107c-1.2,0-2.1,1-2.1,2.1c0,1.2,1,2.1,2.1,2.1c1.2,0,2.1-1,2.1-2.1C10.4,107.9,9.4,107,8.3,107
					 M8.3,109.1L8.3,109.1v0.9V109.1"/>
				<path fill="#CACCD0" d="M31.3,107c-1.2,0-2.1,1-2.1,2.1c0,1.2,1,2.1,2.1,2.1c1.2,0,2.1-1,2.1-2.1C33.4,107.9,32.5,107,31.3,107
					 M31.3,109.1L31.3,109.1v0.9V109.1"/>
				<path fill="#CACCD0" d="M54.3,107c-1.2,0-2.1,1-2.1,2.1c0,1.2,1,2.1,2.1,2.1c1.2,0,2.1-1,2.1-2.1C56.4,107.9,55.5,107,54.3,107
					 M54.3,109.1L54.3,109.1v0.9V109.1"/>
				<path fill="#CACCD0" d="M8.3,130c-1.2,0-2.1,1-2.1,2.1c0,1.2,1,2.1,2.1,2.1c1.2,0,2.1-1,2.1-2.1C10.4,130.9,9.4,130,8.3,130
					 M8.3,132.1L8.3,132.1v0.9V132.1"/>
				<path fill="#CACCD0" d="M31.3,130c-1.2,0-2.1,1-2.1,2.1c0,1.2,1,2.1,2.1,2.1c1.2,0,2.1-1,2.1-2.1C33.4,130.9,32.5,130,31.3,130
					 M31.3,132.1L31.3,132.1v0.9V132.1"/>
				<path fill="#CACCD0" d="M54.3,130c-1.2,0-2.1,1-2.1,2.1c0,1.2,1,2.1,2.1,2.1c1.2,0,2.1-1,2.1-2.1C56.4,130.9,55.5,130,54.3,130
					 M54.3,132.1L54.3,132.1v0.9V132.1"/>
				<path fill="#CACCD0" d="M79.9,83.9c-1.2,0-2.1,1-2.1,2.1c0,1.2,1,2.1,2.1,2.1c1.2,0,2.1-1,2.1-2.1C82,84.9,81.1,83.9,79.9,83.9
					 M79.9,86.1L79.9,86.1v0.9V86.1"/>
				<path fill="#CACCD0" d="M102.9,83.9c-1.2,0-2.1,1-2.1,2.1c0,1.2,1,2.1,2.1,2.1c1.2,0,2.1-1,2.1-2.1
					C105,84.9,104.1,83.9,102.9,83.9 M102.9,86.1L102.9,86.1v0.9V86.1"/>
				<path fill="#CACCD0" d="M125.9,83.9c-1.2,0-2.1,1-2.1,2.1c0,1.2,1,2.1,2.1,2.1c1.2,0,2.1-1,2.1-2.1
					C128,84.9,127.1,83.9,125.9,83.9 M125.9,86.1L125.9,86.1v0.9V86.1"/>
				<path fill="#CACCD0" d="M79.9,107c-1.2,0-2.1,1-2.1,2.1c0,1.2,1,2.1,2.1,2.1c1.2,0,2.1-1,2.1-2.1C82,107.9,81.1,107,79.9,107
					 M79.9,109.1L79.9,109.1v0.9V109.1"/>
				<path fill="#CACCD0" d="M102.9,107c-1.2,0-2.1,1-2.1,2.1c0,1.2,1,2.1,2.1,2.1c1.2,0,2.1-1,2.1-2.1
					C105,107.9,104.1,107,102.9,107 M102.9,109.1L102.9,109.1v0.9V109.1"/>
				<path fill="#CACCD0" d="M125.9,107c-1.2,0-2.1,1-2.1,2.1c0,1.2,1,2.1,2.1,2.1c1.2,0,2.1-1,2.1-2.1
					C128,107.9,127.1,107,125.9,107 M125.9,109.1L125.9,109.1v0.9V109.1"/>
				<path fill="#CACCD0" d="M79.9,130c-1.2,0-2.1,1-2.1,2.1c0,1.2,1,2.1,2.1,2.1c1.2,0,2.1-1,2.1-2.1C82,130.9,81.1,130,79.9,130
					 M79.9,132.1L79.9,132.1v0.9V132.1"/>
				<path fill="#CACCD0" d="M102.9,130c-1.2,0-2.1,1-2.1,2.1c0,1.2,1,2.1,2.1,2.1c1.2,0,2.1-1,2.1-2.1
					C105,130.9,104.1,130,102.9,130 M102.9,132.1L102.9,132.1v0.9V132.1"/>
				<path fill="#CACCD0" d="M125.9,130c-1.2,0-2.1,1-2.1,2.1c0,1.2,1,2.1,2.1,2.1c1.2,0,2.1-1,2.1-2.1
					C128.1,130.9,127.1,130,125.9,130 M125.9,132.1L125.9,132.1v0.9V132.1"/>
				<path fill="#CACCD0" d="M151.5,83.9c-1.2,0-2.1,1-2.1,2.1c0,1.2,1,2.1,2.1,2.1c1.2,0,2.1-1,2.1-2.1
					C153.6,84.9,152.7,83.9,151.5,83.9 M151.5,86.1L151.5,86.1v0.9V86.1"/>
				<path fill="#CACCD0" d="M174.5,83.9c-1.2,0-2.1,1-2.1,2.1c0,1.2,1,2.1,2.1,2.1c1.2,0,2.1-1,2.1-2.1
					C176.6,84.9,175.7,83.9,174.5,83.9 M174.5,86.1L174.5,86.1v0.9V86.1"/>
				<path fill="#CACCD0" d="M197.5,83.9c-1.2,0-2.1,1-2.1,2.1c0,1.2,1,2.1,2.1,2.1c1.2,0,2.1-1,2.1-2.1
					C199.7,84.9,198.7,83.9,197.5,83.9 M197.5,86.1L197.5,86.1v0.9V86.1"/>
				<path fill="#CACCD0" d="M151.5,107c-1.2,0-2.1,1-2.1,2.1c0,1.2,1,2.1,2.1,2.1c1.2,0,2.1-1,2.1-2.1
					C153.6,107.9,152.7,107,151.5,107 M151.5,109.1L151.5,109.1v0.9V109.1"/>
				<path fill="#CACCD0" d="M174.5,107c-1.2,0-2.1,1-2.1,2.1c0,1.2,1,2.1,2.1,2.1c1.2,0,2.1-1,2.1-2.1
					C176.6,107.9,175.7,107,174.5,107 M174.5,109.1L174.5,109.1v0.9V109.1"/>
				<path fill="#CACCD0" d="M197.5,107c-1.2,0-2.1,1-2.1,2.1c0,1.2,1,2.1,2.1,2.1c1.2,0,2.1-1,2.1-2.1
					C199.7,107.9,198.7,107,197.5,107 M197.5,109.1L197.5,109.1v0.9V109.1"/>
				<path fill="#CACCD0" d="M151.5,130c-1.2,0-2.1,1-2.1,2.1c0,1.2,1,2.1,2.1,2.1c1.2,0,2.1-1,2.1-2.1
					C153.6,130.9,152.7,130,151.5,130 M151.5,132.1L151.5,132.1v0.9V132.1"/>
				<path fill="#CACCD0" d="M174.5,130c-1.2,0-2.1,1-2.1,2.1c0,1.2,1,2.1,2.1,2.1c1.2,0,2.1-1,2.1-2.1
					C176.6,130.9,175.7,130,174.5,130 M174.5,132.1L174.5,132.1v0.9V132.1"/>
				<path fill="#CACCD0" d="M197.5,130c-1.2,0-2.1,1-2.1,2.1c0,1.2,1,2.1,2.1,2.1c1.2,0,2.1-1,2.1-2.1
					C199.7,130.9,198.7,130,197.5,130 M197.5,132.1L197.5,132.1v0.9V132.1"/>
				<path fill="#CACCD0" d="M223.1,83.9c-1.2,0-2.1,1-2.1,2.1c0,1.2,1,2.1,2.1,2.1c1.2,0,2.1-1,2.1-2.1
					C225.2,84.9,224.3,83.9,223.1,83.9 M223.1,86.1L223.1,86.1v0.9V86.1"/>
				<path fill="#CACCD0" d="M223.1,107c-1.2,0-2.1,1-2.1,2.1c0,1.2,1,2.1,2.1,2.1c1.2,0,2.1-1,2.1-2.1
					C225.2,107.9,224.3,107,223.1,107 M223.1,109.1L223.1,109.1v0.9V109.1"/>
				<path fill="#CACCD0" d="M223.1,130c-1.2,0-2.1,1-2.1,2.1c0,1.2,1,2.1,2.1,2.1c1.2,0,2.1-1,2.1-2.1
					C225.2,130.9,224.3,130,223.1,130 M223.1,132.1L223.1,132.1v0.9V132.1"/>
				<path fill="#CACCD0" d="M8.3,12.3c-1.2,0-2.1,1-2.1,2.1c0,1.2,1,2.1,2.1,2.1c1.2,0,2.1-1,2.1-2.1C10.4,13.3,9.4,12.3,8.3,12.3
					 M8.3,14.5L8.3,14.5v0.9V14.5"/>
				<path fill="#CACCD0" d="M31.3,12.3c-1.2,0-2.1,1-2.1,2.1c0,1.2,1,2.1,2.1,2.1c1.2,0,2.1-1,2.1-2.1
					C33.4,13.3,32.5,12.3,31.3,12.3 M31.3,14.5L31.3,14.5v0.9V14.5"/>
				<path fill="#CACCD0" d="M54.3,12.3c-1.2,0-2.1,1-2.1,2.1c0,1.2,1,2.1,2.1,2.1c1.2,0,2.1-1,2.1-2.1
					C56.4,13.3,55.5,12.3,54.3,12.3 M54.3,14.5L54.3,14.5v0.9V14.5"/>
				<path fill="#CACCD0" d="M8.3,35.3c-1.2,0-2.1,1-2.1,2.1c0,1.2,1,2.1,2.1,2.1c1.2,0,2.1-1,2.1-2.1C10.4,36.3,9.4,35.3,8.3,35.3
					 M8.3,37.5L8.3,37.5v0.9V37.5"/>
				<path fill="#CACCD0" d="M31.3,35.3c-1.2,0-2.1,1-2.1,2.1c0,1.2,1,2.1,2.1,2.1c1.2,0,2.1-1,2.1-2.1
					C33.4,36.3,32.5,35.3,31.3,35.3 M31.3,37.5L31.3,37.5v0.9V37.5"/>
				<path fill="#CACCD0" d="M54.3,35.3c-1.2,0-2.1,1-2.1,2.1c0,1.2,1,2.1,2.1,2.1c1.2,0,2.1-1,2.1-2.1
					C56.4,36.3,55.5,35.3,54.3,35.3 M54.3,37.5L54.3,37.5v0.9V37.5"/>
				<path fill="#CACCD0" d="M8.3,58.4c-1.2,0-2.1,1-2.1,2.1c0,1.2,1,2.1,2.1,2.1c1.2,0,2.1-1,2.1-2.1C10.4,59.3,9.4,58.4,8.3,58.4
					 M8.3,60.5L8.3,60.5v0.9V60.5"/>
				<path fill="#CACCD0" d="M31.3,58.4c-1.2,0-2.1,1-2.1,2.1c0,1.2,1,2.1,2.1,2.1c1.2,0,2.1-1,2.1-2.1
					C33.4,59.3,32.5,58.4,31.3,58.4 M31.3,60.5L31.3,60.5v0.9V60.5"/>
				<path fill="#CACCD0" d="M54.3,58.4c-1.2,0-2.1,1-2.1,2.1c0,1.2,1,2.1,2.1,2.1c1.2,0,2.1-1,2.1-2.1
					C56.4,59.3,55.5,58.4,54.3,58.4 M54.3,60.5L54.3,60.5v0.9V60.5"/>
				<path fill="#CACCD0" d="M79.9,12.3c-1.2,0-2.1,1-2.1,2.1c0,1.2,1,2.1,2.1,2.1c1.2,0,2.1-1,2.1-2.1C82,13.3,81.1,12.3,79.9,12.3
					 M79.9,14.5L79.9,14.5v0.9V14.5"/>
				<path fill="#CACCD0" d="M102.9,12.3c-1.2,0-2.1,1-2.1,2.1c0,1.2,1,2.1,2.1,2.1c1.2,0,2.1-1,2.1-2.1
					C105,13.3,104.1,12.3,102.9,12.3 M102.9,14.5L102.9,14.5v0.9V14.5"/>
				<path fill="#CACCD0" d="M125.9,12.3c-1.2,0-2.1,1-2.1,2.1c0,1.2,1,2.1,2.1,2.1c1.2,0,2.1-1,2.1-2.1
					C128,13.3,127.1,12.3,125.9,12.3 M125.9,14.5L125.9,14.5v0.9V14.5"/>
				<path fill="#CACCD0" d="M79.9,35.3c-1.2,0-2.1,1-2.1,2.1c0,1.2,1,2.1,2.1,2.1c1.2,0,2.1-1,2.1-2.1C82,36.3,81.1,35.3,79.9,35.3
					 M79.9,37.5L79.9,37.5v0.9V37.5"/>
				<path fill="#CACCD0" d="M102.9,35.3c-1.2,0-2.1,1-2.1,2.1c0,1.2,1,2.1,2.1,2.1c1.2,0,2.1-1,2.1-2.1
					C105,36.3,104.1,35.3,102.9,35.3 M102.9,37.5L102.9,37.5v0.9V37.5"/>
				<path fill="#CACCD0" d="M125.9,35.3c-1.2,0-2.1,1-2.1,2.1c0,1.2,1,2.1,2.1,2.1c1.2,0,2.1-1,2.1-2.1
					C128,36.3,127.1,35.3,125.9,35.3 M125.9,37.5L125.9,37.5v0.9V37.5"/>
				<path fill="#CACCD0" d="M79.9,58.4c-1.2,0-2.1,1-2.1,2.1c0,1.2,1,2.1,2.1,2.1c1.2,0,2.1-1,2.1-2.1C82,59.3,81.1,58.4,79.9,58.4
					 M79.9,60.5L79.9,60.5v0.9V60.5"/>
				<path fill="#CACCD0" d="M102.9,58.4c-1.2,0-2.1,1-2.1,2.1c0,1.2,1,2.1,2.1,2.1c1.2,0,2.1-1,2.1-2.1
					C105,59.3,104.1,58.4,102.9,58.4 M102.9,60.5L102.9,60.5v0.9V60.5"/>
				<path fill="#CACCD0" d="M125.9,58.4c-1.2,0-2.1,1-2.1,2.1c0,1.2,1,2.1,2.1,2.1c1.2,0,2.1-1,2.1-2.1
					C128.1,59.3,127.1,58.4,125.9,58.4 M125.9,60.5L125.9,60.5v0.9V60.5"/>
				<path fill="#CACCD0" d="M151.5,12.3c-1.2,0-2.1,1-2.1,2.1c0,1.2,1,2.1,2.1,2.1c1.2,0,2.1-1,2.1-2.1
					C153.6,13.3,152.7,12.3,151.5,12.3 M151.5,14.5L151.5,14.5v0.9V14.5"/>
				<path fill="#CACCD0" d="M174.5,12.3c-1.2,0-2.1,1-2.1,2.1c0,1.2,1,2.1,2.1,2.1c1.2,0,2.1-1,2.1-2.1
					C176.6,13.3,175.7,12.3,174.5,12.3 M174.5,14.5L174.5,14.5v0.9V14.5"/>
				<path fill="#CACCD0" d="M197.5,12.3c-1.2,0-2.1,1-2.1,2.1c0,1.2,1,2.1,2.1,2.1c1.2,0,2.1-1,2.1-2.1
					C199.7,13.3,198.7,12.3,197.5,12.3 M197.5,14.5L197.5,14.5v0.9V14.5"/>
				<path fill="#CACCD0" d="M151.5,35.3c-1.2,0-2.1,1-2.1,2.1c0,1.2,1,2.1,2.1,2.1c1.2,0,2.1-1,2.1-2.1
					C153.6,36.3,152.7,35.3,151.5,35.3 M151.5,37.5L151.5,37.5v0.9V37.5"/>
				<path fill="#CACCD0" d="M174.5,35.3c-1.2,0-2.1,1-2.1,2.1c0,1.2,1,2.1,2.1,2.1c1.2,0,2.1-1,2.1-2.1
					C176.6,36.3,175.7,35.3,174.5,35.3 M174.5,37.5L174.5,37.5v0.9V37.5"/>
				<path fill="#CACCD0" d="M197.5,35.3c-1.2,0-2.1,1-2.1,2.1c0,1.2,1,2.1,2.1,2.1c1.2,0,2.1-1,2.1-2.1
					C199.7,36.3,198.7,35.3,197.5,35.3 M197.5,37.5L197.5,37.5v0.9V37.5"/>
				<path fill="#CACCD0" d="M151.5,58.4c-1.2,0-2.1,1-2.1,2.1c0,1.2,1,2.1,2.1,2.1c1.2,0,2.1-1,2.1-2.1
					C153.6,59.3,152.7,58.4,151.5,58.4 M151.5,60.5L151.5,60.5v0.9V60.5"/>
				<path fill="#CACCD0" d="M174.5,58.4c-1.2,0-2.1,1-2.1,2.1c0,1.2,1,2.1,2.1,2.1c1.2,0,2.1-1,2.1-2.1
					C176.6,59.3,175.7,58.4,174.5,58.4 M174.5,60.5L174.5,60.5v0.9V60.5"/>
				<path fill="#CACCD0" d="M197.5,58.4c-1.2,0-2.1,1-2.1,2.1c0,1.2,1,2.1,2.1,2.1c1.2,0,2.1-1,2.1-2.1
					C199.7,59.3,198.7,58.4,197.5,58.4 M197.5,60.5L197.5,60.5v0.9V60.5"/>
				<path fill="#CACCD0" d="M223.1,12.3c-1.2,0-2.1,1-2.1,2.1c0,1.2,1,2.1,2.1,2.1c1.2,0,2.1-1,2.1-2.1
					C225.2,13.3,224.3,12.3,223.1,12.3 M223.1,14.5L223.1,14.5v0.9V14.5"/>
				<path fill="#CACCD0" d="M223.1,35.3c-1.2,0-2.1,1-2.1,2.1c0,1.2,1,2.1,2.1,2.1c1.2,0,2.1-1,2.1-2.1
					C225.2,36.3,224.3,35.3,223.1,35.3 M223.1,37.5L223.1,37.5v0.9V37.5"/>
				<path fill="#CACCD0" d="M223.1,58.4c-1.2,0-2.1,1-2.1,2.1c0,1.2,1,2.1,2.1,2.1c1.2,0,2.1-1,2.1-2.1
					C225.2,59.3,224.3,58.4,223.1,58.4 M223.1,60.5L223.1,60.5v0.9V60.5"/>
			</g>
		</g>
		<rect x="0" y="0" fill="#F3952B" width="42.7" height="284.8"/>
	</g>
</g>
</svg>
